# Blender 4.4.0
# www.blender.org
mtllib hangers.mtl
o HANGERS
v -0.652537 -0.031034 0.000000
v -0.417486 -0.031248 0.000000
v -0.522980 -0.086088 0.000000
v -0.541880 -0.071111 0.000000
v -0.417486 -0.031248 -0.050730
v -0.417486 -0.031247 0.050730
v -0.420030 -0.055414 -0.053358
v -0.417486 -0.052603 -0.050615
v -0.419090 -0.057608 -0.047126
v -0.422723 -0.058137 -0.049782
v -0.418231 -0.054593 -0.051987
v -0.418943 -0.055851 -0.050346
v -0.417956 -0.055236 -0.048870
v -0.420560 -0.058317 -0.048946
v -0.421367 -0.056210 -0.051130
v -0.522762 -0.084299 -0.040217
v -0.522980 -0.086088 -0.036483
v -0.522907 -0.085503 -0.038746
v -0.541880 -0.071111 -0.032049
v -0.541880 -0.068849 -0.036677
v -0.541880 -0.070448 -0.034574
v -0.649994 -0.054807 -0.047944
v -0.648354 -0.057307 -0.043855
v -0.651250 -0.057230 -0.040745
v -0.652537 -0.051983 -0.045065
v -0.649167 -0.055540 -0.045586
v -0.651307 -0.055238 -0.044621
v -0.650279 -0.057453 -0.042896
v -0.652160 -0.054687 -0.042905
v -0.651792 -0.053977 -0.046504
v -0.635970 -0.080642 -0.031857
v -0.634869 -0.083334 -0.027664
v -0.638701 -0.080904 -0.028644
v -0.635408 -0.082546 -0.030057
v -0.636853 -0.082344 -0.029795
v -0.637045 -0.082622 -0.028154
v -0.637695 -0.081217 -0.030661
v -0.649994 -0.051989 -0.085304
v -0.649994 -0.054806 -0.082487
v -0.652537 -0.051983 -0.082475
v -0.649994 -0.053981 -0.084479
v -0.651462 -0.053612 -0.084106
v -0.651792 -0.053977 -0.082478
v -0.651792 -0.051985 -0.084470
v -0.649994 -0.031036 -0.085305
v -0.652537 -0.031034 -0.082475
v -0.651792 -0.031035 -0.084471
v -0.420030 -0.055413 -0.083800
v -0.420030 -0.052596 -0.086617
v -0.417486 -0.052603 -0.083816
v -0.420030 -0.054588 -0.085792
v -0.418561 -0.054227 -0.085436
v -0.418231 -0.052601 -0.085804
v -0.418231 -0.054593 -0.083811
v -0.457439 -0.096348 -0.039943
v -0.454982 -0.097574 -0.036994
v -0.459240 -0.098646 -0.036457
v -0.455924 -0.097450 -0.038979
v -0.457087 -0.098340 -0.038348
v -0.457001 -0.098704 -0.036725
v -0.458522 -0.098045 -0.038646
v -0.454987 -0.097571 0.000000
v -0.459245 -0.098644 0.000000
v -0.457007 -0.098701 0.000000
v -0.587123 -0.080697 -0.031978
v -0.585147 -0.081548 -0.028224
v -0.589657 -0.083334 -0.027664
v -0.585954 -0.081503 -0.030450
v -0.587205 -0.082479 -0.029700
v -0.587283 -0.082811 -0.027944
v -0.588417 -0.082562 -0.030093
v -0.585141 -0.081555 0.000000
v -0.589657 -0.083334 0.000000
v -0.587281 -0.082813 0.000000
v -0.573202 -0.068560 -0.036626
v -0.573202 -0.070631 -0.034227
v -0.573202 -0.071404 -0.031703
v -0.634869 -0.083334 0.000000
v -0.638701 -0.080905 0.000000
v -0.637045 -0.082622 0.000000
v -0.651250 -0.057230 0.000000
v -0.652537 -0.051983 0.000000
v -0.652160 -0.054687 0.000000
v -0.573202 -0.071403 0.000000
v -0.417486 -0.052603 0.000000
v -0.419090 -0.057607 0.000000
v -0.417956 -0.055236 0.000000
v -0.417486 -0.031248 -0.083816
v -0.420030 -0.031245 -0.086617
v -0.418231 -0.031247 -0.085804
v -0.420030 -0.055414 0.053359
v -0.422723 -0.058137 0.049781
v -0.419090 -0.057608 0.047126
v -0.417486 -0.052603 0.050615
v -0.421367 -0.056210 0.051130
v -0.418943 -0.055851 0.050346
v -0.420560 -0.058317 0.048945
v -0.417956 -0.055236 0.048870
v -0.418231 -0.054593 0.051987
v -0.522980 -0.086088 0.036483
v -0.522762 -0.084299 0.040216
v -0.522907 -0.085503 0.038745
v -0.541880 -0.068848 0.036678
v -0.541880 -0.071111 0.032049
v -0.541880 -0.070448 0.034574
v -0.648354 -0.057307 0.043855
v -0.649994 -0.054807 0.047943
v -0.652537 -0.051983 0.045065
v -0.651250 -0.057230 0.040745
v -0.649167 -0.055540 0.045586
v -0.651307 -0.055238 0.044621
v -0.651792 -0.053977 0.046504
v -0.652160 -0.054687 0.042905
v -0.650279 -0.057453 0.042896
v -0.638701 -0.080904 0.028644
v -0.634869 -0.083334 0.027664
v -0.635966 -0.080649 0.031854
v -0.637045 -0.082622 0.028154
v -0.636852 -0.082345 0.029794
v -0.635407 -0.082548 0.030056
v -0.637693 -0.081220 0.030660
v -0.649994 -0.051991 0.085308
v -0.652537 -0.051983 0.082475
v -0.649994 -0.054808 0.082491
v -0.651792 -0.051985 0.084472
v -0.651462 -0.053613 0.084108
v -0.651792 -0.053977 0.082479
v -0.649994 -0.053983 0.084483
v -0.652537 -0.031034 0.082475
v -0.649994 -0.031036 0.085305
v -0.651792 -0.031035 0.084470
v -0.420030 -0.052597 0.086621
v -0.420030 -0.055414 0.083803
v -0.417486 -0.052603 0.083816
v -0.420030 -0.054589 0.085796
v -0.418561 -0.054227 0.085437
v -0.418231 -0.054594 0.083812
v -0.418231 -0.052601 0.085805
v -0.457438 -0.096346 0.039943
v -0.459240 -0.098646 0.036457
v -0.454982 -0.097574 0.036994
v -0.458522 -0.098044 0.038646
v -0.457087 -0.098340 0.038348
v -0.457001 -0.098704 0.036725
v -0.455924 -0.097449 0.038979
v -0.589657 -0.083334 0.027664
v -0.585147 -0.081547 0.028224
v -0.587139 -0.080704 0.031974
v -0.587283 -0.082811 0.027944
v -0.587209 -0.082480 0.029699
v -0.585962 -0.081508 0.030447
v -0.588423 -0.082564 0.030092
v -0.573202 -0.068558 0.036627
v -0.573202 -0.071404 0.031703
v -0.573202 -0.070631 0.034228
v -0.420030 -0.031245 0.086617
v -0.417486 -0.031247 0.083816
v -0.418231 -0.031247 0.085804
v -0.524862 -0.055134 -0.050880
v -0.525266 -0.057423 -0.046465
v -0.525062 -0.055805 -0.048417
v -0.525261 -0.057411 0.046442
v -0.524886 -0.055138 0.050878
v -0.525072 -0.055803 0.048410
v -0.591446 -0.057264 -0.044869
v -0.591844 -0.054960 -0.049326
v -0.591643 -0.055634 -0.046838
v -0.591844 -0.054960 0.049324
v -0.591496 -0.057266 0.044873
v -0.591643 -0.055634 0.046838
v 0.696225 -0.031034 0.000000
v 0.461174 -0.031248 0.000000
v 0.574674 -0.084071 0.000000
v 0.585569 -0.071111 0.000000
v 0.461174 -0.031248 -0.050730
v 0.461174 -0.031247 0.050730
v 0.463718 -0.055414 -0.053358
v 0.461174 -0.052603 -0.050615
v 0.462778 -0.057608 -0.047126
v 0.466411 -0.058137 -0.049782
v 0.461919 -0.054593 -0.051987
v 0.462631 -0.055851 -0.050346
v 0.461644 -0.055236 -0.048870
v 0.464248 -0.058317 -0.048946
v 0.465055 -0.056210 -0.051130
v 0.574430 -0.082285 -0.040217
v 0.574674 -0.084071 -0.036483
v 0.574592 -0.083487 -0.038746
v 0.585569 -0.071111 -0.032049
v 0.585569 -0.068849 -0.036677
v 0.585569 -0.070448 -0.034574
v 0.693682 -0.054807 -0.047944
v 0.692043 -0.057307 -0.043854
v 0.694938 -0.057230 -0.040745
v 0.696225 -0.051983 -0.045065
v 0.692855 -0.055540 -0.045586
v 0.694995 -0.055238 -0.044621
v 0.693967 -0.057453 -0.042896
v 0.695848 -0.054687 -0.042905
v 0.695480 -0.053977 -0.046504
v 0.679658 -0.080642 -0.031857
v 0.678558 -0.083334 -0.027664
v 0.682389 -0.080904 -0.028644
v 0.679096 -0.082546 -0.030057
v 0.680541 -0.082344 -0.029795
v 0.680733 -0.082622 -0.028154
v 0.681383 -0.081217 -0.030661
v 0.693682 -0.051989 -0.085304
v 0.693682 -0.054806 -0.082487
v 0.696225 -0.051983 -0.082475
v 0.693682 -0.053981 -0.084479
v 0.695150 -0.053612 -0.084106
v 0.695480 -0.053977 -0.082478
v 0.695480 -0.051985 -0.084470
v 0.693682 -0.031036 -0.085305
v 0.696225 -0.031034 -0.082475
v 0.695480 -0.031035 -0.084470
v 0.463718 -0.055413 -0.083800
v 0.463718 -0.052596 -0.086617
v 0.461174 -0.052603 -0.083816
v 0.463718 -0.054588 -0.085792
v 0.462250 -0.054227 -0.085436
v 0.461919 -0.052601 -0.085804
v 0.461919 -0.054593 -0.083811
v 0.509286 -0.095262 -0.039943
v 0.506847 -0.096523 -0.036994
v 0.511119 -0.097535 -0.036457
v 0.507787 -0.096385 -0.038979
v 0.508962 -0.097259 -0.038348
v 0.508882 -0.097624 -0.036725
v 0.510393 -0.096943 -0.038646
v 0.506851 -0.096520 0.000000
v 0.511124 -0.097532 0.000000
v 0.508887 -0.097621 0.000000
v 0.630811 -0.080697 -0.031978
v 0.628835 -0.081548 -0.028224
v 0.633345 -0.083334 -0.027664
v 0.629642 -0.081503 -0.030450
v 0.630894 -0.082479 -0.029700
v 0.630971 -0.082811 -0.027944
v 0.632105 -0.082562 -0.030093
v 0.628829 -0.081555 0.000000
v 0.633345 -0.083334 0.000000
v 0.630969 -0.082813 0.000000
v 0.616891 -0.068560 -0.036626
v 0.616891 -0.070631 -0.034227
v 0.616891 -0.071404 -0.031703
v 0.678558 -0.083334 0.000000
v 0.682389 -0.080905 0.000000
v 0.680733 -0.082622 0.000000
v 0.694938 -0.057230 0.000000
v 0.696225 -0.051983 0.000000
v 0.695848 -0.054687 0.000000
v 0.616891 -0.071403 0.000000
v 0.461174 -0.052603 0.000000
v 0.462778 -0.057607 0.000000
v 0.461644 -0.055236 0.000000
v 0.461174 -0.031248 -0.083816
v 0.463718 -0.031245 -0.086617
v 0.461919 -0.031247 -0.085804
v 0.463718 -0.055414 0.053359
v 0.466411 -0.058137 0.049781
v 0.462778 -0.057608 0.047126
v 0.461174 -0.052603 0.050615
v 0.465055 -0.056210 0.051130
v 0.462631 -0.055851 0.050346
v 0.464248 -0.058317 0.048945
v 0.461644 -0.055236 0.048870
v 0.461919 -0.054593 0.051987
v 0.574674 -0.084071 0.036483
v 0.574430 -0.082285 0.040216
v 0.574592 -0.083487 0.038745
v 0.585569 -0.068848 0.036678
v 0.585569 -0.071111 0.032049
v 0.585569 -0.070448 0.034574
v 0.692043 -0.057307 0.043855
v 0.693682 -0.054807 0.047943
v 0.696225 -0.051983 0.045065
v 0.694938 -0.057230 0.040745
v 0.692855 -0.055540 0.045586
v 0.694995 -0.055238 0.044621
v 0.695480 -0.053977 0.046504
v 0.695848 -0.054687 0.042905
v 0.693967 -0.057453 0.042896
v 0.682389 -0.080904 0.028644
v 0.678558 -0.083334 0.027664
v 0.679654 -0.080649 0.031854
v 0.680733 -0.082622 0.028154
v 0.680540 -0.082345 0.029794
v 0.679095 -0.082548 0.030056
v 0.681381 -0.081220 0.030660
v 0.693682 -0.051991 0.085308
v 0.696225 -0.051983 0.082475
v 0.693682 -0.054808 0.082491
v 0.695480 -0.051985 0.084472
v 0.695150 -0.053613 0.084108
v 0.695480 -0.053977 0.082479
v 0.693682 -0.053983 0.084483
v 0.696225 -0.031034 0.082475
v 0.693682 -0.031036 0.085305
v 0.695480 -0.031035 0.084470
v 0.463718 -0.052597 0.086621
v 0.463718 -0.055414 0.083803
v 0.461174 -0.052603 0.083816
v 0.463718 -0.054589 0.085796
v 0.462250 -0.054227 0.085437
v 0.461919 -0.054594 0.083812
v 0.461919 -0.052601 0.085805
v 0.509285 -0.095260 0.039943
v 0.511119 -0.097535 0.036457
v 0.506847 -0.096523 0.036994
v 0.510393 -0.096943 0.038646
v 0.508962 -0.097259 0.038348
v 0.508881 -0.097624 0.036725
v 0.507786 -0.096385 0.038979
v 0.633345 -0.083334 0.027664
v 0.628835 -0.081547 0.028224
v 0.630827 -0.080704 0.031974
v 0.630971 -0.082811 0.027944
v 0.630897 -0.082480 0.029699
v 0.629650 -0.081508 0.030447
v 0.632112 -0.082564 0.030092
v 0.616891 -0.068558 0.036627
v 0.616891 -0.071404 0.031703
v 0.616891 -0.070631 0.034228
v 0.463718 -0.031245 0.086617
v 0.461174 -0.031247 0.083816
v 0.461919 -0.031247 0.085804
v 0.568550 -0.055134 -0.050880
v 0.568954 -0.057423 -0.046465
v 0.568750 -0.055805 -0.048417
v 0.568949 -0.057411 0.046442
v 0.568574 -0.055138 0.050878
v 0.568760 -0.055803 0.048410
v 0.635134 -0.057264 -0.044869
v 0.635532 -0.054960 -0.049326
v 0.635332 -0.055634 -0.046838
v 0.635532 -0.054960 0.049323
v 0.635184 -0.057266 0.044873
v 0.635332 -0.055634 0.046838
v 0.671031 -0.062700 -0.056349
v 0.671030 -0.047548 -0.056349
v 0.660412 -0.062700 -0.062973
v 0.660410 -0.047548 -0.062973
v 0.660839 -0.062700 -0.075482
v 0.660838 -0.047548 -0.075482
v 0.671886 -0.062700 -0.081367
v 0.671885 -0.047548 -0.081367
v 0.682505 -0.062700 -0.074742
v 0.682504 -0.047548 -0.074742
v 0.682078 -0.062700 -0.062233
v 0.682077 -0.047548 -0.062233
v 0.491730 -0.062700 0.078743
v 0.491729 -0.047548 0.078744
v 0.479214 -0.062700 0.078743
v 0.479213 -0.047548 0.078744
v 0.472955 -0.062700 0.067904
v 0.472954 -0.047548 0.067904
v 0.479214 -0.062700 0.057064
v 0.479213 -0.047548 0.057065
v 0.491730 -0.062700 0.057064
v 0.491729 -0.047548 0.057065
v 0.497988 -0.062700 0.067904
v 0.497987 -0.047548 0.067904
v 0.491730 -0.062700 -0.058019
v 0.491729 -0.047548 -0.058018
v 0.479214 -0.062700 -0.058019
v 0.479213 -0.047548 -0.058018
v 0.472955 -0.062700 -0.068858
v 0.472954 -0.047548 -0.068857
v 0.479214 -0.062700 -0.079698
v 0.479212 -0.047548 -0.079697
v 0.491730 -0.062700 -0.079697
v 0.491729 -0.047548 -0.079697
v 0.497988 -0.062700 -0.068858
v 0.497987 -0.047548 -0.068857
v 0.671931 -0.062700 0.080411
v 0.671930 -0.047548 0.080411
v 0.660863 -0.062700 0.074567
v 0.660862 -0.047548 0.074567
v 0.660391 -0.062700 0.062059
v 0.660389 -0.047548 0.062059
v 0.670986 -0.062700 0.055396
v 0.670985 -0.047548 0.055396
v 0.682054 -0.062700 0.061241
v 0.682053 -0.047548 0.061241
v 0.682527 -0.062700 0.073748
v 0.682525 -0.047548 0.073748
v -0.443908 -0.062700 -0.056349
v -0.443909 -0.047548 -0.056349
v -0.454527 -0.062700 -0.062973
v -0.454528 -0.047548 -0.062973
v -0.454100 -0.062700 -0.075482
v -0.454101 -0.047548 -0.075482
v -0.443053 -0.062700 -0.081367
v -0.443054 -0.047548 -0.081367
v -0.432433 -0.062700 -0.074742
v -0.432435 -0.047548 -0.074742
v -0.432861 -0.062700 -0.062233
v -0.432862 -0.047548 -0.062233
v -0.623209 -0.062700 0.078743
v -0.623210 -0.047548 0.078744
v -0.635725 -0.062700 0.078743
v -0.635726 -0.047548 0.078744
v -0.641983 -0.062700 0.067904
v -0.641984 -0.047548 0.067904
v -0.635725 -0.062700 0.057064
v -0.635726 -0.047548 0.057065
v -0.623209 -0.062700 0.057064
v -0.623210 -0.047548 0.057065
v -0.616951 -0.062700 0.067904
v -0.616952 -0.047548 0.067904
v -0.623209 -0.062700 -0.058019
v -0.623210 -0.047548 -0.058018
v -0.635725 -0.062700 -0.058019
v -0.635726 -0.047548 -0.058018
v -0.641983 -0.062700 -0.068858
v -0.641984 -0.047548 -0.068857
v -0.635725 -0.062700 -0.079698
v -0.635726 -0.047548 -0.079697
v -0.623209 -0.062700 -0.079697
v -0.623210 -0.047548 -0.079697
v -0.616951 -0.062700 -0.068858
v -0.616952 -0.047548 -0.068857
v -0.443008 -0.062700 0.080411
v -0.443009 -0.047548 0.080411
v -0.454076 -0.062700 0.074567
v -0.454077 -0.047548 0.074567
v -0.454548 -0.062700 0.062059
v -0.454549 -0.047548 0.062059
v -0.443953 -0.062700 0.055396
v -0.443954 -0.047548 0.055396
v -0.432885 -0.062700 0.061241
v -0.432886 -0.047548 0.061241
v -0.432412 -0.062700 0.073748
v -0.432413 -0.047548 0.073748
vn 0.2398 -0.9637 -0.1176
vn 0.7663 -0.6313 -0.1191
vn 0.6470 -0.6768 -0.3512
vn 0.1662 -0.8376 -0.5204
vn 0.9859 -0.1642 -0.0323
vn 0.9103 -0.3961 -0.1203
vn 0.7991 -0.5859 -0.1349
vn 0.5261 -0.6477 -0.5511
vn 0.1342 -0.5488 -0.8251
vn -0.2428 -0.9629 -0.1174
vn -0.2042 -0.8600 -0.4677
vn -0.6881 -0.6393 -0.3432
vn -0.7729 -0.6219 -0.1256
vn -0.1836 -0.6487 -0.7386
vn -0.5995 -0.6230 -0.5025
vn -0.8736 -0.4684 -0.1321
vn -0.9333 -0.3402 -0.1153
vn -0.9877 -0.1525 -0.0357
vn -0.1387 -0.6003 -0.7877
vn -0.1160 -0.8522 -0.5103
vn -0.4110 -0.8190 -0.4004
vn -0.5305 -0.6692 -0.5203
vn -0.1307 -0.9827 -0.1309
vn -0.5035 -0.8562 -0.1157
vn -0.7902 -0.6010 -0.1203
vn -0.2001 -0.1777 -0.9635
vn -0.1929 -0.6871 -0.7005
vn -0.6081 -0.5588 -0.5639
vn -0.7148 -0.1643 -0.6798
vn -0.1992 -0.9634 -0.1792
vn -0.7205 -0.6735 -0.1650
vn -0.9727 -0.1640 -0.1644
vn 0.1928 -0.9647 -0.1795
vn 0.1826 -0.6883 -0.7020
vn 0.6030 -0.5610 -0.5672
vn 0.7179 -0.6760 -0.1663
vn 0.1893 -0.1780 -0.9656
vn 0.7105 -0.1654 -0.6840
vn 0.9724 -0.1646 -0.1651
vn 0.0387 -0.4627 -0.8856
vn 0.3813 -0.6975 -0.6067
vn 0.1580 -0.8657 -0.4749
vn -0.0943 -0.8247 -0.5577
vn 0.6167 -0.7746 -0.1404
vn 0.2202 -0.9667 -0.1307
vn -0.1272 -0.9830 -0.1324
vn 0.1625 -0.6344 -0.7557
vn 0.4387 -0.7886 -0.4309
vn 0.3245 -0.8822 -0.3412
vn 0.1024 -0.8642 -0.4927
vn 0.5732 -0.8134 -0.0995
vn 0.3497 -0.9319 -0.0957
vn 0.0854 -0.9875 -0.1326
vn 0.2401 -0.9636 0.1173
vn 0.1661 -0.8383 0.5193
vn 0.6470 -0.6768 0.3512
vn 0.7663 -0.6313 0.1191
vn 0.1341 -0.5497 0.8245
vn 0.5261 -0.6477 0.5511
vn 0.7991 -0.5859 0.1350
vn 0.9103 -0.3961 0.1203
vn 0.9859 -0.1643 0.0324
vn -0.1836 -0.6485 0.7388
vn -0.2040 -0.8600 0.4677
vn -0.6881 -0.6393 0.3432
vn -0.5995 -0.6230 0.5024
vn -0.2430 -0.9629 0.1174
vn -0.7730 -0.6219 0.1256
vn -0.9877 -0.1525 0.0357
vn -0.9333 -0.3401 0.1151
vn -0.8736 -0.4684 0.1321
vn -0.7902 -0.6010 0.1200
vn -0.5036 -0.8562 0.1155
vn -0.4111 -0.8192 0.3999
vn -0.5305 -0.6693 0.5201
vn -0.1308 -0.9828 0.1306
vn -0.1160 -0.8524 0.5098
vn -0.1387 -0.6004 0.7876
vn -0.2006 -0.1776 0.9634
vn -0.7152 -0.1641 0.6794
vn -0.6088 -0.5585 0.5634
vn -0.1935 -0.6870 0.7004
vn -0.9727 -0.1640 0.1641
vn -0.7208 -0.6732 0.1648
vn -0.1995 -0.9634 0.1789
vn 0.1899 -0.1780 0.9655
vn 0.1831 -0.6882 0.7020
vn 0.6036 -0.5607 0.5668
vn 0.7109 -0.1653 0.6836
vn 0.1931 -0.9646 0.1795
vn 0.7182 -0.6758 0.1660
vn 0.9725 -0.1645 0.1651
vn -0.1277 -0.9829 0.1324
vn 0.2202 -0.9666 0.1308
vn 0.2099 -0.9415 0.2637
vn -0.1375 -0.8689 0.4755
vn 0.6167 -0.7745 0.1405
vn 0.4894 -0.7005 0.5194
vn 0.0857 -0.9875 0.1322
vn 0.3499 -0.9319 0.0956
vn 0.3243 -0.8822 0.3413
vn 0.1022 -0.8644 0.4924
vn 0.5733 -0.8133 0.0996
vn 0.4383 -0.7886 0.4313
vn 0.1621 -0.6344 0.7558
vn -0.4195 -0.8981 -0.1319
vn -0.3404 -0.9320 -0.1242
vn -0.3440 -0.8289 -0.4411
vn -0.3982 -0.7891 -0.4678
vn -0.2089 -0.6193 -0.7569
vn -0.2881 -0.4832 -0.8267
vn -0.9841 -0.0000 -0.1777
vn -0.7288 -0.0000 -0.6847
vn -0.2173 -0.0000 -0.9761
vn 0.6246 -0.7810 -0.0000
vn 0.2399 -0.9708 -0.0000
vn -0.1099 -0.9939 -0.0000
vn 0.5799 -0.8147 -0.0000
vn 0.3659 -0.9307 -0.0000
vn 0.1080 -0.9942 -0.0000
vn 0.0751 -0.6463 -0.7594
vn 0.2507 -0.8317 -0.4953
vn 0.3391 -0.9293 -0.1466
vn -0.1575 -0.9875 -0.0000
vn -0.5311 -0.8473 -0.0000
vn -0.8096 -0.5870 -0.0000
vn -0.9147 -0.4041 -0.0000
vn -0.9711 -0.2387 -0.0000
vn -0.9976 -0.0692 -0.0000
vn 0.9961 -0.0882 -0.0000
vn 0.9519 -0.3063 -0.0000
vn 0.8315 -0.5555 -0.0000
vn -0.0062 -0.9896 -0.1435
vn -0.0161 -0.8641 -0.5030
vn -0.0822 -0.5418 -0.8365
vn 0.9840 -0.0000 -0.1783
vn 0.7249 -0.0000 -0.6889
vn 0.2070 -0.0000 -0.9783
vn -0.2880 -0.4829 0.8269
vn -0.2086 -0.6189 0.7573
vn -0.3441 -0.8288 0.4412
vn -0.3982 -0.7890 0.4679
vn -0.3406 -0.9320 0.1242
vn -0.4195 -0.8981 0.1318
vn -0.2179 0.0001 0.9760
vn -0.7291 0.0001 0.6844
vn -0.9841 -0.0000 0.1776
vn 0.0364 -0.4184 0.9075
vn 0.3391 -0.9292 0.1467
vn 0.2505 -0.8317 0.4955
vn 0.0751 -0.6460 0.7596
vn -0.0820 -0.5427 0.8359
vn -0.0160 -0.8654 0.5009
vn -0.0062 -0.9898 0.1427
vn 0.2074 0.0001 0.9783
vn 0.7251 0.0001 0.6887
vn 0.9840 -0.0000 0.1783
vn -0.0056 -0.9907 -0.1363
vn -0.0123 -0.8790 -0.4766
vn 0.0014 -0.6372 -0.7707
vn 0.0015 -0.6374 0.7705
vn -0.0122 -0.8794 0.4759
vn -0.0056 -0.9907 0.1359
vn 1.0000 -0.0000 -0.0000
vn -0.4190 -0.9080 -0.0000
vn -0.3244 -0.9459 -0.0000
vn 0.3493 -0.9370 -0.0000
vn -1.0000 -0.0000 -0.0000
vn -0.2400 -0.9636 -0.1177
vn -0.1661 -0.8376 -0.5204
vn -0.6470 -0.6768 -0.3512
vn -0.7664 -0.6313 -0.1191
vn -0.9859 -0.1642 -0.0323
vn -0.9103 -0.3961 -0.1203
vn -0.7742 -0.6204 -0.1255
vn -0.5065 -0.6843 -0.5246
vn -0.1308 -0.5656 -0.8143
vn 0.2428 -0.9629 -0.1174
vn 0.7729 -0.6220 -0.1256
vn 0.6881 -0.6393 -0.3432
vn 0.2040 -0.8601 -0.4676
vn 0.1836 -0.6487 -0.7386
vn 0.5995 -0.6230 -0.5025
vn 0.8736 -0.4684 -0.1321
vn 0.9333 -0.3400 -0.1151
vn 0.9877 -0.1524 -0.0356
vn 0.1387 -0.6002 -0.7877
vn 0.5305 -0.6692 -0.5203
vn 0.4110 -0.8190 -0.4004
vn 0.1160 -0.8522 -0.5103
vn 0.1308 -0.9827 -0.1309
vn 0.5038 -0.8561 -0.1154
vn 0.7902 -0.6010 -0.1203
vn 0.2000 -0.1777 -0.9635
vn 0.7148 -0.1643 -0.6798
vn 0.6082 -0.5587 -0.5639
vn 0.1929 -0.6871 -0.7005
vn 0.1992 -0.9635 -0.1790
vn 0.7205 -0.6735 -0.1649
vn 0.9727 -0.1640 -0.1644
vn -0.1928 -0.9647 -0.1795
vn -0.7179 -0.6760 -0.1661
vn -0.6030 -0.5610 -0.5672
vn -0.1826 -0.6883 -0.7020
vn -0.1894 -0.1781 -0.9656
vn -0.7105 -0.1654 -0.6840
vn -0.9725 -0.1646 -0.1651
vn -0.0238 -0.4680 -0.8834
vn 0.1060 -0.8233 -0.5577
vn -0.1457 -0.8680 -0.4748
vn -0.3476 -0.7246 -0.5951
vn -0.5656 -0.8148 -0.1275
vn -0.2065 -0.9697 -0.1308
vn 0.1416 -0.9810 -0.1323
vn -0.1625 -0.6345 -0.7557
vn -0.1024 -0.8642 -0.4927
vn -0.3244 -0.8824 -0.3408
vn -0.4387 -0.7886 -0.4309
vn -0.5732 -0.8134 -0.0995
vn -0.3497 -0.9319 -0.0957
vn -0.0851 -0.9875 -0.1327
vn -0.2400 -0.9637 0.1172
vn -0.7664 -0.6313 0.1191
vn -0.6470 -0.6768 0.3512
vn -0.1661 -0.8383 0.5193
vn -0.1308 -0.5663 0.8137
vn -0.5065 -0.6843 0.5247
vn -0.7742 -0.6205 0.1252
vn -0.9103 -0.3960 0.1202
vn -0.9859 -0.1641 0.0322
vn 0.1837 -0.6485 0.7387
vn 0.5995 -0.6230 0.5024
vn 0.6881 -0.6393 0.3432
vn 0.2041 -0.8599 0.4678
vn 0.2429 -0.9629 0.1174
vn 0.7730 -0.6218 0.1256
vn 0.9877 -0.1525 0.0357
vn 0.9333 -0.3401 0.1152
vn 0.8736 -0.4684 0.1321
vn 0.7902 -0.6010 0.1203
vn 0.5305 -0.6693 0.5202
vn 0.4111 -0.8192 0.3999
vn 0.5036 -0.8562 0.1155
vn 0.1309 -0.9828 0.1306
vn 0.1160 -0.8524 0.5098
vn 0.1387 -0.6004 0.7876
vn 0.2007 -0.1777 0.9634
vn 0.1935 -0.6870 0.7004
vn 0.6088 -0.5585 0.5634
vn 0.7152 -0.1641 0.6793
vn 0.9727 -0.1640 0.1643
vn 0.7208 -0.6732 0.1648
vn 0.1994 -0.9634 0.1790
vn -0.1899 -0.1781 0.9655
vn -0.7109 -0.1653 0.6836
vn -0.6036 -0.5607 0.5668
vn -0.1831 -0.6882 0.7020
vn -0.1931 -0.9646 0.1795
vn -0.7182 -0.6758 0.1659
vn -0.9725 -0.1645 0.1650
vn -0.0238 -0.4677 0.8836
vn -0.3476 -0.7245 0.5952
vn -0.1457 -0.8678 0.4750
vn 0.1060 -0.8232 0.5578
vn 0.1416 -0.9810 0.1324
vn -0.2066 -0.9697 0.1308
vn -0.5656 -0.8148 0.1275
vn -0.0857 -0.9875 0.1322
vn -0.1022 -0.8644 0.4924
vn -0.3243 -0.8822 0.3413
vn -0.3499 -0.9319 0.0956
vn -0.5733 -0.8133 0.0996
vn -0.4383 -0.7886 0.4313
vn -0.1622 -0.6345 0.7557
vn 0.5124 -0.8492 -0.1276
vn 0.4898 -0.7446 -0.4534
vn 0.4478 -0.7873 -0.4238
vn 0.4398 -0.8902 -0.1186
vn 0.3809 -0.4441 -0.8110
vn 0.2670 -0.5806 -0.7692
vn 0.7288 -0.0000 -0.6847
vn 0.2173 -0.0000 -0.9761
vn -0.2261 -0.9741 -0.0000
vn -0.5726 -0.8199 -0.0000
vn 0.1239 -0.9923 -0.0000
vn -0.3659 -0.9307 -0.0000
vn -0.5799 -0.8147 -0.0000
vn -0.1080 -0.9942 -0.0000
vn -0.2507 -0.8318 -0.4952
vn -0.0751 -0.6463 -0.7594
vn -0.3391 -0.9293 -0.1466
vn 0.5312 -0.8473 -0.0000
vn 0.1575 -0.9875 -0.0000
vn 0.8096 -0.5870 -0.0000
vn 0.9711 -0.2388 -0.0000
vn 0.9149 -0.4037 -0.0000
vn 0.9976 -0.0692 -0.0000
vn -0.9519 -0.3063 -0.0000
vn -0.9961 -0.0882 -0.0000
vn -0.7980 -0.6026 -0.0000
vn 0.0062 -0.9896 -0.1435
vn 0.0161 -0.8641 -0.5030
vn 0.0766 -0.5296 -0.8448
vn -0.9839 -0.0000 -0.1787
vn -0.7248 -0.0000 -0.6889
vn -0.2072 -0.0000 -0.9783
vn 0.3808 -0.4438 0.8112
vn 0.4898 -0.7446 0.4536
vn 0.4479 -0.7872 0.4239
vn 0.2666 -0.5802 0.7696
vn 0.5126 -0.8491 0.1279
vn 0.4397 -0.8903 0.1186
vn 0.7291 0.0001 0.6844
vn 0.2179 0.0001 0.9760
vn 0.9840 -0.0000 0.1780
vn -0.2505 -0.8316 0.4956
vn -0.3392 -0.9292 0.1466
vn -0.0751 -0.6459 0.7597
vn 0.0765 -0.5306 0.8442
vn 0.0160 -0.8654 0.5009
vn 0.0062 -0.9898 0.1423
vn -0.2072 0.0001 0.9783
vn -0.7251 0.0001 0.6887
vn -0.9839 -0.0000 0.1787
vn 0.0056 -0.9907 -0.1363
vn 0.0123 -0.8790 -0.4767
vn -0.0014 -0.6373 -0.7706
vn -0.0015 -0.6374 0.7705
vn 0.0122 -0.8794 0.4758
vn 0.0056 -0.9907 0.1359
vn 0.5143 -0.8576 -0.0000
vn 0.4180 -0.9085 -0.0000
vn -0.3493 -0.9370 -0.0000
vn -0.5292 -0.0001 0.8485
vn -0.9994 -0.0001 -0.0342
vn -0.4702 -0.0000 -0.8826
vn 0.5293 -0.0000 -0.8484
vn 0.9994 0.0001 0.0341
vn 0.4701 -0.0000 0.8826
vn -0.0000 -1.0000 -0.0000
vn -0.0000 -0.0001 1.0000
vn -0.8660 -0.0001 0.5000
vn -0.8660 -0.0000 -0.5000
vn -0.0000 0.0001 -1.0000
vn 0.8660 0.0001 -0.5000
vn 0.8660 -0.0000 0.5000
vn -0.8660 -0.0001 0.5001
vn -0.8660 -0.0001 -0.5000
vn -0.0000 -0.0000 -1.0000
vn -0.4669 -0.0000 0.8843
vn -0.9993 -0.0001 0.0378
vn -0.5323 -0.0001 -0.8465
vn 0.4670 -0.0000 -0.8843
vn 0.9993 0.0001 -0.0378
vn 0.5323 0.0001 0.8465
vn -0.5293 -0.0000 0.8485
vn -0.9994 -0.0001 -0.0341
vn 0.5293 0.0001 -0.8484
vn 0.9994 0.0001 0.0342
vn -0.9993 -0.0001 0.0377
vn -0.5324 -0.0000 -0.8465
vn 0.5323 -0.0000 0.8465
vt 0.766783 0.178845
vt 0.765697 0.180492
vt 0.764636 0.180488
vt 0.764636 0.177979
vt 0.730160 0.269399
vt 0.728715 0.267659
vt 0.729674 0.267082
vt 0.730910 0.267722
vt 0.727622 0.265250
vt 0.729293 0.263885
vt 0.769562 0.055926
vt 0.767998 0.055356
vt 0.767973 0.054312
vt 0.769979 0.054770
vt 0.766578 0.030290
vt 0.764636 0.030812
vt 0.764636 0.029437
vt 0.765623 0.028663
vt 0.769683 0.153376
vt 0.770166 0.154434
vt 0.768578 0.154909
vt 0.767988 0.153651
vt 0.725033 0.040662
vt 0.726481 0.038138
vt 0.727873 0.038138
vt 0.727035 0.041440
vt 0.728029 0.036114
vt 0.729068 0.038129
vt 0.785575 0.148736
vt 0.787394 0.148567
vt 0.787375 0.149193
vt 0.786355 0.149731
vt 0.716769 0.069777
vt 0.717233 0.067761
vt 0.718779 0.067649
vt 0.718925 0.069321
vt 0.717473 0.065236
vt 0.719492 0.066187
vt 0.796296 0.029405
vt 0.794796 0.029402
vt 0.794797 0.028385
vt 0.796298 0.027647
vt 0.790280 0.030401
vt 0.790290 0.028772
vt 0.791406 0.028777
vt 0.792219 0.030410
vt 0.754643 0.035881
vt 0.756652 0.035867
vt 0.756633 0.037023
vt 0.754621 0.037885
vt 0.790071 0.178937
vt 0.792219 0.178941
vt 0.792219 0.179893
vt 0.790059 0.180589
vt 0.796074 0.179522
vt 0.796073 0.181096
vt 0.795222 0.181096
vt 0.794598 0.179518
vt 0.755779 0.269405
vt 0.755776 0.267721
vt 0.757045 0.267721
vt 0.757917 0.269407
vt 0.790148 0.067006
vt 0.790922 0.066069
vt 0.791629 0.066451
vt 0.791653 0.067424
vt 0.721821 0.224794
vt 0.721684 0.222439
vt 0.723102 0.222210
vt 0.723660 0.224133
vt 0.721461 0.220529
vt 0.723382 0.220899
vt 0.786198 0.127598
vt 0.787496 0.126987
vt 0.787938 0.127542
vt 0.787986 0.128193
vt 0.716086 0.109646
vt 0.714896 0.107595
vt 0.716352 0.107569
vt 0.717840 0.109114
vt 0.714793 0.105584
vt 0.716685 0.106574
vt 0.790072 0.178830
vt 0.792219 0.177958
vt 0.792219 0.179534
vt 0.791158 0.180495
vt 0.768981 0.151937
vt 0.769442 0.153074
vt 0.767870 0.153822
vt 0.767249 0.152489
vt 0.728713 0.267660
vt 0.729744 0.267716
vt 0.730920 0.267721
vt 0.769163 0.057054
vt 0.767239 0.056785
vt 0.767220 0.055891
vt 0.769680 0.056040
vt 0.790279 0.030284
vt 0.791232 0.028664
vt 0.792219 0.028659
vt 0.792219 0.030812
vt 0.726480 0.038138
vt 0.727742 0.038647
vt 0.729070 0.038129
vt 0.727024 0.041484
vt 0.718748 0.067963
vt 0.719491 0.066190
vt 0.718925 0.069322
vt 0.787206 0.061571
vt 0.788093 0.060602
vt 0.789109 0.060856
vt 0.789265 0.061735
vt 0.796020 0.029407
vt 0.796022 0.027647
vt 0.795134 0.027647
vt 0.794483 0.029402
vt 0.754622 0.037885
vt 0.755779 0.037874
vt 0.756652 0.035868
vt 0.766575 0.030398
vt 0.764636 0.030400
vt 0.764636 0.029473
vt 0.766565 0.028791
vt 0.795798 0.179524
vt 0.794286 0.179521
vt 0.794285 0.180427
vt 0.795797 0.181096
vt 0.766783 0.178933
vt 0.766796 0.180608
vt 0.765552 0.180613
vt 0.764636 0.178936
vt 0.757953 0.268435
vt 0.755777 0.267721
vt 0.723124 0.222612
vt 0.723660 0.224134
vt 0.716445 0.107707
vt 0.716685 0.106568
vt 0.717834 0.109107
vt 0.787819 0.082147
vt 0.789850 0.081571
vt 0.789865 0.082084
vt 0.789335 0.082745
vt 0.720461 0.178385
vt 0.725716 0.145627
vt 0.728318 0.145626
vt 0.722341 0.178290
vt 0.787182 0.091569
vt 0.783451 0.107696
vt 0.781373 0.107679
vt 0.785380 0.091547
vt 0.754862 0.020999
vt 0.756892 0.020995
vt 0.807455 0.027647
vt 0.807453 0.029405
vt 0.696729 0.224723
vt 0.696712 0.222439
vt 0.696698 0.220529
vt 0.695896 0.109423
vt 0.695881 0.107471
vt 0.695867 0.105480
vt 0.780980 0.121477
vt 0.783291 0.121693
vt 0.727883 0.121550
vt 0.725379 0.122004
vt 0.695610 0.070104
vt 0.695596 0.068113
vt 0.695577 0.065561
vt 0.728318 0.123013
vt 0.783108 0.120923
vt 0.695397 0.040688
vt 0.695378 0.038136
vt 0.695364 0.036120
vt 0.697053 0.267782
vt 0.697039 0.265902
vt 0.697021 0.263617
vt 0.766687 0.110843
vt 0.764659 0.110567
vt 0.768683 0.100254
vt 0.770644 0.100370
vt 0.755488 0.282171
vt 0.757436 0.282175
vt 0.807253 0.181096
vt 0.807255 0.179522
vt 0.786994 0.117228
vt 0.782966 0.101551
vt 0.785433 0.101534
vt 0.789058 0.117240
vt 0.807454 0.029407
vt 0.754861 0.020999
vt 0.793412 0.140753
vt 0.791741 0.141155
vt 0.727881 0.121548
vt 0.785261 0.087904
vt 0.782565 0.088114
vt 0.785105 0.088653
vt 0.728318 0.123012
vt 0.770254 0.108700
vt 0.767930 0.108821
vt 0.792199 0.110530
vt 0.790179 0.110726
vt 0.807254 0.179524
vt 0.766655 0.068292
vt 0.764642 0.067530
vt 0.768488 0.129337
vt 0.770463 0.129384
vt 0.770006 0.080368
vt 0.767757 0.080400
vt 0.792213 0.067445
vt 0.790206 0.068152
vt 0.792583 0.142072
vt 0.732613 0.282119
vt 0.697160 0.282039
vt 0.696382 0.178385
vt 0.696165 0.145627
vt 0.695983 0.121145
vt 0.695255 0.021130
vt 0.793523 0.141354
vt 0.428458 0.136604
vt 0.428458 0.151258
vt 0.423573 0.151258
vt 0.423573 0.136604
vt 0.418688 0.151258
vt 0.418688 0.136604
vt 0.413803 0.151258
vt 0.413803 0.136604
vt 0.408918 0.151258
vt 0.408918 0.136604
vt 0.404033 0.151258
vt 0.404033 0.136604
vt 0.399148 0.151258
vt 0.399148 0.136604
vt 0.292797 0.259937
vt 0.306545 0.283649
vt 0.346810 0.259359
vt 0.333552 0.283360
vt 0.333062 0.235647
vt 0.306055 0.235936
s 1
usemtl Material.001
f 7/1/1 11/2/2 12/3/3 15/4/4
f 8/5/5 13/6/6 12/7/3 11/8/2
f 9/9/7 14/10/8 12/7/3 13/6/6
f 10/11/9 15/12/4 12/13/3 14/14/8
f 22/15/10 26/16/11 27/17/12 30/18/13
f 23/19/14 28/20/15 27/21/12 26/22/11
f 24/23/16 29/24/17 27/25/12 28/26/15
f 25/27/18 30/28/13 27/25/12 29/24/17
f 31/29/19 34/30/20 35/31/21 37/32/22
f 32/33/23 36/34/24 35/35/21 34/36/20
f 33/37/25 37/38/22 35/35/21 36/34/24
f 38/39/26 41/40/27 42/41/28 44/42/29
f 39/43/30 43/44/31 42/45/28 41/46/27
f 40/47/32 44/48/29 42/49/28 43/50/31
f 48/51/33 51/52/34 52/53/35 54/54/36
f 49/55/37 53/56/38 52/57/35 51/58/34
f 50/59/39 54/60/36 52/61/35 53/62/38
f 55/63/40 58/64/41 59/65/42 61/66/43
f 56/67/44 60/68/45 59/69/42 58/70/41
f 57/71/46 61/72/43 59/69/42 60/68/45
f 65/73/47 68/74/48 69/75/49 71/76/50
f 66/77/51 70/78/52 69/79/49 68/80/48
f 67/81/53 71/82/50 69/79/49 70/78/52
f 91/83/54 95/84/55 96/85/56 99/86/57
f 92/87/58 97/88/59 96/89/56 95/90/55
f 93/9/60 98/91/61 96/92/56 97/10/59
f 94/5/62 99/93/57 96/92/56 98/91/61
f 106/94/63 110/95/64 111/96/65 114/97/66
f 107/98/67 112/99/68 111/100/65 110/101/64
f 108/27/69 113/102/70 111/103/65 112/104/68
f 109/23/71 114/105/66 111/103/65 113/102/70
f 115/37/72 118/34/73 119/106/74 121/107/75
f 116/33/76 120/108/77 119/106/74 118/34/73
f 117/109/78 121/110/75 119/111/74 120/112/77
f 122/113/79 125/114/80 126/115/81 128/116/82
f 123/47/83 127/117/84 126/118/81 125/119/80
f 124/120/85 128/121/82 126/122/81 127/123/84
f 132/124/86 135/125/87 136/126/88 138/127/89
f 133/128/90 137/129/91 136/130/88 135/131/87
f 134/59/92 138/62/89 136/132/88 137/133/91
f 140/71/93 144/68/94 143/134/95 142/72/96
f 141/67/97 145/135/98 143/134/95 144/68/94
f 146/81/99 149/78/100 150/136/101 152/137/102
f 147/77/103 151/138/104 150/136/101 149/78/100
f 148/139/105 152/140/102 150/141/101 151/142/104
f 17/143/106 19/144/107 21/145/108 18/146/109
f 18/147/109 21/148/108 20/149/110 16/150/111
f 40/47/32 46/151/112 47/152/113 44/48/29
f 44/42/29 47/153/113 45/154/114 38/39/26
f 16/150/111 55/63/40 61/66/43 18/147/109
f 18/146/109 61/72/43 57/71/46 17/143/106
f 56/67/44 62/155/115 64/156/116 60/68/45
f 60/68/45 64/156/116 63/157/117 57/71/46
f 67/81/53 32/33/23 34/36/20 71/82/50
f 71/76/50 34/30/20 31/29/19 65/73/47
f 66/77/51 72/158/118 74/159/119 70/78/52
f 70/78/52 74/159/119 73/160/120 67/81/53
f 65/73/47 75/161/121 76/162/122 68/74/48
f 68/80/48 76/163/122 77/164/123 66/77/51
f 32/33/23 78/165/124 80/166/125 36/34/24
f 36/34/24 80/166/125 79/167/126 33/37/25
f 109/23/71 115/37/72 121/107/75 114/105/66
f 114/97/66 121/110/75 117/109/78 106/94/63
f 19/144/107 77/164/123 76/168/122 21/145/108
f 21/148/108 76/169/122 75/161/121 20/149/110
f 25/27/18 40/47/32 43/50/31 30/28/13
f 30/18/13 43/44/31 39/43/30 22/15/10
f 50/59/39 8/5/5 11/8/2 54/60/36
f 54/54/36 11/2/2 7/1/1 48/51/33
f 24/23/16 81/170/127 83/171/128 29/24/17
f 29/24/17 83/171/128 82/172/129 25/27/18
f 8/5/5 85/173/130 87/174/131 13/6/6
f 13/6/6 87/174/131 86/175/132 9/9/7
f 159/176/133 7/1/1 15/4/4 161/177/134
f 161/178/134 15/12/4 10/11/9 160/179/135
f 88/180/136 50/59/39 53/62/38 90/181/137
f 90/182/137 53/56/38 49/55/37 89/183/138
f 101/184/139 103/185/140 105/186/141 102/187/142
f 102/146/142 105/145/141 104/144/143 100/143/144
f 122/113/79 130/188/145 131/153/146 125/114/80
f 125/119/80 131/152/146 129/189/147 123/47/83
f 100/143/144 140/71/93 142/72/96 102/146/142
f 102/187/142 142/190/96 139/191/148 101/184/139
f 140/71/93 63/157/117 64/156/116 144/68/94
f 144/68/94 64/156/116 62/155/115 141/67/97
f 148/139/105 117/109/78 120/112/77 152/140/102
f 152/137/102 120/108/77 116/33/76 146/81/99
f 146/81/99 73/160/120 74/159/119 149/78/100
f 149/78/100 74/159/119 72/158/118 147/77/103
f 147/77/103 154/164/149 155/192/150 151/138/104
f 151/142/104 155/193/150 153/194/151 148/139/105
f 115/37/72 79/167/126 80/166/125 118/34/73
f 118/34/73 80/166/125 78/165/124 116/33/76
f 124/120/85 133/128/90 135/131/87 128/121/82
f 128/116/82 135/125/87 132/124/86 122/113/79
f 23/19/14 31/29/19 37/32/22 28/20/15
f 28/26/15 37/38/22 33/37/25 24/23/16
f 103/185/140 153/194/151 155/195/150 105/186/141
f 105/145/141 155/196/150 154/164/149 104/144/143
f 107/98/67 124/120/85 127/123/84 112/99/68
f 112/104/68 127/117/84 123/47/83 108/27/69
f 133/128/90 91/83/54 99/86/57 137/129/91
f 137/133/91 99/93/57 94/5/62 134/59/92
f 108/27/69 82/172/129 83/171/128 113/102/70
f 113/102/70 83/171/128 81/170/127 109/23/71
f 93/9/60 86/175/132 87/174/131 98/91/61
f 98/91/61 87/174/131 85/173/130 94/5/62
f 162/197/152 92/87/58 95/90/55 164/198/153
f 164/199/153 95/84/55 91/83/54 163/200/154
f 156/201/155 132/124/86 138/127/89 158/182/156
f 158/181/156 138/62/89 134/59/92 157/180/157
f 166/202/158 159/176/133 161/177/134 167/203/159
f 167/204/159 161/178/134 160/179/135 165/205/160
f 169/206/161 162/197/152 164/198/153 170/207/162
f 170/208/162 164/199/153 163/200/154 168/209/163
f 55/63/40 10/11/9 14/14/8 58/64/41
f 58/70/41 14/10/8 9/9/7 56/67/44
f 141/67/97 93/9/60 97/10/59 145/135/98
f 145/210/98 97/88/59 92/87/58 139/191/148
f 106/94/63 169/206/161 170/207/162 110/95/64
f 110/101/64 170/208/162 168/209/163 107/98/67
f 38/39/26 49/55/37 51/58/34 41/40/27
f 41/46/27 51/52/34 48/51/33 39/43/30
f 22/15/10 166/202/158 167/203/159 26/16/11
f 26/22/11 167/204/159 165/205/160 23/19/14
f 48/51/33 7/1/1 159/176/133 39/43/30
f 16/150/111 160/179/135 10/11/9 55/63/40
f 5/211/164 8/5/5 50/59/39 88/180/136
f 2/212/164 85/173/130 8/5/5 5/211/164
f 9/9/7 86/175/132 62/155/115 56/67/44
f 20/149/110 160/179/135 16/150/111
f 57/71/46 63/157/117 3/213/165 17/143/106
f 17/143/106 3/213/165 4/214/166 19/144/107
f 19/144/107 4/214/166 84/215/167 77/164/123
f 20/149/110 75/161/121 165/205/160 160/179/135
f 39/43/30 166/202/158 22/15/10
f 25/27/18 82/172/129 1/216/168
f 1/216/168 46/151/112 40/47/32 25/27/18
f 33/37/25 79/167/126 81/170/127 24/23/16
f 23/19/14 165/205/160 65/73/47 31/29/19
f 67/81/53 73/160/120 78/165/124 32/33/23
f 49/55/37 38/39/26 45/154/114 89/183/138
f 140/71/93 100/143/144 3/213/165 63/157/117
f 93/9/60 141/67/97 62/155/115 86/175/132
f 77/164/123 84/215/167 72/158/118 66/77/51
f 165/205/160 75/161/121 65/73/47
f 146/81/99 116/33/76 78/165/124 73/160/120
f 154/164/149 147/77/103 72/158/118 84/215/167
f 115/37/72 109/23/71 81/170/127 79/167/126
f 108/27/69 1/216/168 82/172/129
f 104/144/143 154/164/149 84/215/167 4/214/166
f 2/212/164 6/211/164 94/5/62 85/173/130
f 133/128/90 124/120/85 163/200/154 91/83/54
f 6/211/164 157/180/157 134/59/92 94/5/62
f 92/87/58 162/197/152 101/184/139 139/191/148
f 162/197/152 103/185/140 101/184/139
f 100/143/144 104/144/143 4/214/166 3/213/165
f 153/194/151 103/185/140 162/197/152 169/206/161
f 124/120/85 107/98/67 168/209/163
f 148/139/105 169/206/161 106/94/63 117/109/78
f 1/216/168 108/27/69 123/47/83 129/189/147
f 132/124/86 156/201/155 130/188/145 122/113/79
f 153/194/151 169/206/161 148/139/105
f 39/43/30 159/176/133 166/202/158
f 124/120/85 168/209/163 163/200/154
f 177/1/169 185/4/170 182/3/171 181/2/172
f 178/5/173 181/8/172 182/7/171 183/6/174
f 179/9/175 183/6/174 182/7/171 184/10/176
f 180/11/177 184/14/176 182/13/171 185/12/170
f 192/15/178 200/18/179 197/17/180 196/16/181
f 193/19/182 196/22/181 197/21/180 198/20/183
f 194/23/184 198/26/183 197/25/180 199/24/185
f 195/27/186 199/24/185 197/25/180 200/28/179
f 201/29/187 207/32/188 205/31/189 204/30/190
f 202/33/191 204/36/190 205/35/189 206/34/192
f 203/37/193 206/34/192 205/35/189 207/38/188
f 208/39/194 214/42/195 212/41/196 211/40/197
f 209/43/198 211/46/197 212/45/196 213/44/199
f 210/47/200 213/50/199 212/49/196 214/48/195
f 218/51/201 224/54/202 222/53/203 221/52/204
f 219/55/205 221/58/204 222/57/203 223/56/206
f 220/59/207 223/62/206 222/61/203 224/60/202
f 225/63/208 231/66/209 229/65/210 228/64/211
f 226/67/212 228/70/211 229/69/210 230/68/213
f 227/71/214 230/68/213 229/69/210 231/72/209
f 235/73/215 241/76/216 239/75/217 238/74/218
f 236/77/219 238/80/218 239/79/217 240/78/220
f 237/81/221 240/78/220 239/79/217 241/82/216
f 261/83/222 269/86/223 266/85/224 265/84/225
f 262/87/226 265/90/225 266/89/224 267/88/227
f 263/9/228 267/10/227 266/92/224 268/91/229
f 264/5/230 268/91/229 266/92/224 269/93/223
f 276/94/231 284/97/232 281/96/233 280/95/234
f 277/98/235 280/101/234 281/100/233 282/99/236
f 278/27/237 282/104/236 281/103/233 283/102/238
f 279/23/239 283/102/238 281/103/233 284/105/232
f 285/37/240 291/107/241 289/106/242 288/34/243
f 286/33/244 288/34/243 289/106/242 290/108/245
f 287/109/246 290/112/245 289/111/242 291/110/241
f 292/113/247 298/116/248 296/115/249 295/114/250
f 293/47/251 295/119/250 296/118/249 297/117/252
f 294/120/253 297/123/252 296/122/249 298/121/248
f 302/124/254 308/127/255 306/126/256 305/125/257
f 303/128/258 305/131/257 306/130/256 307/129/259
f 304/59/260 307/133/259 306/132/256 308/62/255
f 309/191/261 315/210/262 313/217/263 312/190/264
f 310/71/265 312/72/264 313/134/263 314/68/266
f 311/67/267 314/68/266 313/134/263 315/135/262
f 316/81/268 322/137/269 320/136/270 319/78/271
f 317/77/272 319/78/271 320/136/270 321/138/273
f 318/139/274 321/142/273 320/141/270 322/140/269
f 187/143/275 188/146/276 191/145/277 189/144/278
f 188/147/276 186/150/279 190/149/280 191/148/277
f 210/47/200 214/48/195 217/152/281 216/151/136
f 214/42/195 208/39/194 215/154/282 217/153/281
f 186/150/279 188/147/276 231/66/209 225/63/208
f 188/146/276 187/143/275 227/71/214 231/72/209
f 226/67/212 230/68/213 234/156/283 232/155/284
f 230/68/213 227/71/214 233/157/285 234/156/283
f 237/81/221 241/82/216 204/36/190 202/33/191
f 241/76/216 235/73/215 201/29/187 204/30/190
f 236/77/219 240/78/220 244/159/286 242/158/287
f 240/78/220 237/81/221 243/160/288 244/159/286
f 235/73/215 238/74/218 246/162/289 245/161/290
f 238/80/218 236/77/219 247/164/291 246/163/289
f 202/33/191 206/34/192 250/166/292 248/165/293
f 206/34/192 203/37/193 249/167/294 250/166/292
f 279/23/239 284/105/232 291/107/241 285/37/240
f 284/97/232 276/94/231 287/109/246 291/110/241
f 189/144/278 191/145/277 246/168/289 247/164/291
f 191/148/277 190/149/280 245/161/290 246/169/289
f 195/27/186 200/28/179 213/50/199 210/47/200
f 200/18/179 192/15/178 209/43/198 213/44/199
f 220/59/207 224/60/202 181/8/172 178/5/173
f 224/54/202 218/51/201 177/1/169 181/2/172
f 194/23/184 199/24/185 253/171/295 251/170/296
f 199/24/185 195/27/186 252/172/297 253/171/295
f 178/5/173 183/6/174 257/174/298 255/173/299
f 183/6/174 179/9/175 256/175/300 257/174/298
f 329/176/301 331/177/302 185/4/170 177/1/169
f 331/178/302 330/179/303 180/11/177 185/12/170
f 258/180/304 260/181/305 223/62/206 220/59/207
f 260/182/305 259/183/306 219/55/205 223/56/206
f 271/184/307 272/187/308 275/186/309 273/185/310
f 272/146/308 270/143/311 274/144/312 275/145/309
f 292/113/247 295/114/250 301/153/313 300/188/314
f 295/119/250 293/47/251 299/189/315 301/152/313
f 270/143/311 272/146/308 312/72/264 310/71/265
f 272/187/308 271/184/307 309/191/261 312/190/264
f 310/71/265 314/68/266 234/156/283 233/157/285
f 314/68/266 311/67/267 232/155/284 234/156/283
f 318/139/274 322/140/269 290/112/245 287/109/246
f 322/137/269 316/81/268 286/33/244 290/108/245
f 316/81/268 319/78/271 244/159/286 243/160/288
f 319/78/271 317/77/272 242/158/287 244/159/286
f 317/77/272 321/138/273 325/192/316 324/164/317
f 321/142/273 318/139/274 323/194/318 325/193/316
f 285/37/240 288/34/243 250/166/292 249/167/294
f 288/34/243 286/33/244 248/165/293 250/166/292
f 294/120/253 298/121/248 305/131/257 303/128/258
f 298/116/248 292/113/247 302/124/254 305/125/257
f 193/19/182 198/20/183 207/32/188 201/29/187
f 198/26/183 194/23/184 203/37/193 207/38/188
f 273/185/310 275/186/309 325/195/316 323/194/318
f 275/145/309 274/144/312 324/164/317 325/196/316
f 277/98/235 282/99/236 297/123/252 294/120/253
f 282/104/236 278/27/237 293/47/251 297/117/252
f 303/128/258 307/129/259 269/86/223 261/83/222
f 307/133/259 304/59/260 264/5/230 269/93/223
f 278/27/237 283/102/238 253/171/295 252/172/297
f 283/102/238 279/23/239 251/170/296 253/171/295
f 263/9/228 268/91/229 257/174/298 256/175/300
f 268/91/229 264/5/230 255/173/299 257/174/298
f 332/197/319 334/198/320 265/90/225 262/87/226
f 334/199/320 333/200/321 261/83/222 265/84/225
f 326/201/322 328/182/323 308/127/255 302/124/254
f 328/181/323 327/180/324 304/59/260 308/62/255
f 336/202/325 337/203/326 331/177/302 329/176/301
f 337/204/326 335/205/327 330/179/303 331/178/302
f 339/206/328 340/207/329 334/198/320 332/197/319
f 340/208/329 338/209/330 333/200/321 334/199/320
f 225/63/208 228/64/211 184/14/176 180/11/177
f 228/70/211 226/67/212 179/9/175 184/10/176
f 311/67/267 315/135/262 267/10/227 263/9/228
f 315/210/262 309/191/261 262/87/226 267/88/227
f 276/94/231 280/95/234 340/207/329 339/206/328
f 280/101/234 277/98/235 338/209/330 340/208/329
f 208/39/194 211/40/197 221/58/204 219/55/205
f 211/46/197 209/43/198 218/51/201 221/52/204
f 192/15/178 196/16/181 337/203/326 336/202/325
f 196/22/181 193/19/182 335/205/327 337/204/326
f 218/51/201 209/43/198 329/176/301 177/1/169
f 186/150/279 225/63/208 180/11/177 330/179/303
f 175/211/168 258/180/304 220/59/207 178/5/173
f 172/212/168 175/211/168 178/5/173 255/173/299
f 179/9/175 226/67/212 232/155/284 256/175/300
f 190/149/280 186/150/279 330/179/303
f 227/71/214 187/143/275 173/213/331 233/157/285
f 187/143/275 189/144/278 174/214/332 173/213/331
f 189/144/278 247/164/291 254/215/333 174/214/332
f 190/149/280 330/179/303 335/205/327 245/161/290
f 209/43/198 192/15/178 336/202/325
f 195/27/186 171/216/164 252/172/297
f 171/216/164 195/27/186 210/47/200 216/151/136
f 203/37/193 194/23/184 251/170/296 249/167/294
f 193/19/182 201/29/187 235/73/215 335/205/327
f 237/81/221 202/33/191 248/165/293 243/160/288
f 219/55/205 259/183/306 215/154/282 208/39/194
f 310/71/265 233/157/285 173/213/331 270/143/311
f 263/9/228 256/175/300 232/155/284 311/67/267
f 247/164/291 236/77/219 242/158/287 254/215/333
f 335/205/327 235/73/215 245/161/290
f 316/81/268 243/160/288 248/165/293 286/33/244
f 324/164/317 254/215/333 242/158/287 317/77/272
f 285/37/240 249/167/294 251/170/296 279/23/239
f 278/27/237 252/172/297 171/216/164
f 274/144/312 174/214/332 254/215/333 324/164/317
f 172/212/168 255/173/299 264/5/230 176/211/168
f 303/128/258 261/83/222 333/200/321 294/120/253
f 176/211/168 264/5/230 304/59/260 327/180/324
f 262/87/226 309/191/261 271/184/307 332/197/319
f 332/197/319 271/184/307 273/185/310
f 270/143/311 173/213/331 174/214/332 274/144/312
f 323/194/318 339/206/328 332/197/319 273/185/310
f 294/120/253 338/209/330 277/98/235
f 318/139/274 287/109/246 276/94/231 339/206/328
f 171/216/164 299/189/315 293/47/251 278/27/237
f 302/124/254 292/113/247 300/188/314 326/201/322
f 323/194/318 318/139/274 339/206/328
f 209/43/198 336/202/325 329/176/301
f 294/120/253 333/200/321 338/209/330
f 341/218/334 342/219/334 344/220/334 343/221/334
f 343/221/335 344/220/335 346/222/335 345/223/335
f 345/223/336 346/222/336 348/224/336 347/225/336
f 347/225/337 348/224/337 350/226/337 349/227/337
f 349/227/338 350/226/338 352/228/338 351/229/338
f 351/229/339 352/228/339 342/230/339 341/231/339
f 349/232/340 351/233/340 343/234/340
f 351/233/340 341/235/340 343/234/340
f 343/234/340 345/236/340 347/237/340
f 347/237/340 349/232/340 343/234/340
f 353/218/341 354/219/341 356/220/341 355/221/341
f 355/221/342 356/220/342 358/222/342 357/223/342
f 357/223/343 358/222/343 360/224/343 359/225/343
f 359/225/344 360/224/344 362/226/344 361/227/344
f 361/227/345 362/226/345 364/228/345 363/229/345
f 363/229/346 364/228/346 354/230/346 353/231/346
f 361/232/340 363/233/340 355/234/340
f 363/233/340 353/235/340 355/234/340
f 355/234/340 357/236/340 359/237/340
f 359/237/340 361/232/340 355/234/340
f 365/218/341 366/219/341 368/220/341 367/221/341
f 367/221/347 368/220/347 370/222/347 369/223/347
f 369/223/348 370/222/348 372/224/348 371/225/348
f 371/225/349 372/224/349 374/226/349 373/227/349
f 373/227/345 374/226/345 376/228/345 375/229/345
f 375/229/346 376/228/346 366/230/346 365/231/346
f 373/232/340 375/233/340 367/234/340
f 375/233/340 365/235/340 367/234/340
f 367/234/340 369/236/340 371/237/340
f 371/237/340 373/232/340 367/234/340
f 377/218/350 378/219/350 380/220/350 379/221/350
f 379/221/351 380/220/351 382/222/351 381/223/351
f 381/223/352 382/222/352 384/224/352 383/225/352
f 383/225/353 384/224/353 386/226/353 385/227/353
f 385/227/354 386/226/354 388/228/354 387/229/354
f 387/229/355 388/228/355 378/230/355 377/231/355
f 385/232/340 387/233/340 379/234/340
f 387/233/340 377/235/340 379/234/340
f 379/234/340 381/236/340 383/237/340
f 383/237/340 385/232/340 379/234/340
f 389/218/356 390/219/356 392/220/356 391/221/356
f 391/221/357 392/220/357 394/222/357 393/223/357
f 393/223/336 394/222/336 396/224/336 395/225/336
f 395/225/358 396/224/358 398/226/358 397/227/358
f 397/227/359 398/226/359 400/228/359 399/229/359
f 399/229/339 400/228/339 390/230/339 389/231/339
f 397/232/340 399/233/340 391/234/340
f 399/233/340 389/235/340 391/234/340
f 391/234/340 393/236/340 395/237/340
f 395/237/340 397/232/340 391/234/340
f 401/218/341 402/219/341 404/220/341 403/221/341
f 403/221/342 404/220/342 406/222/342 405/223/342
f 405/223/343 406/222/343 408/224/343 407/225/343
f 407/225/344 408/224/344 410/226/344 409/227/344
f 409/227/345 410/226/345 412/228/345 411/229/345
f 411/229/346 412/228/346 402/230/346 401/231/346
f 409/232/340 411/233/340 403/234/340
f 411/233/340 401/235/340 403/234/340
f 403/234/340 405/236/340 407/237/340
f 407/237/340 409/232/340 403/234/340
f 413/218/341 414/219/341 416/220/341 415/221/341
f 415/221/342 416/220/342 418/222/342 417/223/342
f 417/223/343 418/222/343 420/224/343 419/225/343
f 419/225/349 420/224/349 422/226/349 421/227/349
f 421/227/345 422/226/345 424/228/345 423/229/345
f 423/229/346 424/228/346 414/230/346 413/231/346
f 421/232/340 423/233/340 415/234/340
f 423/233/340 413/235/340 415/234/340
f 415/234/340 417/236/340 419/237/340
f 419/237/340 421/232/340 415/234/340
f 425/218/350 426/219/350 428/220/350 427/221/350
f 427/221/360 428/220/360 430/222/360 429/223/360
f 429/223/361 430/222/361 432/224/361 431/225/361
f 431/225/353 432/224/353 434/226/353 433/227/353
f 433/227/354 434/226/354 436/228/354 435/229/354
f 435/229/362 436/228/362 426/230/362 425/231/362
f 433/232/340 435/233/340 427/234/340
f 435/233/340 425/235/340 427/234/340
f 427/234/340 429/236/340 431/237/340
f 431/237/340 433/232/340 427/234/340
