# Blender 4.4.0
# www.blender.org
mtllib boardlone.mtl
o BOARD
v -0.624420 0.006078 0.251593
v -0.745583 -0.012084 0.250439
v -0.624393 -0.002734 0.086731
v -0.745592 -0.012082 0.085978
v -0.624568 -0.031328 0.250895
v -0.745568 -0.040199 0.249153
v -0.745562 -0.040201 0.084411
v -0.624464 -0.042800 0.085758
v -0.745588 -0.012083 0.296031
v -0.624481 0.009242 0.295918
v -0.624630 -0.003730 0.306139
v -0.745589 -0.028249 0.306135
v -0.745572 -0.040198 0.296354
v -0.624652 -0.021915 0.296496
v -0.892159 0.027268 0.279730
v -0.807846 0.004632 0.292588
v -1.119327 0.088256 0.037339
v -1.106887 0.084916 0.095781
v -1.114589 0.070836 0.098564
v -1.128656 0.074618 0.038318
v -0.807434 -0.024185 0.292660
v -0.891525 -0.002416 0.279763
v -0.894771 0.011722 0.290119
v -0.809391 -0.011191 0.302348
v -1.106662 0.053274 0.095751
v -1.118899 0.056442 0.037340
v -1.040832 0.067182 0.208064
v -0.984185 0.051974 0.246464
v -1.078885 0.077398 0.159061
v -0.989637 0.037233 0.255163
v -1.047858 0.052891 0.214661
v -1.087343 0.063509 0.164082
v -1.041235 0.036338 0.208070
v -1.079104 0.046141 0.158986
v -0.984307 0.021601 0.246485
v -0.624420 0.006078 -0.251593
v -0.745583 -0.012084 -0.250439
v -0.624393 -0.002734 -0.086731
v -0.745592 -0.012082 -0.085978
v -0.624568 -0.031328 -0.250895
v -0.745568 -0.040199 -0.249153
v -0.745562 -0.040201 -0.084411
v -0.624464 -0.042800 -0.085758
v -0.745588 -0.012083 -0.296031
v -0.624481 0.009242 -0.295918
v -0.624630 -0.003730 -0.306139
v -0.745589 -0.028250 -0.306135
v -0.745572 -0.040198 -0.296354
v -0.624652 -0.021916 -0.296496
v -0.892159 0.027267 -0.279730
v -0.807846 0.004631 -0.292588
v -1.119327 0.088256 -0.037339
v -1.106887 0.084916 -0.095782
v -1.114589 0.070835 -0.098564
v -1.128656 0.074618 -0.038318
v -0.807434 -0.024185 -0.292660
v -0.891525 -0.002417 -0.279763
v -0.894771 0.011722 -0.290119
v -0.809391 -0.011191 -0.302348
v -1.106662 0.053274 -0.095751
v -1.118899 0.056442 -0.037340
v -1.040832 0.067182 -0.208064
v -0.984185 0.051974 -0.246464
v -1.078885 0.077398 -0.159061
v -0.989637 0.037233 -0.255163
v -1.047858 0.052891 -0.214661
v -1.087343 0.063509 -0.164082
v -1.041235 0.036338 -0.208070
v -1.079104 0.046141 -0.158986
v -0.984307 0.021601 -0.246485
v 0.624420 0.006078 0.251593
v 0.745589 -0.012106 0.250439
v 0.624393 -0.002734 0.086731
v 0.745589 -0.012068 0.085978
v 0.624568 -0.031328 0.250895
v 0.745589 -0.040278 0.249153
v 0.745589 -0.040306 0.084411
v 0.624464 -0.042800 0.085758
v 0.745589 -0.012087 0.296031
v 0.624481 0.009242 0.295918
v 0.624630 -0.003730 0.306139
v 0.745589 -0.028249 0.306135
v 0.745589 -0.040262 0.296354
v 0.624652 -0.021915 0.296496
v 0.892157 0.027276 0.279730
v 0.807844 0.004639 0.292588
v 1.119327 0.088254 0.037339
v 1.106888 0.084914 0.095781
v 1.114589 0.070836 0.098564
v 1.128656 0.074618 0.038318
v 0.807594 -0.024801 0.292660
v 0.891553 -0.002526 0.279763
v 0.894771 0.011722 0.290119
v 0.809391 -0.011191 0.302348
v 1.106901 0.052349 0.095751
v 1.119327 0.054786 0.037340
v 1.040832 0.067181 0.208064
v 0.984184 0.051976 0.246464
v 1.078885 0.077396 0.159061
v 0.989637 0.037233 0.255163
v 1.047858 0.052891 0.214661
v 1.087343 0.063509 0.164082
v 1.040826 0.037919 0.208070
v 1.078918 0.046858 0.158986
v 0.983981 0.022858 0.246485
v 0.624420 0.006078 -0.251593
v 0.745589 -0.012106 -0.250439
v 0.624393 -0.002734 -0.086731
v 0.745589 -0.012068 -0.085978
v 0.624568 -0.031328 -0.250895
v 0.745589 -0.040278 -0.249153
v 0.745589 -0.040306 -0.084411
v 0.624464 -0.042800 -0.085758
v 0.745589 -0.012087 -0.296031
v 0.624481 0.009242 -0.295918
v 0.624630 -0.003730 -0.306139
v 0.745589 -0.028250 -0.306135
v 0.745589 -0.040262 -0.296354
v 0.624652 -0.021916 -0.296496
v 0.892157 0.027276 -0.279730
v 0.807844 0.004639 -0.292588
v 1.119327 0.088254 -0.037339
v 1.106888 0.084914 -0.095782
v 1.114589 0.070835 -0.098564
v 1.128656 0.074618 -0.038318
v 0.807594 -0.024801 -0.292660
v 0.891553 -0.002527 -0.279763
v 0.894771 0.011722 -0.290119
v 0.809391 -0.011191 -0.302348
v 1.106901 0.052349 -0.095751
v 1.119327 0.054786 -0.037340
v 1.040832 0.067181 -0.208064
v 0.984184 0.051976 -0.246464
v 1.078885 0.077396 -0.159061
v 0.989637 0.037233 -0.255163
v 1.047858 0.052891 -0.214661
v 1.087343 0.063509 -0.164082
v 1.040826 0.037918 -0.208070
v 1.078918 0.046858 -0.158986
v 0.983981 0.022858 -0.246485
v -0.457438 -0.096346 0.039943
v -0.458522 -0.098044 0.038646
v -0.457087 -0.098340 0.038348
v -0.455924 -0.097449 0.038979
vn -0.1051 -0.9944 0.0100
vn 0.0001 -0.9995 0.0326
vn 0.0039 -0.9955 0.0943
vn -0.0175 -0.9991 0.0393
vn 0.0261 -0.9416 0.3359
vn 0.0099 -0.8991 0.4375
vn -0.0006 0.0183 0.9998
vn -0.0229 0.0126 0.9997
vn -0.0110 0.9984 -0.0546
vn -0.0433 0.9988 -0.0227
vn -0.0688 0.9563 0.2842
vn -0.0149 0.9832 0.1819
vn -0.0084 0.9997 -0.0249
vn 0.0549 0.9985 -0.0077
vn -0.0084 0.9997 0.0249
vn 0.0549 0.9985 0.0077
vn -0.1073 0.0029 0.9942
vn 0.2563 0.9662 0.0290
vn 0.2522 0.9673 0.0284
vn -0.2534 -0.0020 0.9674
vn -0.9952 -0.0120 0.0971
vn -0.6997 -0.7127 0.0499
vn -0.4127 -0.9090 0.0579
vn -0.9499 -0.0048 0.3124
vn -0.4355 0.8977 0.0664
vn 0.0673 0.9955 0.0661
vn -0.2530 -0.9672 0.0228
vn -0.2564 -0.9663 0.0234
vn -0.8648 0.0034 0.5022
vn -0.3197 -0.9466 0.0428
vn -0.2794 -0.9596 0.0331
vn -0.6793 0.0061 0.7339
vn -0.2629 -0.9644 0.0269
vn -0.4377 -0.0000 0.8991
vn 0.1826 0.9821 0.0472
vn 0.2270 0.9732 0.0369
vn 0.2450 0.9690 0.0313
vn -0.4355 0.8977 -0.0664
vn -0.9952 -0.0120 -0.0971
vn -0.1051 -0.9944 -0.0100
vn 0.0001 -0.9995 -0.0326
vn -0.0175 -0.9991 -0.0393
vn 0.0039 -0.9955 -0.0943
vn 0.0261 -0.9416 -0.3359
vn -0.0229 0.0127 -0.9997
vn -0.0006 0.0183 -0.9998
vn 0.0099 -0.8991 -0.4376
vn -0.0110 0.9984 0.0546
vn -0.0147 0.9832 -0.1819
vn -0.0688 0.9563 -0.2842
vn -0.0433 0.9988 0.0227
vn -0.1073 0.0029 -0.9942
vn -0.2534 -0.0020 -0.9674
vn 0.2522 0.9673 -0.0284
vn 0.2562 0.9662 -0.0290
vn -0.9502 -0.0048 -0.3115
vn -0.4127 -0.9090 -0.0578
vn -0.6997 -0.7127 -0.0499
vn 0.0673 0.9955 -0.0660
vn -0.2530 -0.9672 -0.0228
vn -0.2564 -0.9663 -0.0233
vn -0.8648 0.0034 -0.5022
vn -0.6793 0.0061 -0.7339
vn -0.2794 -0.9596 -0.0331
vn -0.3197 -0.9466 -0.0429
vn -0.2629 -0.9644 -0.0269
vn -0.4377 -0.0000 -0.8991
vn 0.1825 0.9821 -0.0471
vn 0.2269 0.9732 -0.0369
vn 0.2449 0.9691 -0.0312
vn 0.1012 -0.9948 0.0100
vn 0.0151 -0.9991 0.0394
vn -0.0040 -0.9955 0.0943
vn -0.0002 -0.9995 0.0325
vn -0.0280 -0.9406 0.3385
vn 0.0225 0.0126 0.9997
vn 0.0006 0.0183 0.9998
vn -0.0099 -0.8991 0.4377
vn 0.0110 0.9984 -0.0546
vn 0.0147 0.9832 0.1819
vn 0.0688 0.9564 0.2840
vn 0.0433 0.9988 -0.0227
vn 0.0083 0.9997 -0.0249
vn -0.0549 0.9985 -0.0076
vn -0.0549 0.9985 0.0076
vn 0.0083 0.9997 0.0249
vn 0.0006 0.0183 -0.9998
vn -0.0100 -0.8991 -0.4376
vn 0.1072 0.0032 0.9942
vn 0.2538 -0.0023 0.9673
vn -0.2522 0.9673 0.0284
vn -0.2562 0.9662 0.0291
vn 0.9952 0.0001 0.0978
vn 0.9492 0.0002 0.3146
vn 0.3746 -0.9252 0.0616
vn 0.7152 -0.6967 0.0548
vn 0.4354 0.8978 0.0664
vn -0.0673 0.9955 0.0660
vn 0.2535 -0.9671 0.0233
vn 0.2662 -0.9636 0.0231
vn 0.8644 -0.0002 0.5029
vn 0.6803 -0.0013 0.7329
vn 0.2730 -0.9615 0.0302
vn 0.2864 -0.9572 0.0417
vn 0.2730 -0.9617 0.0251
vn 0.4388 -0.0035 0.8986
vn -0.1825 0.9821 0.0471
vn -0.2270 0.9732 0.0369
vn -0.2449 0.9691 0.0312
vn 0.4354 0.8978 -0.0664
vn 0.9952 0.0001 -0.0978
vn -0.0040 -0.9955 -0.0943
vn -0.0002 -0.9995 -0.0325
vn 0.1012 -0.9948 -0.0100
vn 0.0151 -0.9991 -0.0394
vn -0.0280 -0.9406 -0.3385
vn 0.0225 0.0127 -0.9997
vn 0.0110 0.9984 0.0546
vn 0.0433 0.9988 0.0226
vn 0.0688 0.9564 -0.2840
vn 0.0149 0.9832 -0.1819
vn 0.1072 0.0032 -0.9942
vn -0.2563 0.9662 -0.0291
vn -0.2522 0.9673 -0.0284
vn 0.2538 -0.0023 -0.9673
vn 0.7152 -0.6967 -0.0548
vn 0.3746 -0.9252 -0.0616
vn 0.9492 0.0002 -0.3146
vn -0.0673 0.9955 -0.0661
vn 0.2535 -0.9671 -0.0233
vn 0.2662 -0.9636 -0.0231
vn 0.8643 -0.0002 -0.5029
vn 0.2864 -0.9572 -0.0417
vn 0.2730 -0.9615 -0.0302
vn 0.6802 -0.0013 -0.7330
vn 0.2730 -0.9617 -0.0251
vn 0.4388 -0.0035 -0.8986
vn -0.1826 0.9821 -0.0471
vn -0.2270 0.9732 -0.0370
vn -0.2450 0.9690 -0.0312
vn 0.0419 -0.6211 0.7826
vn 0.0461 -0.6192 0.7839
vn 0.0423 -0.6184 0.7847
vn 0.0368 -0.6229 0.7814
vt 0.800387 0.513859
vt 0.751638 0.513223
vt 0.751779 0.452139
vt 0.800572 0.453147
vt 0.969805 0.970175
vt 0.992588 0.970175
vt 0.992588 0.957751
vt 0.969805 0.957751
vt 0.247863 0.699759
vt 0.198474 0.700185
vt 0.198474 0.683739
vt 0.247960 0.683702
vt 0.800695 0.435803
vt 0.751697 0.434987
vt 0.992588 0.946002
vt 0.969805 0.946002
vt 0.247440 0.756397
vt 0.198326 0.756550
vt 0.198474 0.691418
vt 0.247863 0.690951
vt 0.191683 0.760258
vt 0.191469 0.823068
vt 0.162954 0.822613
vt 0.163197 0.760398
vt 0.957699 0.957751
vt 0.957699 0.946002
vt 0.941190 0.946002
vt 0.941190 0.957751
vt 0.870810 0.957751
vt 0.870810 0.970175
vt 0.882668 0.970175
vt 0.882668 0.957751
vt 0.870810 0.946002
vt 0.882668 0.946002
vt 0.957699 0.970175
vt 0.941190 0.970175
vt 0.896320 0.957751
vt 0.896320 0.970175
vt 0.908559 0.970175
vt 0.908559 0.957751
vt 0.922015 0.970175
vt 0.922015 0.957751
vt 0.896320 0.946002
vt 0.908559 0.946002
vt 0.922015 0.946002
vt 0.808400 0.946002
vt 0.808400 0.957751
vt 0.800276 0.576147
vt 0.751518 0.576563
vt 0.800205 0.636887
vt 0.751431 0.637695
vt 0.709405 0.970175
vt 0.709405 0.957751
vt 0.686622 0.957751
vt 0.686622 0.970175
vt 0.247272 0.882047
vt 0.247263 0.898102
vt 0.197768 0.897756
vt 0.197875 0.881307
vt 0.800257 0.654226
vt 0.751281 0.654819
vt 0.709405 0.946002
vt 0.686622 0.946002
vt 0.247248 0.825224
vt 0.247272 0.890702
vt 0.197875 0.889891
vt 0.198108 0.824725
vt 0.721511 0.957751
vt 0.738020 0.957751
vt 0.738020 0.946002
vt 0.721511 0.946002
vt 0.796542 0.957751
vt 0.796542 0.970175
vt 0.808400 0.970175
vt 0.796542 0.946002
vt 0.721511 0.970175
vt 0.738020 0.970175
vt 0.782890 0.957751
vt 0.770651 0.957751
vt 0.770651 0.970175
vt 0.782890 0.970175
vt 0.757195 0.970175
vt 0.757195 0.957751
vt 0.782890 0.946002
vt 0.770651 0.946002
vt 0.757195 0.946002
vt 0.137328 0.689466
vt 0.172553 0.684931
vt 0.171848 0.896406
vt 0.136654 0.891647
vt 0.098860 0.701366
vt 0.098265 0.879504
vt 0.075164 0.713441
vt 0.074651 0.867279
vt 0.059209 0.732827
vt 0.058826 0.847792
vt 0.047439 0.755658
vt 0.047208 0.824887
vt 0.042174 0.776762
vt 0.042084 0.803750
vt 0.198108 0.821838
vt 0.198326 0.759623
vt 0.825804 0.652885
vt 0.826239 0.437263
vt 0.860699 0.648211
vt 0.861115 0.442092
vt 0.899215 0.636037
vt 0.899582 0.454436
vt 0.922857 0.623699
vt 0.923174 0.466878
vt 0.938608 0.603891
vt 0.938844 0.486756
vt 0.950087 0.580622
vt 0.950229 0.510076
vt 0.955207 0.559116
vt 0.955262 0.531605
vt 0.199730 0.512516
vt 0.199797 0.451796
vt 0.248574 0.450983
vt 0.248487 0.512106
vt 0.969921 0.970175
vt 0.969921 0.957751
vt 0.992743 0.957751
vt 0.992743 0.970175
vt 0.752114 0.701355
vt 0.752123 0.685303
vt 0.801604 0.685649
vt 0.801499 0.702093
vt 0.199744 0.434461
vt 0.248723 0.433861
vt 0.969921 0.946002
vt 0.992743 0.946002
vt 0.752151 0.758166
vt 0.752114 0.692700
vt 0.801499 0.693509
vt 0.801266 0.758645
vt 0.795532 0.761873
vt 0.836419 0.762310
vt 0.836220 0.824528
vt 0.795305 0.824683
vt 0.992861 0.957751
vt 0.005869 0.957751
vt 0.005987 0.946002
vt 0.992995 0.957751
vt 0.006004 0.957751
vt 0.993013 0.946002
vt 0.957797 0.957751
vt 0.941261 0.957751
vt 0.941261 0.946002
vt 0.957797 0.946002
vt 0.870769 0.957751
vt 0.882645 0.957751
vt 0.882645 0.970175
vt 0.870769 0.970175
vt 0.870769 0.946002
vt 0.882645 0.946002
vt 0.957797 0.970175
vt 0.941261 0.970175
vt 0.908579 0.957751
vt 0.908579 0.970175
vt 0.922056 0.970175
vt 0.922056 0.957751
vt 0.908579 0.946002
vt 0.922056 0.946002
vt 0.992878 0.970175
vt 0.005852 0.970175
vt 0.808260 0.946002
vt 0.808260 0.957751
vt 0.248292 0.653696
vt 0.248208 0.636542
vt 0.248349 0.575449
vt 0.199579 0.574802
vt 0.199398 0.635534
vt 0.709108 0.970175
vt 0.686286 0.970175
vt 0.686286 0.957751
vt 0.709108 0.957751
vt 0.751537 0.883645
vt 0.800942 0.883215
vt 0.800941 0.899665
vt 0.751440 0.899704
vt 0.199277 0.652881
vt 0.686286 0.946002
vt 0.709108 0.946002
vt 0.751948 0.826993
vt 0.801087 0.826823
vt 0.800942 0.891982
vt 0.751537 0.892453
vt 0.006121 0.970175
vt 0.184892 0.823216
vt 0.185108 0.760406
vt 0.795130 0.762021
vt 0.794902 0.824831
vt 0.721232 0.957751
vt 0.721232 0.946002
vt 0.737768 0.946002
vt 0.737768 0.957751
vt 0.808260 0.970175
vt 0.796383 0.970175
vt 0.796383 0.957751
vt 0.796383 0.946002
vt 0.721232 0.970175
vt 0.737768 0.970175
vt 0.782708 0.957751
vt 0.782708 0.970175
vt 0.770450 0.970175
vt 0.770450 0.957751
vt 0.756973 0.970175
vt 0.756973 0.957751
vt 0.782708 0.946002
vt 0.770450 0.946002
vt 0.756973 0.946002
vt 0.862711 0.691749
vt 0.862093 0.893932
vt 0.826870 0.898474
vt 0.827516 0.686998
vt 0.901103 0.703885
vt 0.900559 0.882024
vt 0.924722 0.716105
vt 0.924251 0.869945
vt 0.940553 0.735589
vt 0.940201 0.850555
vt 0.952176 0.758492
vt 0.951965 0.827721
vt 0.957307 0.779628
vt 0.957224 0.806616
vt 0.801087 0.823753
vt 0.801266 0.761535
vt 0.173726 0.651423
vt 0.174201 0.435804
vt 0.138851 0.646589
vt 0.139305 0.440473
vt 0.100383 0.634240
vt 0.100784 0.452641
vt 0.076793 0.621794
vt 0.077139 0.464976
vt 0.061123 0.601915
vt 0.061381 0.484781
vt 0.049722 0.578593
vt 0.049877 0.508048
vt 0.044684 0.557064
vt 0.044744 0.529554
vt 0.791741 0.141155
vt 0.793412 0.140753
vt 0.793523 0.141354
vt 0.792583 0.142072
s 1
usemtl Material.001
f 7/1/1 8/2/2 5/3/3 6/4/4
f 13/5/5 14/6/6 11/7/7 12/8/8
f 1/9/9 2/10/10 9/11/11 10/12/12
f 13/13/5 6/4/4 5/3/3 14/14/6
f 12/8/8 11/7/7 10/15/12 9/16/11
f 3/17/13 4/18/14 2/19/10 1/20/9
f 3/21/13 38/22/15 39/23/16 4/24/14
f 24/25/17 16/26/18 15/27/19 23/28/20
f 20/29/21 26/30/22 25/31/23 19/32/24
f 17/33/25 20/29/21 19/32/24 18/34/26
f 21/35/27 24/25/17 23/28/20 22/36/28
f 32/37/29 34/38/30 33/39/31 31/40/32
f 35/41/33 30/42/34 31/40/32 33/39/31
f 29/43/35 32/37/29 31/40/32 27/44/36
f 30/42/34 28/45/37 27/44/36 31/40/32
f 30/42/34 23/28/20 15/27/19 28/45/37
f 24/25/17 12/8/8 9/16/11 16/26/18
f 29/43/35 18/34/26 19/32/24 32/37/29
f 32/37/29 19/32/24 25/31/23 34/38/30
f 35/41/33 22/36/28 23/28/20 30/42/34
f 21/35/27 13/5/5 12/8/8 24/25/17
f 52/46/38 55/47/39 20/29/21 17/33/25
f 7/1/1 42/48/40 43/49/41 8/2/2
f 42/48/40 41/50/42 40/51/43 43/49/41
f 48/52/44 47/53/45 46/54/46 49/55/47
f 36/56/48 45/57/49 44/58/50 37/59/51
f 48/60/44 49/61/47 40/51/43 41/50/42
f 47/53/45 44/62/50 45/63/49 46/54/46
f 38/64/15 36/65/48 37/66/51 39/67/16
f 59/68/52 58/69/53 50/70/54 51/71/55
f 55/47/39 54/72/56 60/73/57 61/74/58
f 52/46/38 53/75/59 54/72/56 55/47/39
f 56/76/60 57/77/61 58/69/53 59/68/52
f 67/78/62 66/79/63 68/80/64 69/81/65
f 70/82/66 68/80/64 66/79/63 65/83/67
f 64/84/68 62/85/69 66/79/63 67/78/62
f 65/83/67 66/79/63 62/85/69 63/86/70
f 65/83/67 63/86/70 50/70/54 58/69/53
f 59/68/52 51/71/55 44/62/50 47/53/45
f 64/84/68 67/78/62 54/72/56 53/75/59
f 67/78/62 69/81/65 60/73/57 54/72/56
f 70/82/66 65/83/67 58/69/53 57/77/61
f 56/76/60 59/68/52 47/53/45 48/52/44
f 15/87/19 16/88/18 51/89/55 50/90/54
f 28/91/37 15/87/19 50/90/54 63/92/70
f 27/93/36 28/91/37 63/92/70 62/94/69
f 29/95/35 27/93/36 62/94/69 64/96/68
f 18/97/26 29/95/35 64/96/68 53/98/59
f 17/99/25 18/97/26 53/98/59 52/100/38
f 55/47/39 61/74/58 26/30/22 20/29/21
f 9/11/11 2/10/10 16/88/18
f 44/58/50 51/89/55 37/59/51
f 37/59/51 51/89/55 39/101/16
f 2/10/10 4/102/14 16/88/18
f 39/101/16 51/89/55 16/88/18 4/102/14
f 48/60/44 41/50/42 56/103/60
f 13/13/5 21/104/27 6/4/4
f 7/1/1 6/4/4 21/104/27
f 42/48/40 56/103/60 41/50/42
f 42/48/40 7/1/1 21/104/27 56/103/60
f 57/105/61 56/103/60 21/104/27 22/106/28
f 70/107/66 57/105/61 22/106/28 35/108/33
f 68/109/64 70/107/66 35/108/33 33/110/31
f 69/111/65 68/109/64 33/110/31 34/112/30
f 60/113/57 69/111/65 34/112/30 25/114/23
f 61/115/58 60/113/57 25/114/23 26/116/22
f 77/117/71 76/118/72 75/119/73 78/120/74
f 83/121/75 82/122/76 81/123/77 84/124/78
f 71/125/79 80/126/80 79/127/81 72/128/82
f 83/129/75 84/130/78 75/119/73 76/118/72
f 82/122/76 79/131/81 80/132/80 81/123/77
f 73/133/83 71/134/79 72/135/82 74/136/84
f 73/137/83 74/138/84 109/139/85 108/140/86
f 10/12/12 80/126/80 71/125/79 1/9/9
f 3/17/13 1/20/9 71/134/79 73/133/83
f 5/3/3 8/2/2 78/120/74 75/119/73
f 14/14/6 5/3/3 75/119/73 84/130/78
f 10/132/12 11/141/7 81/142/77 80/143/80
f 46/144/46 116/145/87 119/143/88 49/146/47
f 94/147/89 93/148/90 85/149/91 86/150/92
f 90/151/93 89/152/94 95/153/95 96/154/96
f 87/155/97 88/156/98 89/152/94 90/151/93
f 91/157/99 92/158/100 93/148/90 94/147/89
f 102/37/101 101/159/102 103/160/103 104/38/104
f 105/161/105 103/160/103 101/159/102 100/162/106
f 99/43/107 97/163/108 101/159/102 102/37/101
f 100/162/106 101/159/102 97/163/108 98/164/109
f 100/162/106 98/164/109 85/149/91 93/148/90
f 94/147/89 86/150/92 79/131/81 82/122/76
f 99/43/107 102/37/101 89/152/94 88/156/98
f 102/37/101 104/38/104 95/153/95 89/152/94
f 105/161/105 100/162/106 93/148/90 92/158/100
f 91/157/99 94/147/89 82/122/76 83/121/75
f 14/165/6 84/166/78 81/142/77 11/141/7
f 122/167/110 87/155/97 90/151/93 125/168/111
f 40/51/43 49/61/47 119/169/88 110/170/112
f 77/117/71 78/120/74 113/171/113 112/172/114
f 112/172/114 113/171/113 110/170/112 111/173/115
f 118/174/116 119/175/88 116/176/87 117/177/117
f 106/178/118 107/179/119 114/180/120 115/181/121
f 118/182/116 111/173/115 110/170/112 119/169/88
f 117/177/117 116/176/87 115/183/121 114/184/120
f 108/185/86 109/186/85 107/187/119 106/188/118
f 36/56/48 106/178/118 115/181/121 45/57/49
f 36/65/48 38/64/15 108/185/86 106/188/118
f 43/49/41 40/51/43 110/170/112 113/171/113
f 43/49/41 113/171/113 78/120/74 8/2/2
f 46/144/46 45/165/49 115/189/121 116/145/87
f 38/190/15 3/191/13 73/192/83 108/193/86
f 129/194/122 121/195/123 120/196/124 128/197/125
f 125/168/111 131/198/126 130/199/127 124/200/128
f 122/167/110 125/168/111 124/200/128 123/201/129
f 126/202/130 129/194/122 128/197/125 127/203/131
f 137/204/132 139/205/133 138/206/134 136/207/135
f 140/208/136 135/209/137 136/207/135 138/206/134
f 134/210/138 137/204/132 136/207/135 132/211/139
f 135/209/137 133/212/140 132/211/139 136/207/135
f 135/209/137 128/197/125 120/196/124 133/212/140
f 129/194/122 117/177/117 114/184/120 121/195/123
f 134/210/138 123/201/129 124/200/128 137/204/132
f 137/204/132 124/200/128 130/199/127 139/205/133
f 140/208/136 127/203/131 128/197/125 135/209/137
f 126/202/130 118/174/116 117/177/117 129/194/122
f 85/213/91 120/214/124 121/215/123 86/216/92
f 98/217/109 133/218/140 120/214/124 85/213/91
f 97/219/108 132/220/139 133/218/140 98/217/109
f 99/221/107 134/222/138 132/220/139 97/219/108
f 88/223/98 123/224/129 134/222/138 99/221/107
f 87/225/97 122/226/110 123/224/129 88/223/98
f 125/168/111 90/151/93 96/154/96 131/198/126
f 79/127/81 86/216/92 72/128/82
f 114/180/120 107/179/119 121/215/123
f 107/179/119 109/227/85 121/215/123
f 72/128/82 86/216/92 74/228/84
f 109/227/85 74/228/84 86/216/92 121/215/123
f 118/182/116 126/229/130 111/173/115
f 83/129/75 76/118/72 91/230/99
f 77/117/71 91/230/99 76/118/72
f 112/172/114 111/173/115 126/229/130
f 112/172/114 126/229/130 91/230/99 77/117/71
f 127/231/131 92/232/100 91/230/99 126/229/130
f 140/233/136 105/234/105 92/232/100 127/231/131
f 138/235/134 103/236/103 105/234/105 140/233/136
f 139/237/133 104/238/104 103/236/103 138/235/134
f 130/239/127 95/240/95 104/238/104 139/237/133
f 131/241/126 96/242/96 95/240/95 130/239/127
f 141/243/141 142/244/142 143/245/143 144/246/144
