# Blender 4.4.0
# www.blender.org
mtllib board.mtl
o BOARD
v -0.624420 0.006078 0.251593
v -0.745583 -0.012084 0.250439
v -0.624393 -0.002734 0.086731
v -0.745592 -0.012082 0.085978
v -0.624568 -0.031328 0.250895
v -0.745568 -0.040199 0.249153
v -0.745562 -0.040201 0.084411
v -0.624464 -0.042800 0.085758
v -0.745588 -0.012083 0.296031
v -0.624481 0.009242 0.295918
v -0.624630 -0.003730 0.306139
v -0.745589 -0.028249 0.306135
v -0.745572 -0.040198 0.296354
v -0.624652 -0.021915 0.296496
v -0.892159 0.027268 0.279730
v -0.807846 0.004632 0.292588
v -1.119327 0.088256 0.037339
v -1.106887 0.084916 0.095781
v -1.114589 0.070836 0.098564
v -1.128656 0.074618 0.038318
v -0.807434 -0.024185 0.292660
v -0.891525 -0.002416 0.279763
v -0.894771 0.011722 0.290119
v -0.809391 -0.011191 0.302348
v -1.106662 0.053274 0.095751
v -1.118899 0.056442 0.037340
v -1.040832 0.067182 0.208064
v -0.984185 0.051974 0.246464
v -1.078885 0.077398 0.159061
v -0.989637 0.037233 0.255163
v -1.047858 0.052891 0.214661
v -1.087343 0.063509 0.164082
v -1.041235 0.036338 0.208070
v -1.079104 0.046141 0.158986
v -0.984307 0.021601 0.246485
v -0.624420 0.006078 -0.251593
v -0.745583 -0.012084 -0.250439
v -0.624393 -0.002734 -0.086731
v -0.745592 -0.012082 -0.085978
v -0.624568 -0.031328 -0.250895
v -0.745568 -0.040199 -0.249153
v -0.745562 -0.040201 -0.084411
v -0.624464 -0.042800 -0.085758
v -0.745588 -0.012083 -0.296031
v -0.624481 0.009242 -0.295918
v -0.624630 -0.003730 -0.306139
v -0.745589 -0.028250 -0.306135
v -0.745572 -0.040198 -0.296354
v -0.624652 -0.021916 -0.296496
v -0.892159 0.027267 -0.279730
v -0.807846 0.004631 -0.292588
v -1.119327 0.088256 -0.037339
v -1.106887 0.084916 -0.095782
v -1.114589 0.070835 -0.098564
v -1.128656 0.074618 -0.038318
v -0.807434 -0.024185 -0.292660
v -0.891525 -0.002417 -0.279763
v -0.894771 0.011722 -0.290119
v -0.809391 -0.011191 -0.302348
v -1.106662 0.053274 -0.095751
v -1.118899 0.056442 -0.037340
v -1.040832 0.067182 -0.208064
v -0.984185 0.051974 -0.246464
v -1.078885 0.077398 -0.159061
v -0.989637 0.037233 -0.255163
v -1.047858 0.052891 -0.214661
v -1.087343 0.063509 -0.164082
v -1.041235 0.036338 -0.208070
v -1.079104 0.046141 -0.158986
v -0.984307 0.021601 -0.246485
v 0.624420 0.006078 0.251593
v 0.745589 -0.012106 0.250439
v 0.624393 -0.002734 0.086731
v 0.745589 -0.012068 0.085978
v 0.624568 -0.031328 0.250895
v 0.745589 -0.040278 0.249153
v 0.745589 -0.040306 0.084411
v 0.624464 -0.042800 0.085758
v 0.745589 -0.012087 0.296031
v 0.624481 0.009242 0.295918
v 0.624630 -0.003730 0.306139
v 0.745589 -0.028249 0.306135
v 0.745589 -0.040262 0.296354
v 0.624652 -0.021915 0.296496
v 0.892157 0.027276 0.279730
v 0.807844 0.004639 0.292588
v 1.119327 0.088254 0.037339
v 1.106888 0.084914 0.095781
v 1.114589 0.070836 0.098564
v 1.128656 0.074618 0.038318
v 0.807594 -0.024801 0.292660
v 0.891553 -0.002526 0.279763
v 0.894771 0.011722 0.290119
v 0.809391 -0.011191 0.302348
v 1.106901 0.052349 0.095751
v 1.119327 0.054786 0.037340
v 1.040832 0.067181 0.208064
v 0.984184 0.051976 0.246464
v 1.078885 0.077396 0.159061
v 0.989637 0.037233 0.255163
v 1.047858 0.052891 0.214661
v 1.087343 0.063509 0.164082
v 1.040826 0.037919 0.208070
v 1.078918 0.046858 0.158986
v 0.983981 0.022858 0.246485
v 0.624420 0.006078 -0.251593
v 0.745589 -0.012106 -0.250439
v 0.624393 -0.002734 -0.086731
v 0.745589 -0.012068 -0.085978
v 0.624568 -0.031328 -0.250895
v 0.745589 -0.040278 -0.249153
v 0.745589 -0.040306 -0.084411
v 0.624464 -0.042800 -0.085758
v 0.745589 -0.012087 -0.296031
v 0.624481 0.009242 -0.295918
v 0.624630 -0.003730 -0.306139
v 0.745589 -0.028250 -0.306135
v 0.745589 -0.040262 -0.296354
v 0.624652 -0.021916 -0.296496
v 0.892157 0.027276 -0.279730
v 0.807844 0.004639 -0.292588
v 1.119327 0.088254 -0.037339
v 1.106888 0.084914 -0.095782
v 1.114589 0.070835 -0.098564
v 1.128656 0.074618 -0.038318
v 0.807594 -0.024801 -0.292660
v 0.891553 -0.002527 -0.279763
v 0.894771 0.011722 -0.290119
v 0.809391 -0.011191 -0.302348
v 1.106901 0.052349 -0.095751
v 1.119327 0.054786 -0.037340
v 1.040832 0.067181 -0.208064
v 0.984184 0.051976 -0.246464
v 1.078885 0.077396 -0.159061
v 0.989637 0.037233 -0.255163
v 1.047858 0.052891 -0.214661
v 1.087343 0.063509 -0.164082
v 1.040826 0.037918 -0.208070
v 1.078918 0.046858 -0.158986
v 0.983981 0.022858 -0.246485
v -0.652537 -0.031034 0.000000
v -0.417486 -0.031248 0.000000
v -0.522980 -0.086088 0.000000
v -0.541880 -0.071111 0.000000
v -0.417486 -0.031248 -0.050730
v -0.417486 -0.031247 0.050730
v -0.420030 -0.055414 -0.053358
v -0.417486 -0.052603 -0.050615
v -0.419090 -0.057608 -0.047126
v -0.422723 -0.058137 -0.049782
v -0.418231 -0.054593 -0.051987
v -0.418943 -0.055851 -0.050346
v -0.417956 -0.055236 -0.048870
v -0.420560 -0.058317 -0.048946
v -0.421367 -0.056210 -0.051130
v -0.522762 -0.084299 -0.040217
v -0.522980 -0.086088 -0.036483
v -0.522907 -0.085503 -0.038746
v -0.541880 -0.071111 -0.032049
v -0.541880 -0.068849 -0.036677
v -0.541880 -0.070448 -0.034574
v -0.649994 -0.054807 -0.047944
v -0.648354 -0.057307 -0.043855
v -0.651250 -0.057230 -0.040745
v -0.652537 -0.051983 -0.045065
v -0.649167 -0.055540 -0.045586
v -0.651307 -0.055238 -0.044621
v -0.650279 -0.057453 -0.042896
v -0.652160 -0.054687 -0.042905
v -0.651792 -0.053977 -0.046504
v -0.635970 -0.080642 -0.031857
v -0.634869 -0.083334 -0.027664
v -0.638701 -0.080904 -0.028644
v -0.635408 -0.082546 -0.030057
v -0.636853 -0.082344 -0.029795
v -0.637045 -0.082622 -0.028154
v -0.637695 -0.081217 -0.030661
v -0.649994 -0.051989 -0.085304
v -0.649994 -0.054806 -0.082487
v -0.652537 -0.051983 -0.082475
v -0.649994 -0.053981 -0.084479
v -0.651462 -0.053612 -0.084106
v -0.651792 -0.053977 -0.082478
v -0.651792 -0.051985 -0.084470
v -0.649994 -0.031036 -0.085305
v -0.652537 -0.031034 -0.082475
v -0.651792 -0.031035 -0.084471
v -0.420030 -0.055413 -0.083800
v -0.420030 -0.052596 -0.086617
v -0.417486 -0.052603 -0.083816
v -0.420030 -0.054588 -0.085792
v -0.418561 -0.054227 -0.085436
v -0.418231 -0.052601 -0.085804
v -0.418231 -0.054593 -0.083811
v -0.457439 -0.096348 -0.039943
v -0.454982 -0.097574 -0.036994
v -0.459240 -0.098646 -0.036457
v -0.455924 -0.097450 -0.038979
v -0.457087 -0.098340 -0.038348
v -0.457001 -0.098704 -0.036725
v -0.458522 -0.098045 -0.038646
v -0.454987 -0.097571 0.000000
v -0.459245 -0.098644 0.000000
v -0.457007 -0.098701 0.000000
v -0.587123 -0.080697 -0.031978
v -0.585147 -0.081548 -0.028224
v -0.589657 -0.083334 -0.027664
v -0.585954 -0.081503 -0.030450
v -0.587205 -0.082479 -0.029700
v -0.587283 -0.082811 -0.027944
v -0.588417 -0.082562 -0.030093
v -0.585141 -0.081555 0.000000
v -0.589657 -0.083334 0.000000
v -0.587281 -0.082813 0.000000
v -0.573202 -0.068560 -0.036626
v -0.573202 -0.070631 -0.034227
v -0.573202 -0.071404 -0.031703
v -0.634869 -0.083334 0.000000
v -0.638701 -0.080905 0.000000
v -0.637045 -0.082622 0.000000
v -0.651250 -0.057230 0.000000
v -0.652537 -0.051983 0.000000
v -0.652160 -0.054687 0.000000
v -0.573202 -0.071403 0.000000
v -0.417486 -0.052603 0.000000
v -0.419090 -0.057607 0.000000
v -0.417956 -0.055236 0.000000
v -0.417486 -0.031248 -0.083816
v -0.420030 -0.031245 -0.086617
v -0.418231 -0.031247 -0.085804
v -0.420030 -0.055414 0.053359
v -0.422723 -0.058137 0.049781
v -0.419090 -0.057608 0.047126
v -0.417486 -0.052603 0.050615
v -0.421367 -0.056210 0.051130
v -0.418943 -0.055851 0.050346
v -0.420560 -0.058317 0.048945
v -0.417956 -0.055236 0.048870
v -0.418231 -0.054593 0.051987
v -0.522980 -0.086088 0.036483
v -0.522762 -0.084299 0.040216
v -0.522907 -0.085503 0.038745
v -0.541880 -0.068848 0.036678
v -0.541880 -0.071111 0.032049
v -0.541880 -0.070448 0.034574
v -0.648354 -0.057307 0.043855
v -0.649994 -0.054807 0.047943
v -0.652537 -0.051983 0.045065
v -0.651250 -0.057230 0.040745
v -0.649167 -0.055540 0.045586
v -0.651307 -0.055238 0.044621
v -0.651792 -0.053977 0.046504
v -0.652160 -0.054687 0.042905
v -0.650279 -0.057453 0.042896
v -0.638701 -0.080904 0.028644
v -0.634869 -0.083334 0.027664
v -0.635966 -0.080649 0.031854
v -0.637045 -0.082622 0.028154
v -0.636852 -0.082345 0.029794
v -0.635407 -0.082548 0.030056
v -0.637693 -0.081220 0.030660
v -0.649994 -0.051991 0.085308
v -0.652537 -0.051983 0.082475
v -0.649994 -0.054808 0.082491
v -0.651792 -0.051985 0.084472
v -0.651462 -0.053613 0.084108
v -0.651792 -0.053977 0.082479
v -0.649994 -0.053983 0.084483
v -0.652537 -0.031034 0.082475
v -0.649994 -0.031036 0.085305
v -0.651792 -0.031035 0.084470
v -0.420030 -0.052597 0.086621
v -0.420030 -0.055414 0.083803
v -0.417486 -0.052603 0.083816
v -0.420030 -0.054589 0.085796
v -0.418561 -0.054227 0.085437
v -0.418231 -0.054594 0.083812
v -0.418231 -0.052601 0.085805
v -0.457438 -0.096346 0.039943
v -0.459240 -0.098646 0.036457
v -0.454982 -0.097574 0.036994
v -0.458522 -0.098044 0.038646
v -0.457087 -0.098340 0.038348
v -0.457001 -0.098704 0.036725
v -0.455924 -0.097449 0.038979
v -0.589657 -0.083334 0.027664
v -0.585147 -0.081547 0.028224
v -0.587139 -0.080704 0.031974
v -0.587283 -0.082811 0.027944
v -0.587209 -0.082480 0.029699
v -0.585962 -0.081508 0.030447
v -0.588423 -0.082564 0.030092
v -0.573202 -0.068558 0.036627
v -0.573202 -0.071404 0.031703
v -0.573202 -0.070631 0.034228
v -0.420030 -0.031245 0.086617
v -0.417486 -0.031247 0.083816
v -0.418231 -0.031247 0.085804
v -0.524862 -0.055134 -0.050880
v -0.525266 -0.057423 -0.046465
v -0.525062 -0.055805 -0.048417
v -0.525261 -0.057411 0.046442
v -0.524886 -0.055138 0.050878
v -0.525072 -0.055803 0.048410
v -0.591446 -0.057264 -0.044869
v -0.591844 -0.054960 -0.049326
v -0.591643 -0.055634 -0.046838
v -0.591844 -0.054960 0.049324
v -0.591496 -0.057266 0.044873
v -0.591643 -0.055634 0.046838
v 0.696225 -0.031034 0.000000
v 0.461174 -0.031248 0.000000
v 0.574674 -0.084071 0.000000
v 0.585569 -0.071111 0.000000
v 0.461174 -0.031248 -0.050730
v 0.461174 -0.031247 0.050730
v 0.463718 -0.055414 -0.053358
v 0.461174 -0.052603 -0.050615
v 0.462778 -0.057608 -0.047126
v 0.466411 -0.058137 -0.049782
v 0.461919 -0.054593 -0.051987
v 0.462631 -0.055851 -0.050346
v 0.461644 -0.055236 -0.048870
v 0.464248 -0.058317 -0.048946
v 0.465055 -0.056210 -0.051130
v 0.574430 -0.082285 -0.040217
v 0.574674 -0.084071 -0.036483
v 0.574592 -0.083487 -0.038746
v 0.585569 -0.071111 -0.032049
v 0.585569 -0.068849 -0.036677
v 0.585569 -0.070448 -0.034574
v 0.693682 -0.054807 -0.047944
v 0.692043 -0.057307 -0.043854
v 0.694938 -0.057230 -0.040745
v 0.696225 -0.051983 -0.045065
v 0.692855 -0.055540 -0.045586
v 0.694995 -0.055238 -0.044621
v 0.693967 -0.057453 -0.042896
v 0.695848 -0.054687 -0.042905
v 0.695480 -0.053977 -0.046504
v 0.679658 -0.080642 -0.031857
v 0.678558 -0.083334 -0.027664
v 0.682389 -0.080904 -0.028644
v 0.679096 -0.082546 -0.030057
v 0.680541 -0.082344 -0.029795
v 0.680733 -0.082622 -0.028154
v 0.681383 -0.081217 -0.030661
v 0.693682 -0.051989 -0.085304
v 0.693682 -0.054806 -0.082487
v 0.696225 -0.051983 -0.082475
v 0.693682 -0.053981 -0.084479
v 0.695150 -0.053612 -0.084106
v 0.695480 -0.053977 -0.082478
v 0.695480 -0.051985 -0.084470
v 0.693682 -0.031036 -0.085305
v 0.696225 -0.031034 -0.082475
v 0.695480 -0.031035 -0.084470
v 0.463718 -0.055413 -0.083800
v 0.463718 -0.052596 -0.086617
v 0.461174 -0.052603 -0.083816
v 0.463718 -0.054588 -0.085792
v 0.462250 -0.054227 -0.085436
v 0.461919 -0.052601 -0.085804
v 0.461919 -0.054593 -0.083811
v 0.509286 -0.095262 -0.039943
v 0.506847 -0.096523 -0.036994
v 0.511119 -0.097535 -0.036457
v 0.507787 -0.096385 -0.038979
v 0.508962 -0.097259 -0.038348
v 0.508882 -0.097624 -0.036725
v 0.510393 -0.096943 -0.038646
v 0.506851 -0.096520 0.000000
v 0.511124 -0.097532 0.000000
v 0.508887 -0.097621 0.000000
v 0.630811 -0.080697 -0.031978
v 0.628835 -0.081548 -0.028224
v 0.633345 -0.083334 -0.027664
v 0.629642 -0.081503 -0.030450
v 0.630894 -0.082479 -0.029700
v 0.630971 -0.082811 -0.027944
v 0.632105 -0.082562 -0.030093
v 0.628829 -0.081555 0.000000
v 0.633345 -0.083334 0.000000
v 0.630969 -0.082813 0.000000
v 0.616891 -0.068560 -0.036626
v 0.616891 -0.070631 -0.034227
v 0.616891 -0.071404 -0.031703
v 0.678558 -0.083334 0.000000
v 0.682389 -0.080905 0.000000
v 0.680733 -0.082622 0.000000
v 0.694938 -0.057230 0.000000
v 0.696225 -0.051983 0.000000
v 0.695848 -0.054687 0.000000
v 0.616891 -0.071403 0.000000
v 0.461174 -0.052603 0.000000
v 0.462778 -0.057607 0.000000
v 0.461644 -0.055236 0.000000
v 0.461174 -0.031248 -0.083816
v 0.463718 -0.031245 -0.086617
v 0.461919 -0.031247 -0.085804
v 0.463718 -0.055414 0.053359
v 0.466411 -0.058137 0.049781
v 0.462778 -0.057608 0.047126
v 0.461174 -0.052603 0.050615
v 0.465055 -0.056210 0.051130
v 0.462631 -0.055851 0.050346
v 0.464248 -0.058317 0.048945
v 0.461644 -0.055236 0.048870
v 0.461919 -0.054593 0.051987
v 0.574674 -0.084071 0.036483
v 0.574430 -0.082285 0.040216
v 0.574592 -0.083487 0.038745
v 0.585569 -0.068848 0.036678
v 0.585569 -0.071111 0.032049
v 0.585569 -0.070448 0.034574
v 0.692043 -0.057307 0.043855
v 0.693682 -0.054807 0.047943
v 0.696225 -0.051983 0.045065
v 0.694938 -0.057230 0.040745
v 0.692855 -0.055540 0.045586
v 0.694995 -0.055238 0.044621
v 0.695480 -0.053977 0.046504
v 0.695848 -0.054687 0.042905
v 0.693967 -0.057453 0.042896
v 0.682389 -0.080904 0.028644
v 0.678558 -0.083334 0.027664
v 0.679654 -0.080649 0.031854
v 0.680733 -0.082622 0.028154
v 0.680540 -0.082345 0.029794
v 0.679095 -0.082548 0.030056
v 0.681381 -0.081220 0.030660
v 0.693682 -0.051991 0.085308
v 0.696225 -0.051983 0.082475
v 0.693682 -0.054808 0.082491
v 0.695480 -0.051985 0.084472
v 0.695150 -0.053613 0.084108
v 0.695480 -0.053977 0.082479
v 0.693682 -0.053983 0.084483
v 0.696225 -0.031034 0.082475
v 0.693682 -0.031036 0.085305
v 0.695480 -0.031035 0.084470
v 0.463718 -0.052597 0.086621
v 0.463718 -0.055414 0.083803
v 0.461174 -0.052603 0.083816
v 0.463718 -0.054589 0.085796
v 0.462250 -0.054227 0.085437
v 0.461919 -0.054594 0.083812
v 0.461919 -0.052601 0.085805
v 0.509285 -0.095260 0.039943
v 0.511119 -0.097535 0.036457
v 0.506847 -0.096523 0.036994
v 0.510393 -0.096943 0.038646
v 0.508962 -0.097259 0.038348
v 0.508881 -0.097624 0.036725
v 0.507786 -0.096385 0.038979
v 0.633345 -0.083334 0.027664
v 0.628835 -0.081547 0.028224
v 0.630827 -0.080704 0.031974
v 0.630971 -0.082811 0.027944
v 0.630897 -0.082480 0.029699
v 0.629650 -0.081508 0.030447
v 0.632112 -0.082564 0.030092
v 0.616891 -0.068558 0.036627
v 0.616891 -0.071404 0.031703
v 0.616891 -0.070631 0.034228
v 0.463718 -0.031245 0.086617
v 0.461174 -0.031247 0.083816
v 0.461919 -0.031247 0.085804
v 0.568550 -0.055134 -0.050880
v 0.568954 -0.057423 -0.046465
v 0.568750 -0.055805 -0.048417
v 0.568949 -0.057411 0.046442
v 0.568574 -0.055138 0.050878
v 0.568760 -0.055803 0.048410
v 0.635134 -0.057264 -0.044869
v 0.635532 -0.054960 -0.049326
v 0.635332 -0.055634 -0.046838
v 0.635532 -0.054960 0.049323
v 0.635184 -0.057266 0.044873
v 0.635332 -0.055634 0.046838
v 0.671031 -0.062700 -0.056349
v 0.671030 -0.047548 -0.056349
v 0.660412 -0.062700 -0.062973
v 0.660410 -0.047548 -0.062973
v 0.660839 -0.062700 -0.075482
v 0.660838 -0.047548 -0.075482
v 0.671886 -0.062700 -0.081367
v 0.671885 -0.047548 -0.081367
v 0.682505 -0.062700 -0.074742
v 0.682504 -0.047548 -0.074742
v 0.682078 -0.062700 -0.062233
v 0.682077 -0.047548 -0.062233
v 0.491730 -0.062700 0.078743
v 0.491729 -0.047548 0.078744
v 0.479214 -0.062700 0.078743
v 0.479213 -0.047548 0.078744
v 0.472955 -0.062700 0.067904
v 0.472954 -0.047548 0.067904
v 0.479214 -0.062700 0.057064
v 0.479213 -0.047548 0.057065
v 0.491730 -0.062700 0.057064
v 0.491729 -0.047548 0.057065
v 0.497988 -0.062700 0.067904
v 0.497987 -0.047548 0.067904
v 0.491730 -0.062700 -0.058019
v 0.491729 -0.047548 -0.058018
v 0.479214 -0.062700 -0.058019
v 0.479213 -0.047548 -0.058018
v 0.472955 -0.062700 -0.068858
v 0.472954 -0.047548 -0.068857
v 0.479214 -0.062700 -0.079698
v 0.479212 -0.047548 -0.079697
v 0.491730 -0.062700 -0.079697
v 0.491729 -0.047548 -0.079697
v 0.497988 -0.062700 -0.068858
v 0.497987 -0.047548 -0.068857
v 0.671931 -0.062700 0.080411
v 0.671930 -0.047548 0.080411
v 0.660863 -0.062700 0.074567
v 0.660862 -0.047548 0.074567
v 0.660391 -0.062700 0.062059
v 0.660389 -0.047548 0.062059
v 0.670986 -0.062700 0.055396
v 0.670985 -0.047548 0.055396
v 0.682054 -0.062700 0.061241
v 0.682053 -0.047548 0.061241
v 0.682527 -0.062700 0.073748
v 0.682525 -0.047548 0.073748
v -0.443908 -0.062700 -0.056349
v -0.443909 -0.047548 -0.056349
v -0.454527 -0.062700 -0.062973
v -0.454528 -0.047548 -0.062973
v -0.454100 -0.062700 -0.075482
v -0.454101 -0.047548 -0.075482
v -0.443053 -0.062700 -0.081367
v -0.443054 -0.047548 -0.081367
v -0.432433 -0.062700 -0.074742
v -0.432435 -0.047548 -0.074742
v -0.432861 -0.062700 -0.062233
v -0.432862 -0.047548 -0.062233
v -0.623209 -0.062700 0.078743
v -0.623210 -0.047548 0.078744
v -0.635725 -0.062700 0.078743
v -0.635726 -0.047548 0.078744
v -0.641983 -0.062700 0.067904
v -0.641984 -0.047548 0.067904
v -0.635725 -0.062700 0.057064
v -0.635726 -0.047548 0.057065
v -0.623209 -0.062700 0.057064
v -0.623210 -0.047548 0.057065
v -0.616951 -0.062700 0.067904
v -0.616952 -0.047548 0.067904
v -0.623209 -0.062700 -0.058019
v -0.623210 -0.047548 -0.058018
v -0.635725 -0.062700 -0.058019
v -0.635726 -0.047548 -0.058018
v -0.641983 -0.062700 -0.068858
v -0.641984 -0.047548 -0.068857
v -0.635725 -0.062700 -0.079698
v -0.635726 -0.047548 -0.079697
v -0.623209 -0.062700 -0.079697
v -0.623210 -0.047548 -0.079697
v -0.616951 -0.062700 -0.068858
v -0.616952 -0.047548 -0.068857
v -0.443008 -0.062700 0.080411
v -0.443009 -0.047548 0.080411
v -0.454076 -0.062700 0.074567
v -0.454077 -0.047548 0.074567
v -0.454548 -0.062700 0.062059
v -0.454549 -0.047548 0.062059
v -0.443953 -0.062700 0.055396
v -0.443954 -0.047548 0.055396
v -0.432885 -0.062700 0.061241
v -0.432886 -0.047548 0.061241
v -0.432412 -0.062700 0.073748
v -0.432413 -0.047548 0.073748
vn -0.1051 -0.9944 0.0100
vn 0.0001 -0.9995 0.0326
vn 0.0039 -0.9955 0.0943
vn -0.0175 -0.9991 0.0393
vn 0.0261 -0.9416 0.3359
vn 0.0099 -0.8991 0.4375
vn -0.0006 0.0183 0.9998
vn -0.0229 0.0126 0.9997
vn -0.0110 0.9984 -0.0546
vn -0.0433 0.9988 -0.0227
vn -0.0688 0.9563 0.2842
vn -0.0149 0.9832 0.1819
vn -0.0084 0.9997 -0.0249
vn 0.0549 0.9985 -0.0077
vn -0.0084 0.9997 0.0249
vn 0.0549 0.9985 0.0077
vn -0.1073 0.0029 0.9942
vn 0.2563 0.9662 0.0290
vn 0.2522 0.9673 0.0284
vn -0.2534 -0.0020 0.9674
vn -0.9952 -0.0120 0.0971
vn -0.6997 -0.7127 0.0499
vn -0.4127 -0.9090 0.0579
vn -0.9499 -0.0048 0.3124
vn -0.4355 0.8977 0.0664
vn 0.0673 0.9955 0.0661
vn -0.2530 -0.9672 0.0228
vn -0.2564 -0.9663 0.0234
vn -0.8648 0.0034 0.5022
vn -0.3197 -0.9466 0.0428
vn -0.2794 -0.9596 0.0331
vn -0.6793 0.0061 0.7339
vn -0.2629 -0.9644 0.0269
vn -0.4377 -0.0000 0.8991
vn 0.1826 0.9821 0.0472
vn 0.2270 0.9732 0.0369
vn 0.2450 0.9690 0.0313
vn -0.4355 0.8977 -0.0664
vn -0.9952 -0.0120 -0.0971
vn -0.1051 -0.9944 -0.0100
vn 0.0001 -0.9995 -0.0326
vn -0.0175 -0.9991 -0.0393
vn 0.0039 -0.9955 -0.0943
vn 0.0261 -0.9416 -0.3359
vn -0.0229 0.0127 -0.9997
vn -0.0006 0.0183 -0.9998
vn 0.0099 -0.8991 -0.4376
vn -0.0110 0.9984 0.0546
vn -0.0147 0.9832 -0.1819
vn -0.0688 0.9563 -0.2842
vn -0.0433 0.9988 0.0227
vn -0.1073 0.0029 -0.9942
vn -0.2534 -0.0020 -0.9674
vn 0.2522 0.9673 -0.0284
vn 0.2562 0.9662 -0.0290
vn -0.9502 -0.0048 -0.3115
vn -0.4127 -0.9090 -0.0578
vn -0.6997 -0.7127 -0.0499
vn 0.0673 0.9955 -0.0660
vn -0.2530 -0.9672 -0.0228
vn -0.2564 -0.9663 -0.0233
vn -0.8648 0.0034 -0.5022
vn -0.6793 0.0061 -0.7339
vn -0.2794 -0.9596 -0.0331
vn -0.3197 -0.9466 -0.0429
vn -0.2629 -0.9644 -0.0269
vn -0.4377 -0.0000 -0.8991
vn 0.1825 0.9821 -0.0471
vn 0.2269 0.9732 -0.0369
vn 0.2449 0.9691 -0.0312
vn 0.1012 -0.9948 0.0100
vn 0.0151 -0.9991 0.0394
vn -0.0040 -0.9955 0.0943
vn -0.0002 -0.9995 0.0325
vn -0.0280 -0.9406 0.3385
vn 0.0225 0.0126 0.9997
vn 0.0006 0.0183 0.9998
vn -0.0099 -0.8991 0.4377
vn 0.0110 0.9984 -0.0546
vn 0.0147 0.9832 0.1819
vn 0.0688 0.9564 0.2840
vn 0.0433 0.9988 -0.0227
vn 0.0083 0.9997 -0.0249
vn -0.0549 0.9985 -0.0076
vn -0.0549 0.9985 0.0076
vn 0.0083 0.9997 0.0249
vn 0.0006 0.0183 -0.9998
vn -0.0100 -0.8991 -0.4376
vn 0.1072 0.0032 0.9942
vn 0.2538 -0.0023 0.9673
vn -0.2522 0.9673 0.0284
vn -0.2562 0.9662 0.0291
vn 0.9952 0.0001 0.0978
vn 0.9492 0.0002 0.3146
vn 0.3746 -0.9252 0.0616
vn 0.7152 -0.6967 0.0548
vn 0.4354 0.8978 0.0664
vn -0.0673 0.9955 0.0660
vn 0.2535 -0.9671 0.0233
vn 0.2662 -0.9636 0.0231
vn 0.8644 -0.0002 0.5029
vn 0.6803 -0.0013 0.7329
vn 0.2730 -0.9615 0.0302
vn 0.2864 -0.9572 0.0417
vn 0.2730 -0.9617 0.0251
vn 0.4388 -0.0035 0.8986
vn -0.1825 0.9821 0.0471
vn -0.2270 0.9732 0.0369
vn -0.2449 0.9691 0.0312
vn 0.4354 0.8978 -0.0664
vn 0.9952 0.0001 -0.0978
vn -0.0040 -0.9955 -0.0943
vn -0.0002 -0.9995 -0.0325
vn 0.1012 -0.9948 -0.0100
vn 0.0151 -0.9991 -0.0394
vn -0.0280 -0.9406 -0.3385
vn 0.0225 0.0127 -0.9997
vn 0.0110 0.9984 0.0546
vn 0.0433 0.9988 0.0226
vn 0.0688 0.9564 -0.2840
vn 0.0149 0.9832 -0.1819
vn 0.1072 0.0032 -0.9942
vn -0.2563 0.9662 -0.0291
vn -0.2522 0.9673 -0.0284
vn 0.2538 -0.0023 -0.9673
vn 0.7152 -0.6967 -0.0548
vn 0.3746 -0.9252 -0.0616
vn 0.9492 0.0002 -0.3146
vn -0.0673 0.9955 -0.0661
vn 0.2535 -0.9671 -0.0233
vn 0.2662 -0.9636 -0.0231
vn 0.8643 -0.0002 -0.5029
vn 0.2864 -0.9572 -0.0417
vn 0.2730 -0.9615 -0.0302
vn 0.6802 -0.0013 -0.7330
vn 0.2730 -0.9617 -0.0251
vn 0.4388 -0.0035 -0.8986
vn -0.1826 0.9821 -0.0471
vn -0.2270 0.9732 -0.0370
vn -0.2450 0.9690 -0.0312
vn 0.2398 -0.9637 -0.1176
vn 0.7663 -0.6313 -0.1191
vn 0.6470 -0.6768 -0.3512
vn 0.1662 -0.8376 -0.5204
vn 0.9859 -0.1642 -0.0323
vn 0.9103 -0.3961 -0.1203
vn 0.7991 -0.5859 -0.1349
vn 0.5261 -0.6477 -0.5511
vn 0.1342 -0.5488 -0.8251
vn -0.2428 -0.9629 -0.1174
vn -0.2042 -0.8600 -0.4677
vn -0.6881 -0.6393 -0.3432
vn -0.7729 -0.6219 -0.1256
vn -0.1836 -0.6487 -0.7386
vn -0.5995 -0.6230 -0.5025
vn -0.8736 -0.4684 -0.1321
vn -0.9333 -0.3402 -0.1153
vn -0.9877 -0.1525 -0.0357
vn -0.1387 -0.6003 -0.7877
vn -0.1160 -0.8522 -0.5103
vn -0.4110 -0.8190 -0.4004
vn -0.5305 -0.6692 -0.5203
vn -0.1307 -0.9827 -0.1309
vn -0.5035 -0.8562 -0.1157
vn -0.7902 -0.6010 -0.1203
vn -0.2001 -0.1777 -0.9635
vn -0.1929 -0.6871 -0.7005
vn -0.6081 -0.5588 -0.5639
vn -0.7148 -0.1643 -0.6798
vn -0.1992 -0.9634 -0.1792
vn -0.7205 -0.6735 -0.1650
vn -0.9727 -0.1640 -0.1644
vn 0.1928 -0.9647 -0.1795
vn 0.1826 -0.6883 -0.7020
vn 0.6030 -0.5610 -0.5672
vn 0.7179 -0.6760 -0.1663
vn 0.1893 -0.1780 -0.9656
vn 0.7105 -0.1654 -0.6840
vn 0.9724 -0.1646 -0.1651
vn 0.0387 -0.4627 -0.8856
vn 0.3813 -0.6975 -0.6067
vn 0.1580 -0.8657 -0.4749
vn -0.0943 -0.8247 -0.5577
vn 0.6167 -0.7746 -0.1404
vn 0.2202 -0.9667 -0.1307
vn -0.1272 -0.9830 -0.1324
vn 0.1625 -0.6344 -0.7557
vn 0.4387 -0.7886 -0.4309
vn 0.3245 -0.8822 -0.3412
vn 0.1024 -0.8642 -0.4927
vn 0.5732 -0.8134 -0.0995
vn 0.3497 -0.9319 -0.0957
vn 0.0854 -0.9875 -0.1326
vn 0.2401 -0.9636 0.1173
vn 0.1661 -0.8383 0.5193
vn 0.6470 -0.6768 0.3512
vn 0.7663 -0.6313 0.1191
vn 0.1341 -0.5497 0.8245
vn 0.5261 -0.6477 0.5511
vn 0.7991 -0.5859 0.1350
vn 0.9103 -0.3961 0.1203
vn 0.9859 -0.1643 0.0324
vn -0.1836 -0.6485 0.7388
vn -0.2040 -0.8600 0.4677
vn -0.6881 -0.6393 0.3432
vn -0.5995 -0.6230 0.5024
vn -0.2430 -0.9629 0.1174
vn -0.7730 -0.6219 0.1256
vn -0.9877 -0.1525 0.0357
vn -0.9333 -0.3401 0.1151
vn -0.8736 -0.4684 0.1321
vn -0.7902 -0.6010 0.1200
vn -0.5036 -0.8562 0.1155
vn -0.4111 -0.8192 0.3999
vn -0.5305 -0.6693 0.5201
vn -0.1308 -0.9828 0.1306
vn -0.1160 -0.8524 0.5098
vn -0.1387 -0.6004 0.7876
vn -0.2006 -0.1776 0.9634
vn -0.7152 -0.1641 0.6794
vn -0.6088 -0.5585 0.5634
vn -0.1935 -0.6870 0.7004
vn -0.9727 -0.1640 0.1641
vn -0.7208 -0.6732 0.1648
vn -0.1995 -0.9634 0.1789
vn 0.1899 -0.1780 0.9655
vn 0.1831 -0.6882 0.7020
vn 0.6036 -0.5607 0.5668
vn 0.7109 -0.1653 0.6836
vn 0.1931 -0.9646 0.1795
vn 0.7182 -0.6758 0.1660
vn 0.9725 -0.1645 0.1651
vn 0.0386 -0.4624 0.8858
vn -0.0942 -0.8246 0.5578
vn 0.1580 -0.8657 0.4750
vn 0.3813 -0.6975 0.6068
vn -0.1277 -0.9829 0.1324
vn 0.2202 -0.9666 0.1308
vn 0.6167 -0.7745 0.1405
vn 0.0857 -0.9875 0.1322
vn 0.3499 -0.9319 0.0956
vn 0.3243 -0.8822 0.3413
vn 0.1022 -0.8644 0.4924
vn 0.5733 -0.8133 0.0996
vn 0.4383 -0.7886 0.4313
vn 0.1621 -0.6344 0.7558
vn -0.4195 -0.8981 -0.1319
vn -0.3404 -0.9320 -0.1242
vn -0.3440 -0.8289 -0.4411
vn -0.3982 -0.7891 -0.4678
vn -0.2089 -0.6193 -0.7569
vn -0.2881 -0.4832 -0.8267
vn -0.9841 -0.0000 -0.1777
vn -0.7288 -0.0000 -0.6847
vn -0.2173 -0.0000 -0.9761
vn 0.6246 -0.7810 -0.0000
vn 0.2399 -0.9708 -0.0000
vn -0.1099 -0.9939 -0.0000
vn 0.5799 -0.8147 -0.0000
vn 0.3659 -0.9307 -0.0000
vn 0.1080 -0.9942 -0.0000
vn 0.0751 -0.6463 -0.7594
vn 0.2507 -0.8317 -0.4953
vn 0.3391 -0.9293 -0.1466
vn -0.1575 -0.9875 -0.0000
vn -0.5311 -0.8473 -0.0000
vn -0.8096 -0.5870 -0.0000
vn -0.9147 -0.4041 -0.0000
vn -0.9711 -0.2387 -0.0000
vn -0.9976 -0.0692 -0.0000
vn 0.9961 -0.0882 -0.0000
vn 0.9519 -0.3063 -0.0000
vn 0.8315 -0.5555 -0.0000
vn -0.0062 -0.9896 -0.1435
vn -0.0161 -0.8641 -0.5030
vn -0.0822 -0.5418 -0.8365
vn 0.9840 -0.0000 -0.1783
vn 0.7249 -0.0000 -0.6889
vn 0.2070 -0.0000 -0.9783
vn -0.2880 -0.4829 0.8269
vn -0.2086 -0.6189 0.7573
vn -0.3441 -0.8288 0.4412
vn -0.3982 -0.7890 0.4679
vn -0.3406 -0.9320 0.1242
vn -0.4195 -0.8981 0.1318
vn -0.2179 0.0001 0.9760
vn -0.7291 0.0001 0.6844
vn -0.9841 -0.0000 0.1776
vn 0.3391 -0.9292 0.1467
vn 0.2505 -0.8317 0.4955
vn 0.0751 -0.6460 0.7596
vn -0.0820 -0.5427 0.8359
vn -0.0160 -0.8654 0.5009
vn -0.0062 -0.9898 0.1427
vn 0.2074 0.0001 0.9783
vn 0.7251 0.0001 0.6887
vn 0.9840 -0.0000 0.1783
vn -0.0056 -0.9907 -0.1363
vn -0.0123 -0.8790 -0.4766
vn 0.0014 -0.6372 -0.7707
vn 0.0015 -0.6374 0.7705
vn -0.0122 -0.8794 0.4759
vn -0.0056 -0.9907 0.1359
vn 1.0000 -0.0000 -0.0000
vn -0.4190 -0.9080 -0.0000
vn -0.3244 -0.9459 -0.0000
vn 0.3493 -0.9370 -0.0000
vn -1.0000 -0.0000 -0.0000
vn -0.2400 -0.9636 -0.1177
vn -0.1661 -0.8376 -0.5204
vn -0.6470 -0.6768 -0.3512
vn -0.7664 -0.6313 -0.1191
vn -0.9859 -0.1642 -0.0323
vn -0.9103 -0.3961 -0.1203
vn -0.7742 -0.6204 -0.1255
vn -0.5065 -0.6843 -0.5246
vn -0.1308 -0.5656 -0.8143
vn 0.2428 -0.9629 -0.1174
vn 0.7729 -0.6220 -0.1256
vn 0.6881 -0.6393 -0.3432
vn 0.2040 -0.8601 -0.4676
vn 0.1836 -0.6487 -0.7386
vn 0.5995 -0.6230 -0.5025
vn 0.8736 -0.4684 -0.1321
vn 0.9333 -0.3400 -0.1151
vn 0.9877 -0.1524 -0.0356
vn 0.1387 -0.6002 -0.7877
vn 0.5305 -0.6692 -0.5203
vn 0.4110 -0.8190 -0.4004
vn 0.1160 -0.8522 -0.5103
vn 0.1308 -0.9827 -0.1309
vn 0.5038 -0.8561 -0.1154
vn 0.7902 -0.6010 -0.1203
vn 0.2000 -0.1777 -0.9635
vn 0.7148 -0.1643 -0.6798
vn 0.6082 -0.5587 -0.5639
vn 0.1929 -0.6871 -0.7005
vn 0.1992 -0.9635 -0.1790
vn 0.7205 -0.6735 -0.1649
vn 0.9727 -0.1640 -0.1644
vn -0.1928 -0.9647 -0.1795
vn -0.7179 -0.6760 -0.1661
vn -0.6030 -0.5610 -0.5672
vn -0.1826 -0.6883 -0.7020
vn -0.1894 -0.1781 -0.9656
vn -0.7105 -0.1654 -0.6840
vn -0.9725 -0.1646 -0.1651
vn -0.0238 -0.4680 -0.8834
vn 0.1060 -0.8233 -0.5577
vn -0.1457 -0.8680 -0.4748
vn -0.3476 -0.7246 -0.5951
vn -0.5656 -0.8148 -0.1275
vn -0.2065 -0.9697 -0.1308
vn 0.1416 -0.9810 -0.1323
vn -0.1625 -0.6345 -0.7557
vn -0.1024 -0.8642 -0.4927
vn -0.3244 -0.8824 -0.3408
vn -0.4387 -0.7886 -0.4309
vn -0.5732 -0.8134 -0.0995
vn -0.3497 -0.9319 -0.0957
vn -0.0851 -0.9875 -0.1327
vn -0.2400 -0.9637 0.1172
vn -0.7664 -0.6313 0.1191
vn -0.6470 -0.6768 0.3512
vn -0.1661 -0.8383 0.5193
vn -0.1308 -0.5663 0.8137
vn -0.5065 -0.6843 0.5247
vn -0.7742 -0.6205 0.1252
vn -0.9103 -0.3960 0.1202
vn -0.9859 -0.1641 0.0322
vn 0.1837 -0.6485 0.7387
vn 0.5995 -0.6230 0.5024
vn 0.6881 -0.6393 0.3432
vn 0.2041 -0.8599 0.4678
vn 0.2429 -0.9629 0.1174
vn 0.7730 -0.6218 0.1256
vn 0.9877 -0.1525 0.0357
vn 0.9333 -0.3401 0.1152
vn 0.8736 -0.4684 0.1321
vn 0.7902 -0.6010 0.1203
vn 0.5305 -0.6693 0.5202
vn 0.4111 -0.8192 0.3999
vn 0.5036 -0.8562 0.1155
vn 0.1309 -0.9828 0.1306
vn 0.1160 -0.8524 0.5098
vn 0.1387 -0.6004 0.7876
vn 0.2007 -0.1777 0.9634
vn 0.1935 -0.6870 0.7004
vn 0.6088 -0.5585 0.5634
vn 0.7152 -0.1641 0.6793
vn 0.9727 -0.1640 0.1643
vn 0.7208 -0.6732 0.1648
vn 0.1994 -0.9634 0.1790
vn -0.1899 -0.1781 0.9655
vn -0.7109 -0.1653 0.6836
vn -0.6036 -0.5607 0.5668
vn -0.1831 -0.6882 0.7020
vn -0.1931 -0.9646 0.1795
vn -0.7182 -0.6758 0.1659
vn -0.9725 -0.1645 0.1650
vn -0.0238 -0.4677 0.8836
vn -0.3476 -0.7245 0.5952
vn -0.1457 -0.8678 0.4750
vn 0.1060 -0.8232 0.5578
vn 0.1416 -0.9810 0.1324
vn -0.2066 -0.9697 0.1308
vn -0.5656 -0.8148 0.1275
vn -0.0857 -0.9875 0.1322
vn -0.1022 -0.8644 0.4924
vn -0.3243 -0.8822 0.3413
vn -0.3499 -0.9319 0.0956
vn -0.5733 -0.8133 0.0996
vn -0.4383 -0.7886 0.4313
vn -0.1622 -0.6345 0.7557
vn 0.5124 -0.8492 -0.1276
vn 0.4898 -0.7446 -0.4534
vn 0.4478 -0.7873 -0.4238
vn 0.4398 -0.8902 -0.1186
vn 0.3809 -0.4441 -0.8110
vn 0.2670 -0.5806 -0.7692
vn 0.7288 -0.0000 -0.6847
vn 0.2173 -0.0000 -0.9761
vn -0.2261 -0.9741 -0.0000
vn -0.5726 -0.8199 -0.0000
vn 0.1239 -0.9923 -0.0000
vn -0.3659 -0.9307 -0.0000
vn -0.5799 -0.8147 -0.0000
vn -0.1080 -0.9942 -0.0000
vn -0.2507 -0.8318 -0.4952
vn -0.0751 -0.6463 -0.7594
vn -0.3391 -0.9293 -0.1466
vn 0.5312 -0.8473 -0.0000
vn 0.1575 -0.9875 -0.0000
vn 0.8096 -0.5870 -0.0000
vn 0.9711 -0.2388 -0.0000
vn 0.9149 -0.4037 -0.0000
vn 0.9976 -0.0692 -0.0000
vn -0.9519 -0.3063 -0.0000
vn -0.9961 -0.0882 -0.0000
vn -0.7980 -0.6026 -0.0000
vn 0.0062 -0.9896 -0.1435
vn 0.0161 -0.8641 -0.5030
vn 0.0766 -0.5296 -0.8448
vn -0.9839 -0.0000 -0.1787
vn -0.7248 -0.0000 -0.6889
vn -0.2072 -0.0000 -0.9783
vn 0.3808 -0.4438 0.8112
vn 0.4898 -0.7446 0.4536
vn 0.4479 -0.7872 0.4239
vn 0.2666 -0.5802 0.7696
vn 0.5126 -0.8491 0.1279
vn 0.4397 -0.8903 0.1186
vn 0.7291 0.0001 0.6844
vn 0.2179 0.0001 0.9760
vn 0.9840 -0.0000 0.1780
vn -0.2505 -0.8316 0.4956
vn -0.3392 -0.9292 0.1466
vn -0.0751 -0.6459 0.7597
vn 0.0765 -0.5306 0.8442
vn 0.0160 -0.8654 0.5009
vn 0.0062 -0.9898 0.1423
vn -0.2072 0.0001 0.9783
vn -0.7251 0.0001 0.6887
vn -0.9839 -0.0000 0.1787
vn 0.0056 -0.9907 -0.1363
vn 0.0123 -0.8790 -0.4767
vn -0.0014 -0.6373 -0.7706
vn -0.0015 -0.6374 0.7705
vn 0.0122 -0.8794 0.4758
vn 0.0056 -0.9907 0.1359
vn 0.5143 -0.8576 -0.0000
vn 0.4180 -0.9085 -0.0000
vn -0.3493 -0.9370 -0.0000
vn -0.5292 -0.0001 0.8485
vn -0.9994 -0.0001 -0.0342
vn -0.4702 -0.0000 -0.8826
vn 0.5293 -0.0000 -0.8484
vn 0.9994 0.0001 0.0341
vn 0.4701 -0.0000 0.8826
vn -0.0000 -1.0000 -0.0000
vn -0.0000 -0.0001 1.0000
vn -0.8660 -0.0001 0.5000
vn -0.8660 -0.0000 -0.5000
vn -0.0000 0.0001 -1.0000
vn 0.8660 0.0001 -0.5000
vn 0.8660 -0.0000 0.5000
vn -0.8660 -0.0001 0.5001
vn -0.8660 -0.0001 -0.5000
vn -0.0000 -0.0000 -1.0000
vn -0.4669 -0.0000 0.8843
vn -0.9993 -0.0001 0.0378
vn -0.5323 -0.0001 -0.8465
vn 0.4670 -0.0000 -0.8843
vn 0.9993 0.0001 -0.0378
vn 0.5323 0.0001 0.8465
vn -0.5293 -0.0000 0.8485
vn -0.9994 -0.0001 -0.0341
vn 0.5293 0.0001 -0.8484
vn 0.9994 0.0001 0.0342
vn -0.9993 -0.0001 0.0377
vn -0.5324 -0.0000 -0.8465
vn 0.5323 -0.0000 0.8465
vt 0.800387 0.513859
vt 0.751638 0.513223
vt 0.751779 0.452139
vt 0.800572 0.453147
vt 0.969805 0.970175
vt 0.992588 0.970175
vt 0.992588 0.957751
vt 0.969805 0.957751
vt 0.247863 0.699759
vt 0.198474 0.700185
vt 0.198474 0.683739
vt 0.247960 0.683702
vt 0.800695 0.435803
vt 0.751697 0.434987
vt 0.992588 0.946002
vt 0.969805 0.946002
vt 0.247440 0.756397
vt 0.198326 0.756550
vt 0.198474 0.691418
vt 0.247863 0.690951
vt 0.191683 0.760258
vt 0.191469 0.823068
vt 0.162954 0.822613
vt 0.163197 0.760398
vt 0.957699 0.957751
vt 0.957699 0.946002
vt 0.941190 0.946002
vt 0.941190 0.957751
vt 0.870810 0.957751
vt 0.870810 0.970175
vt 0.882668 0.970175
vt 0.882668 0.957751
vt 0.870810 0.946002
vt 0.882668 0.946002
vt 0.957699 0.970175
vt 0.941190 0.970175
vt 0.896320 0.957751
vt 0.896320 0.970175
vt 0.908559 0.970175
vt 0.908559 0.957751
vt 0.922015 0.970175
vt 0.922015 0.957751
vt 0.896320 0.946002
vt 0.908559 0.946002
vt 0.922015 0.946002
vt 0.808400 0.946002
vt 0.808400 0.957751
vt 0.800276 0.576147
vt 0.751518 0.576563
vt 0.800205 0.636887
vt 0.751431 0.637695
vt 0.709405 0.970175
vt 0.709405 0.957751
vt 0.686622 0.957751
vt 0.686622 0.970175
vt 0.247272 0.882047
vt 0.247263 0.898102
vt 0.197768 0.897756
vt 0.197875 0.881307
vt 0.800257 0.654226
vt 0.751281 0.654819
vt 0.709405 0.946002
vt 0.686622 0.946002
vt 0.247248 0.825224
vt 0.247272 0.890702
vt 0.197875 0.889891
vt 0.198108 0.824725
vt 0.721511 0.957751
vt 0.738020 0.957751
vt 0.738020 0.946002
vt 0.721511 0.946002
vt 0.796542 0.957751
vt 0.796542 0.970175
vt 0.808400 0.970175
vt 0.796542 0.946002
vt 0.721511 0.970175
vt 0.738020 0.970175
vt 0.782890 0.957751
vt 0.770651 0.957751
vt 0.770651 0.970175
vt 0.782890 0.970175
vt 0.757195 0.970175
vt 0.757195 0.957751
vt 0.782890 0.946002
vt 0.770651 0.946002
vt 0.757195 0.946002
vt 0.137328 0.689466
vt 0.172553 0.684931
vt 0.171848 0.896406
vt 0.136654 0.891647
vt 0.098860 0.701366
vt 0.098265 0.879504
vt 0.075164 0.713441
vt 0.074651 0.867279
vt 0.059209 0.732827
vt 0.058826 0.847792
vt 0.047439 0.755658
vt 0.047208 0.824887
vt 0.042174 0.776762
vt 0.042084 0.803750
vt 0.198108 0.821838
vt 0.198326 0.759623
vt 0.825804 0.652885
vt 0.826239 0.437263
vt 0.860699 0.648211
vt 0.861115 0.442092
vt 0.899215 0.636037
vt 0.899582 0.454436
vt 0.922857 0.623699
vt 0.923174 0.466878
vt 0.938608 0.603891
vt 0.938844 0.486756
vt 0.950087 0.580622
vt 0.950229 0.510076
vt 0.955207 0.559116
vt 0.955262 0.531605
vt 0.199730 0.512516
vt 0.199797 0.451796
vt 0.248574 0.450983
vt 0.248487 0.512106
vt 0.969921 0.970175
vt 0.969921 0.957751
vt 0.992743 0.957751
vt 0.992743 0.970175
vt 0.752114 0.701355
vt 0.752123 0.685303
vt 0.801604 0.685649
vt 0.801499 0.702093
vt 0.199744 0.434461
vt 0.248723 0.433861
vt 0.969921 0.946002
vt 0.992743 0.946002
vt 0.752151 0.758166
vt 0.752114 0.692700
vt 0.801499 0.693509
vt 0.801266 0.758645
vt 0.795532 0.761873
vt 0.836419 0.762310
vt 0.836220 0.824528
vt 0.795305 0.824683
vt 0.992861 0.957751
vt 0.005869 0.957751
vt 0.005987 0.946002
vt 0.992995 0.957751
vt 0.006004 0.957751
vt 0.993013 0.946002
vt 0.957797 0.957751
vt 0.941261 0.957751
vt 0.941261 0.946002
vt 0.957797 0.946002
vt 0.870769 0.957751
vt 0.882645 0.957751
vt 0.882645 0.970175
vt 0.870769 0.970175
vt 0.870769 0.946002
vt 0.882645 0.946002
vt 0.957797 0.970175
vt 0.941261 0.970175
vt 0.908579 0.957751
vt 0.908579 0.970175
vt 0.922056 0.970175
vt 0.922056 0.957751
vt 0.908579 0.946002
vt 0.922056 0.946002
vt 0.992878 0.970175
vt 0.005852 0.970175
vt 0.808260 0.946002
vt 0.808260 0.957751
vt 0.248292 0.653696
vt 0.248208 0.636542
vt 0.248349 0.575449
vt 0.199579 0.574802
vt 0.199398 0.635534
vt 0.709108 0.970175
vt 0.686286 0.970175
vt 0.686286 0.957751
vt 0.709108 0.957751
vt 0.751537 0.883645
vt 0.800942 0.883215
vt 0.800941 0.899665
vt 0.751440 0.899704
vt 0.199277 0.652881
vt 0.686286 0.946002
vt 0.709108 0.946002
vt 0.751948 0.826993
vt 0.801087 0.826823
vt 0.800942 0.891982
vt 0.751537 0.892453
vt 0.006121 0.970175
vt 0.184892 0.823216
vt 0.185108 0.760406
vt 0.795130 0.762021
vt 0.794902 0.824831
vt 0.721232 0.957751
vt 0.721232 0.946002
vt 0.737768 0.946002
vt 0.737768 0.957751
vt 0.808260 0.970175
vt 0.796383 0.970175
vt 0.796383 0.957751
vt 0.796383 0.946002
vt 0.721232 0.970175
vt 0.737768 0.970175
vt 0.782708 0.957751
vt 0.782708 0.970175
vt 0.770450 0.970175
vt 0.770450 0.957751
vt 0.756973 0.970175
vt 0.756973 0.957751
vt 0.782708 0.946002
vt 0.770450 0.946002
vt 0.756973 0.946002
vt 0.862711 0.691749
vt 0.862093 0.893932
vt 0.826870 0.898474
vt 0.827516 0.686998
vt 0.901103 0.703885
vt 0.900559 0.882024
vt 0.924722 0.716105
vt 0.924251 0.869945
vt 0.940553 0.735589
vt 0.940201 0.850555
vt 0.952176 0.758492
vt 0.951965 0.827721
vt 0.957307 0.779628
vt 0.957224 0.806616
vt 0.801087 0.823753
vt 0.801266 0.761535
vt 0.173726 0.651423
vt 0.174201 0.435804
vt 0.138851 0.646589
vt 0.139305 0.440473
vt 0.100383 0.634240
vt 0.100784 0.452641
vt 0.076793 0.621794
vt 0.077139 0.464976
vt 0.061123 0.601915
vt 0.061381 0.484781
vt 0.049722 0.578593
vt 0.049877 0.508048
vt 0.044684 0.557064
vt 0.044744 0.529554
vt 0.766783 0.178845
vt 0.765697 0.180492
vt 0.764636 0.180488
vt 0.764636 0.177979
vt 0.730160 0.269399
vt 0.728715 0.267659
vt 0.729674 0.267082
vt 0.730910 0.267722
vt 0.727622 0.265250
vt 0.729293 0.263885
vt 0.769562 0.055926
vt 0.767998 0.055356
vt 0.767973 0.054312
vt 0.769979 0.054770
vt 0.766578 0.030290
vt 0.764636 0.030812
vt 0.764636 0.029437
vt 0.765623 0.028663
vt 0.769683 0.153376
vt 0.770166 0.154434
vt 0.768578 0.154909
vt 0.767988 0.153651
vt 0.725033 0.040662
vt 0.726481 0.038138
vt 0.727873 0.038138
vt 0.727035 0.041440
vt 0.728029 0.036114
vt 0.729068 0.038129
vt 0.785575 0.148736
vt 0.787394 0.148567
vt 0.787375 0.149193
vt 0.786355 0.149731
vt 0.716769 0.069777
vt 0.717233 0.067761
vt 0.718779 0.067649
vt 0.718925 0.069321
vt 0.717473 0.065236
vt 0.719492 0.066187
vt 0.796296 0.029405
vt 0.794796 0.029402
vt 0.794797 0.028385
vt 0.796298 0.027647
vt 0.790280 0.030401
vt 0.790290 0.028772
vt 0.791406 0.028777
vt 0.792219 0.030410
vt 0.754643 0.035881
vt 0.756652 0.035867
vt 0.756633 0.037023
vt 0.754621 0.037885
vt 0.790071 0.178937
vt 0.792219 0.178941
vt 0.792219 0.179893
vt 0.790059 0.180589
vt 0.796074 0.179522
vt 0.796073 0.181096
vt 0.795222 0.181096
vt 0.794598 0.179518
vt 0.755779 0.269405
vt 0.755776 0.267721
vt 0.757045 0.267721
vt 0.757917 0.269407
vt 0.790148 0.067006
vt 0.790922 0.066069
vt 0.791629 0.066451
vt 0.791653 0.067424
vt 0.721821 0.224794
vt 0.721684 0.222439
vt 0.723102 0.222210
vt 0.723660 0.224133
vt 0.721461 0.220529
vt 0.723382 0.220899
vt 0.786198 0.127598
vt 0.787496 0.126987
vt 0.787938 0.127542
vt 0.787986 0.128193
vt 0.716086 0.109646
vt 0.714896 0.107595
vt 0.716352 0.107569
vt 0.717840 0.109114
vt 0.714793 0.105584
vt 0.716685 0.106574
vt 0.790072 0.178830
vt 0.792219 0.177958
vt 0.792219 0.179534
vt 0.791158 0.180495
vt 0.768981 0.151937
vt 0.769442 0.153074
vt 0.767870 0.153822
vt 0.767249 0.152489
vt 0.728713 0.267660
vt 0.729744 0.267716
vt 0.730920 0.267721
vt 0.769163 0.057054
vt 0.767239 0.056785
vt 0.767220 0.055891
vt 0.769680 0.056040
vt 0.790279 0.030284
vt 0.791232 0.028664
vt 0.792219 0.028659
vt 0.792219 0.030812
vt 0.726480 0.038138
vt 0.727742 0.038647
vt 0.729070 0.038129
vt 0.727024 0.041484
vt 0.718748 0.067963
vt 0.719491 0.066190
vt 0.718925 0.069322
vt 0.787206 0.061571
vt 0.788093 0.060602
vt 0.789109 0.060856
vt 0.789265 0.061735
vt 0.796020 0.029407
vt 0.796022 0.027647
vt 0.795134 0.027647
vt 0.794483 0.029402
vt 0.754622 0.037885
vt 0.755779 0.037874
vt 0.756652 0.035868
vt 0.766575 0.030398
vt 0.764636 0.030400
vt 0.764636 0.029473
vt 0.766565 0.028791
vt 0.795798 0.179524
vt 0.794286 0.179521
vt 0.794285 0.180427
vt 0.795797 0.181096
vt 0.766783 0.178933
vt 0.766796 0.180608
vt 0.765552 0.180613
vt 0.764636 0.178936
vt 0.757953 0.268435
vt 0.755777 0.267721
vt 0.791741 0.141155
vt 0.793412 0.140753
vt 0.793523 0.141354
vt 0.792583 0.142072
vt 0.723124 0.222612
vt 0.723660 0.224134
vt 0.716445 0.107707
vt 0.716685 0.106568
vt 0.717834 0.109107
vt 0.787819 0.082147
vt 0.789850 0.081571
vt 0.789865 0.082084
vt 0.789335 0.082745
vt 0.720461 0.178385
vt 0.725716 0.145627
vt 0.728318 0.145626
vt 0.722341 0.178290
vt 0.787182 0.091569
vt 0.783451 0.107696
vt 0.781373 0.107679
vt 0.785380 0.091547
vt 0.754862 0.020999
vt 0.756892 0.020995
vt 0.807455 0.027647
vt 0.807453 0.029405
vt 0.696729 0.224723
vt 0.696712 0.222439
vt 0.696698 0.220529
vt 0.695896 0.109423
vt 0.695881 0.107471
vt 0.695867 0.105480
vt 0.780980 0.121477
vt 0.783291 0.121693
vt 0.727883 0.121550
vt 0.725379 0.122004
vt 0.695610 0.070104
vt 0.695596 0.068113
vt 0.695577 0.065561
vt 0.728318 0.123013
vt 0.783108 0.120923
vt 0.695397 0.040688
vt 0.695378 0.038136
vt 0.695364 0.036120
vt 0.697053 0.267782
vt 0.697039 0.265902
vt 0.697021 0.263617
vt 0.766687 0.110843
vt 0.764659 0.110567
vt 0.768683 0.100254
vt 0.770644 0.100370
vt 0.755488 0.282171
vt 0.757436 0.282175
vt 0.807253 0.181096
vt 0.807255 0.179522
vt 0.786994 0.117228
vt 0.782966 0.101551
vt 0.785433 0.101534
vt 0.789058 0.117240
vt 0.807454 0.029407
vt 0.754861 0.020999
vt 0.727881 0.121548
vt 0.785261 0.087904
vt 0.782565 0.088114
vt 0.785105 0.088653
vt 0.728318 0.123012
vt 0.770254 0.108700
vt 0.767930 0.108821
vt 0.792199 0.110530
vt 0.790179 0.110726
vt 0.807254 0.179524
vt 0.766655 0.068292
vt 0.764642 0.067530
vt 0.768488 0.129337
vt 0.770463 0.129384
vt 0.770006 0.080368
vt 0.767757 0.080400
vt 0.792213 0.067445
vt 0.790206 0.068152
vt 0.732613 0.282119
vt 0.697160 0.282039
vt 0.696382 0.178385
vt 0.696165 0.145627
vt 0.695983 0.121145
vt 0.695255 0.021130
vt 0.428458 0.136604
vt 0.428458 0.151258
vt 0.423573 0.151258
vt 0.423573 0.136604
vt 0.418688 0.151258
vt 0.418688 0.136604
vt 0.413803 0.151258
vt 0.413803 0.136604
vt 0.408918 0.151258
vt 0.408918 0.136604
vt 0.404033 0.151258
vt 0.404033 0.136604
vt 0.399148 0.151258
vt 0.399148 0.136604
vt 0.292797 0.259937
vt 0.306545 0.283649
vt 0.346810 0.259359
vt 0.333552 0.283360
vt 0.333062 0.235647
vt 0.306055 0.235936
s 1
usemtl Material.001
f 7/1/1 8/2/2 5/3/3 6/4/4
f 13/5/5 14/6/6 11/7/7 12/8/8
f 1/9/9 2/10/10 9/11/11 10/12/12
f 13/13/5 6/4/4 5/3/3 14/14/6
f 12/8/8 11/7/7 10/15/12 9/16/11
f 3/17/13 4/18/14 2/19/10 1/20/9
f 3/21/13 38/22/15 39/23/16 4/24/14
f 24/25/17 16/26/18 15/27/19 23/28/20
f 20/29/21 26/30/22 25/31/23 19/32/24
f 17/33/25 20/29/21 19/32/24 18/34/26
f 21/35/27 24/25/17 23/28/20 22/36/28
f 32/37/29 34/38/30 33/39/31 31/40/32
f 35/41/33 30/42/34 31/40/32 33/39/31
f 29/43/35 32/37/29 31/40/32 27/44/36
f 30/42/34 28/45/37 27/44/36 31/40/32
f 30/42/34 23/28/20 15/27/19 28/45/37
f 24/25/17 12/8/8 9/16/11 16/26/18
f 29/43/35 18/34/26 19/32/24 32/37/29
f 32/37/29 19/32/24 25/31/23 34/38/30
f 35/41/33 22/36/28 23/28/20 30/42/34
f 21/35/27 13/5/5 12/8/8 24/25/17
f 52/46/38 55/47/39 20/29/21 17/33/25
f 7/1/1 42/48/40 43/49/41 8/2/2
f 42/48/40 41/50/42 40/51/43 43/49/41
f 48/52/44 47/53/45 46/54/46 49/55/47
f 36/56/48 45/57/49 44/58/50 37/59/51
f 48/60/44 49/61/47 40/51/43 41/50/42
f 47/53/45 44/62/50 45/63/49 46/54/46
f 38/64/15 36/65/48 37/66/51 39/67/16
f 59/68/52 58/69/53 50/70/54 51/71/55
f 55/47/39 54/72/56 60/73/57 61/74/58
f 52/46/38 53/75/59 54/72/56 55/47/39
f 56/76/60 57/77/61 58/69/53 59/68/52
f 67/78/62 66/79/63 68/80/64 69/81/65
f 70/82/66 68/80/64 66/79/63 65/83/67
f 64/84/68 62/85/69 66/79/63 67/78/62
f 65/83/67 66/79/63 62/85/69 63/86/70
f 65/83/67 63/86/70 50/70/54 58/69/53
f 59/68/52 51/71/55 44/62/50 47/53/45
f 64/84/68 67/78/62 54/72/56 53/75/59
f 67/78/62 69/81/65 60/73/57 54/72/56
f 70/82/66 65/83/67 58/69/53 57/77/61
f 56/76/60 59/68/52 47/53/45 48/52/44
f 15/87/19 16/88/18 51/89/55 50/90/54
f 28/91/37 15/87/19 50/90/54 63/92/70
f 27/93/36 28/91/37 63/92/70 62/94/69
f 29/95/35 27/93/36 62/94/69 64/96/68
f 18/97/26 29/95/35 64/96/68 53/98/59
f 17/99/25 18/97/26 53/98/59 52/100/38
f 55/47/39 61/74/58 26/30/22 20/29/21
f 9/11/11 2/10/10 16/88/18
f 44/58/50 51/89/55 37/59/51
f 37/59/51 51/89/55 39/101/16
f 2/10/10 4/102/14 16/88/18
f 39/101/16 51/89/55 16/88/18 4/102/14
f 48/60/44 41/50/42 56/103/60
f 13/13/5 21/104/27 6/4/4
f 7/1/1 6/4/4 21/104/27
f 42/48/40 56/103/60 41/50/42
f 42/48/40 7/1/1 21/104/27 56/103/60
f 57/105/61 56/103/60 21/104/27 22/106/28
f 70/107/66 57/105/61 22/106/28 35/108/33
f 68/109/64 70/107/66 35/108/33 33/110/31
f 69/111/65 68/109/64 33/110/31 34/112/30
f 60/113/57 69/111/65 34/112/30 25/114/23
f 61/115/58 60/113/57 25/114/23 26/116/22
f 77/117/71 76/118/72 75/119/73 78/120/74
f 83/121/75 82/122/76 81/123/77 84/124/78
f 71/125/79 80/126/80 79/127/81 72/128/82
f 83/129/75 84/130/78 75/119/73 76/118/72
f 82/122/76 79/131/81 80/132/80 81/123/77
f 73/133/83 71/134/79 72/135/82 74/136/84
f 73/137/83 74/138/84 109/139/85 108/140/86
f 10/12/12 80/126/80 71/125/79 1/9/9
f 3/17/13 1/20/9 71/134/79 73/133/83
f 5/3/3 8/2/2 78/120/74 75/119/73
f 14/14/6 5/3/3 75/119/73 84/130/78
f 10/132/12 11/141/7 81/142/77 80/143/80
f 46/144/46 116/145/87 119/143/88 49/146/47
f 94/147/89 93/148/90 85/149/91 86/150/92
f 90/151/93 89/152/94 95/153/95 96/154/96
f 87/155/97 88/156/98 89/152/94 90/151/93
f 91/157/99 92/158/100 93/148/90 94/147/89
f 102/37/101 101/159/102 103/160/103 104/38/104
f 105/161/105 103/160/103 101/159/102 100/162/106
f 99/43/107 97/163/108 101/159/102 102/37/101
f 100/162/106 101/159/102 97/163/108 98/164/109
f 100/162/106 98/164/109 85/149/91 93/148/90
f 94/147/89 86/150/92 79/131/81 82/122/76
f 99/43/107 102/37/101 89/152/94 88/156/98
f 102/37/101 104/38/104 95/153/95 89/152/94
f 105/161/105 100/162/106 93/148/90 92/158/100
f 91/157/99 94/147/89 82/122/76 83/121/75
f 14/165/6 84/166/78 81/142/77 11/141/7
f 122/167/110 87/155/97 90/151/93 125/168/111
f 40/51/43 49/61/47 119/169/88 110/170/112
f 77/117/71 78/120/74 113/171/113 112/172/114
f 112/172/114 113/171/113 110/170/112 111/173/115
f 118/174/116 119/175/88 116/176/87 117/177/117
f 106/178/118 107/179/119 114/180/120 115/181/121
f 118/182/116 111/173/115 110/170/112 119/169/88
f 117/177/117 116/176/87 115/183/121 114/184/120
f 108/185/86 109/186/85 107/187/119 106/188/118
f 36/56/48 106/178/118 115/181/121 45/57/49
f 36/65/48 38/64/15 108/185/86 106/188/118
f 43/49/41 40/51/43 110/170/112 113/171/113
f 43/49/41 113/171/113 78/120/74 8/2/2
f 46/144/46 45/165/49 115/189/121 116/145/87
f 38/190/15 3/191/13 73/192/83 108/193/86
f 129/194/122 121/195/123 120/196/124 128/197/125
f 125/168/111 131/198/126 130/199/127 124/200/128
f 122/167/110 125/168/111 124/200/128 123/201/129
f 126/202/130 129/194/122 128/197/125 127/203/131
f 137/204/132 139/205/133 138/206/134 136/207/135
f 140/208/136 135/209/137 136/207/135 138/206/134
f 134/210/138 137/204/132 136/207/135 132/211/139
f 135/209/137 133/212/140 132/211/139 136/207/135
f 135/209/137 128/197/125 120/196/124 133/212/140
f 129/194/122 117/177/117 114/184/120 121/195/123
f 134/210/138 123/201/129 124/200/128 137/204/132
f 137/204/132 124/200/128 130/199/127 139/205/133
f 140/208/136 127/203/131 128/197/125 135/209/137
f 126/202/130 118/174/116 117/177/117 129/194/122
f 85/213/91 120/214/124 121/215/123 86/216/92
f 98/217/109 133/218/140 120/214/124 85/213/91
f 97/219/108 132/220/139 133/218/140 98/217/109
f 99/221/107 134/222/138 132/220/139 97/219/108
f 88/223/98 123/224/129 134/222/138 99/221/107
f 87/225/97 122/226/110 123/224/129 88/223/98
f 125/168/111 90/151/93 96/154/96 131/198/126
f 79/127/81 86/216/92 72/128/82
f 114/180/120 107/179/119 121/215/123
f 107/179/119 109/227/85 121/215/123
f 72/128/82 86/216/92 74/228/84
f 109/227/85 74/228/84 86/216/92 121/215/123
f 118/182/116 126/229/130 111/173/115
f 83/129/75 76/118/72 91/230/99
f 77/117/71 91/230/99 76/118/72
f 112/172/114 111/173/115 126/229/130
f 112/172/114 126/229/130 91/230/99 77/117/71
f 127/231/131 92/232/100 91/230/99 126/229/130
f 140/233/136 105/234/105 92/232/100 127/231/131
f 138/235/134 103/236/103 105/234/105 140/233/136
f 139/237/133 104/238/104 103/236/103 138/235/134
f 130/239/127 95/240/95 104/238/104 139/237/133
f 131/241/126 96/242/96 95/240/95 130/239/127
f 147/243/141 151/244/142 152/245/143 155/246/144
f 148/247/145 153/248/146 152/249/143 151/250/142
f 149/251/147 154/252/148 152/249/143 153/248/146
f 150/253/149 155/254/144 152/255/143 154/256/148
f 162/257/150 166/258/151 167/259/152 170/260/153
f 163/261/154 168/262/155 167/263/152 166/264/151
f 164/265/156 169/266/157 167/267/152 168/268/155
f 165/269/158 170/270/153 167/267/152 169/266/157
f 171/271/159 174/272/160 175/273/161 177/274/162
f 172/275/163 176/276/164 175/277/161 174/278/160
f 173/279/165 177/280/162 175/277/161 176/276/164
f 178/281/166 181/282/167 182/283/168 184/284/169
f 179/285/170 183/286/171 182/287/168 181/288/167
f 180/289/172 184/290/169 182/291/168 183/292/171
f 188/293/173 191/294/174 192/295/175 194/296/176
f 189/297/177 193/298/178 192/299/175 191/300/174
f 190/301/179 194/302/176 192/303/175 193/304/178
f 195/305/180 198/306/181 199/307/182 201/308/183
f 196/309/184 200/310/185 199/311/182 198/312/181
f 197/313/186 201/314/183 199/311/182 200/310/185
f 205/315/187 208/316/188 209/317/189 211/318/190
f 206/319/191 210/320/192 209/321/189 208/322/188
f 207/323/193 211/324/190 209/321/189 210/320/192
f 231/325/194 235/326/195 236/327/196 239/328/197
f 232/329/198 237/330/199 236/331/196 235/332/195
f 233/251/200 238/333/201 236/334/196 237/252/199
f 234/247/202 239/335/197 236/334/196 238/333/201
f 246/336/203 250/337/204 251/338/205 254/339/206
f 247/340/207 252/341/208 251/342/205 250/343/204
f 248/269/209 253/344/210 251/345/205 252/346/208
f 249/265/211 254/347/206 251/345/205 253/344/210
f 255/279/212 258/276/213 259/348/214 261/349/215
f 256/275/216 260/350/217 259/348/214 258/276/213
f 257/351/218 261/352/215 259/353/214 260/354/217
f 262/355/219 265/356/220 266/357/221 268/358/222
f 263/289/223 267/359/224 266/360/221 265/361/220
f 264/362/225 268/363/222 266/364/221 267/365/224
f 272/366/226 275/367/227 276/368/228 278/369/229
f 273/370/230 277/371/231 276/372/228 275/373/227
f 274/301/232 278/304/229 276/374/228 277/375/231
f 279/376/233 282/377/234 283/378/235 285/379/236
f 280/313/237 284/310/238 283/380/235 282/314/234
f 281/309/239 285/381/236 283/380/235 284/310/238
f 286/323/240 289/320/241 290/382/242 292/383/243
f 287/319/244 291/384/245 290/382/242 289/320/241
f 288/385/246 292/386/243 290/387/242 291/388/245
f 157/389/247 159/390/248 161/391/249 158/392/250
f 158/393/250 161/394/249 160/395/251 156/396/252
f 180/289/172 186/397/253 187/398/254 184/290/169
f 184/284/169 187/399/254 185/400/255 178/281/166
f 156/396/252 195/305/180 201/308/183 158/393/250
f 158/392/250 201/314/183 197/313/186 157/389/247
f 196/309/184 202/401/256 204/402/257 200/310/185
f 200/310/185 204/402/257 203/403/258 197/313/186
f 207/323/193 172/275/163 174/278/160 211/324/190
f 211/318/190 174/272/160 171/271/159 205/315/187
f 206/319/191 212/404/259 214/405/260 210/320/192
f 210/320/192 214/405/260 213/406/261 207/323/193
f 205/315/187 215/407/262 216/408/263 208/316/188
f 208/322/188 216/409/263 217/410/264 206/319/191
f 172/275/163 218/411/265 220/412/266 176/276/164
f 176/276/164 220/412/266 219/413/267 173/279/165
f 249/265/211 255/279/212 261/349/215 254/347/206
f 254/339/206 261/352/215 257/351/218 246/336/203
f 159/390/248 217/410/264 216/414/263 161/391/249
f 161/394/249 216/415/263 215/407/262 160/395/251
f 165/269/158 180/289/172 183/292/171 170/270/153
f 170/260/153 183/286/171 179/285/170 162/257/150
f 190/301/179 148/247/145 151/250/142 194/302/176
f 194/296/176 151/244/142 147/243/141 188/293/173
f 164/265/156 221/416/268 223/417/269 169/266/157
f 169/266/157 223/417/269 222/418/270 165/269/158
f 148/247/145 225/419/271 227/420/272 153/248/146
f 153/248/146 227/420/272 226/421/273 149/251/147
f 299/422/274 147/243/141 155/246/144 301/423/275
f 301/424/275 155/254/144 150/253/149 300/425/276
f 228/426/277 190/301/179 193/304/178 230/427/278
f 230/428/278 193/298/178 189/297/177 229/429/279
f 241/430/280 243/431/281 245/432/282 242/433/283
f 242/392/283 245/391/282 244/390/284 240/389/285
f 262/355/219 270/434/286 271/399/287 265/356/220
f 265/361/220 271/398/287 269/435/288 263/289/223
f 240/389/285 280/313/237 282/314/234 242/392/283
f 242/433/283 282/377/234 279/376/233 241/430/280
f 280/313/237 203/403/258 204/402/257 284/310/238
f 284/310/238 204/402/257 202/401/256 281/309/239
f 288/385/246 257/351/218 260/354/217 292/386/243
f 292/383/243 260/350/217 256/275/216 286/323/240
f 286/323/240 213/406/261 214/405/260 289/320/241
f 289/320/241 214/405/260 212/404/259 287/319/244
f 287/319/244 294/410/289 295/436/290 291/384/245
f 291/388/245 295/437/290 293/438/291 288/385/246
f 255/279/212 219/413/267 220/412/266 258/276/213
f 258/276/213 220/412/266 218/411/265 256/275/216
f 264/362/225 273/370/230 275/373/227 268/363/222
f 268/358/222 275/367/227 272/366/226 262/355/219
f 163/261/154 171/271/159 177/274/162 168/262/155
f 168/268/155 177/280/162 173/279/165 164/265/156
f 243/431/281 293/438/291 295/439/290 245/432/282
f 245/391/282 295/440/290 294/410/289 244/390/284
f 247/340/207 264/362/225 267/365/224 252/341/208
f 252/346/208 267/359/224 263/289/223 248/269/209
f 273/370/230 231/325/194 239/328/197 277/371/231
f 277/375/231 239/335/197 234/247/202 274/301/232
f 248/269/209 222/418/270 223/417/269 253/344/210
f 253/344/210 223/417/269 221/416/268 249/265/211
f 233/251/200 226/421/273 227/420/272 238/333/201
f 238/333/201 227/420/272 225/419/271 234/247/202
f 302/441/292 232/329/198 235/332/195 304/442/293
f 304/443/293 235/326/195 231/325/194 303/444/294
f 296/445/295 272/366/226 278/369/229 298/428/296
f 298/427/296 278/304/229 274/301/232 297/426/297
f 306/446/298 299/422/274 301/423/275 307/447/299
f 307/448/299 301/424/275 300/425/276 305/449/300
f 309/450/301 302/441/292 304/442/293 310/451/302
f 310/452/302 304/443/293 303/444/294 308/453/303
f 195/305/180 150/253/149 154/256/148 198/306/181
f 198/312/181 154/252/148 149/251/147 196/309/184
f 281/309/239 233/251/200 237/252/199 285/381/236
f 285/379/236 237/330/199 232/329/198 279/376/233
f 246/336/203 309/450/301 310/451/302 250/337/204
f 250/343/204 310/452/302 308/453/303 247/340/207
f 178/281/166 189/297/177 191/300/174 181/282/167
f 181/288/167 191/294/174 188/293/173 179/285/170
f 162/257/150 306/446/298 307/447/299 166/258/151
f 166/264/151 307/448/299 305/449/300 163/261/154
f 188/293/173 147/243/141 299/422/274 179/285/170
f 156/396/252 300/425/276 150/253/149 195/305/180
f 145/454/304 148/247/145 190/301/179 228/426/277
f 142/455/304 225/419/271 148/247/145 145/454/304
f 149/251/147 226/421/273 202/401/256 196/309/184
f 160/395/251 300/425/276 156/396/252
f 197/313/186 203/403/258 143/456/305 157/389/247
f 157/389/247 143/456/305 144/457/306 159/390/248
f 159/390/248 144/457/306 224/458/307 217/410/264
f 160/395/251 215/407/262 305/449/300 300/425/276
f 179/285/170 306/446/298 162/257/150
f 165/269/158 222/418/270 141/459/308
f 141/459/308 186/397/253 180/289/172 165/269/158
f 173/279/165 219/413/267 221/416/268 164/265/156
f 163/261/154 305/449/300 205/315/187 171/271/159
f 207/323/193 213/406/261 218/411/265 172/275/163
f 189/297/177 178/281/166 185/400/255 229/429/279
f 280/313/237 240/389/285 143/456/305 203/403/258
f 233/251/200 281/309/239 202/401/256 226/421/273
f 217/410/264 224/458/307 212/404/259 206/319/191
f 305/449/300 215/407/262 205/315/187
f 286/323/240 256/275/216 218/411/265 213/406/261
f 294/410/289 287/319/244 212/404/259 224/458/307
f 255/279/212 249/265/211 221/416/268 219/413/267
f 248/269/209 141/459/308 222/418/270
f 244/390/284 294/410/289 224/458/307 144/457/306
f 142/455/304 146/454/304 234/247/202 225/419/271
f 273/370/230 264/362/225 303/444/294 231/325/194
f 146/454/304 297/426/297 274/301/232 234/247/202
f 232/329/198 302/441/292 241/430/280 279/376/233
f 302/441/292 243/431/281 241/430/280
f 240/389/285 244/390/284 144/457/306 143/456/305
f 293/438/291 243/431/281 302/441/292 309/450/301
f 264/362/225 247/340/207 308/453/303
f 288/385/246 309/450/301 246/336/203 257/351/218
f 141/459/308 248/269/209 263/289/223 269/435/288
f 272/366/226 296/445/295 270/434/286 262/355/219
f 293/438/291 309/450/301 288/385/246
f 179/285/170 299/422/274 306/446/298
f 264/362/225 308/453/303 303/444/294
f 317/243/309 325/246/310 322/245/311 321/244/312
f 318/247/313 321/250/312 322/249/311 323/248/314
f 319/251/315 323/248/314 322/249/311 324/252/316
f 320/253/317 324/256/316 322/255/311 325/254/310
f 332/257/318 340/260/319 337/259/320 336/258/321
f 333/261/322 336/264/321 337/263/320 338/262/323
f 334/265/324 338/268/323 337/267/320 339/266/325
f 335/269/326 339/266/325 337/267/320 340/270/319
f 341/271/327 347/274/328 345/273/329 344/272/330
f 342/275/331 344/278/330 345/277/329 346/276/332
f 343/279/333 346/276/332 345/277/329 347/280/328
f 348/281/334 354/284/335 352/283/336 351/282/337
f 349/285/338 351/288/337 352/287/336 353/286/339
f 350/289/340 353/292/339 352/291/336 354/290/335
f 358/293/341 364/296/342 362/295/343 361/294/344
f 359/297/345 361/300/344 362/299/343 363/298/346
f 360/301/347 363/304/346 362/303/343 364/302/342
f 365/305/348 371/308/349 369/307/350 368/306/351
f 366/309/352 368/312/351 369/311/350 370/310/353
f 367/313/354 370/310/353 369/311/350 371/314/349
f 375/315/355 381/318/356 379/317/357 378/316/358
f 376/319/359 378/322/358 379/321/357 380/320/360
f 377/323/361 380/320/360 379/321/357 381/324/356
f 401/325/362 409/328/363 406/327/364 405/326/365
f 402/329/366 405/332/365 406/331/364 407/330/367
f 403/251/368 407/252/367 406/334/364 408/333/369
f 404/247/370 408/333/369 406/334/364 409/335/363
f 416/336/371 424/339/372 421/338/373 420/337/374
f 417/340/375 420/343/374 421/342/373 422/341/376
f 418/269/377 422/346/376 421/345/373 423/344/378
f 419/265/379 423/344/378 421/345/373 424/347/372
f 425/279/380 431/349/381 429/348/382 428/276/383
f 426/275/384 428/276/383 429/348/382 430/350/385
f 427/351/386 430/354/385 429/353/382 431/352/381
f 432/355/387 438/358/388 436/357/389 435/356/390
f 433/289/391 435/361/390 436/360/389 437/359/392
f 434/362/393 437/365/392 436/364/389 438/363/388
f 442/366/394 448/369/395 446/368/396 445/367/397
f 443/370/398 445/373/397 446/372/396 447/371/399
f 444/301/400 447/375/399 446/374/396 448/304/395
f 449/376/401 455/379/402 453/378/403 452/377/404
f 450/313/405 452/314/404 453/380/403 454/310/406
f 451/309/407 454/310/406 453/380/403 455/381/402
f 456/323/408 462/383/409 460/382/410 459/320/411
f 457/319/412 459/320/411 460/382/410 461/384/413
f 458/385/414 461/388/413 460/387/410 462/386/409
f 327/389/415 328/392/416 331/391/417 329/390/418
f 328/393/416 326/396/419 330/395/420 331/394/417
f 350/289/340 354/290/335 357/398/421 356/397/277
f 354/284/335 348/281/334 355/400/422 357/399/421
f 326/396/419 328/393/416 371/308/349 365/305/348
f 328/392/416 327/389/415 367/313/354 371/314/349
f 366/309/352 370/310/353 374/402/423 372/401/424
f 370/310/353 367/313/354 373/403/425 374/402/423
f 377/323/361 381/324/356 344/278/330 342/275/331
f 381/318/356 375/315/355 341/271/327 344/272/330
f 376/319/359 380/320/360 384/405/426 382/404/427
f 380/320/360 377/323/361 383/406/428 384/405/426
f 375/315/355 378/316/358 386/408/429 385/407/430
f 378/322/358 376/319/359 387/410/431 386/409/429
f 342/275/331 346/276/332 390/412/432 388/411/433
f 346/276/332 343/279/333 389/413/434 390/412/432
f 419/265/379 424/347/372 431/349/381 425/279/380
f 424/339/372 416/336/371 427/351/386 431/352/381
f 329/390/418 331/391/417 386/414/429 387/410/431
f 331/394/417 330/395/420 385/407/430 386/415/429
f 335/269/326 340/270/319 353/292/339 350/289/340
f 340/260/319 332/257/318 349/285/338 353/286/339
f 360/301/347 364/302/342 321/250/312 318/247/313
f 364/296/342 358/293/341 317/243/309 321/244/312
f 334/265/324 339/266/325 393/417/435 391/416/436
f 339/266/325 335/269/326 392/418/437 393/417/435
f 318/247/313 323/248/314 397/420/438 395/419/439
f 323/248/314 319/251/315 396/421/440 397/420/438
f 469/422/441 471/423/442 325/246/310 317/243/309
f 471/424/442 470/425/443 320/253/317 325/254/310
f 398/426/444 400/427/445 363/304/346 360/301/347
f 400/428/445 399/429/446 359/297/345 363/298/346
f 411/430/447 412/433/448 415/432/449 413/431/450
f 412/392/448 410/389/451 414/390/452 415/391/449
f 432/355/387 435/356/390 441/399/453 440/434/454
f 435/361/390 433/289/391 439/435/455 441/398/453
f 410/389/451 412/392/448 452/314/404 450/313/405
f 412/433/448 411/430/447 449/376/401 452/377/404
f 450/313/405 454/310/406 374/402/423 373/403/425
f 454/310/406 451/309/407 372/401/424 374/402/423
f 458/385/414 462/386/409 430/354/385 427/351/386
f 462/383/409 456/323/408 426/275/384 430/350/385
f 456/323/408 459/320/411 384/405/426 383/406/428
f 459/320/411 457/319/412 382/404/427 384/405/426
f 457/319/412 461/384/413 465/436/456 464/410/457
f 461/388/413 458/385/414 463/438/458 465/437/456
f 425/279/380 428/276/383 390/412/432 389/413/434
f 428/276/383 426/275/384 388/411/433 390/412/432
f 434/362/393 438/363/388 445/373/397 443/370/398
f 438/358/388 432/355/387 442/366/394 445/367/397
f 333/261/322 338/262/323 347/274/328 341/271/327
f 338/268/323 334/265/324 343/279/333 347/280/328
f 413/431/450 415/432/449 465/439/456 463/438/458
f 415/391/449 414/390/452 464/410/457 465/440/456
f 417/340/375 422/341/376 437/365/392 434/362/393
f 422/346/376 418/269/377 433/289/391 437/359/392
f 443/370/398 447/371/399 409/328/363 401/325/362
f 447/375/399 444/301/400 404/247/370 409/335/363
f 418/269/377 423/344/378 393/417/435 392/418/437
f 423/344/378 419/265/379 391/416/436 393/417/435
f 403/251/368 408/333/369 397/420/438 396/421/440
f 408/333/369 404/247/370 395/419/439 397/420/438
f 472/441/459 474/442/460 405/332/365 402/329/366
f 474/443/460 473/444/461 401/325/362 405/326/365
f 466/445/462 468/428/463 448/369/395 442/366/394
f 468/427/463 467/426/464 444/301/400 448/304/395
f 476/446/465 477/447/466 471/423/442 469/422/441
f 477/448/466 475/449/467 470/425/443 471/424/442
f 479/450/468 480/451/469 474/442/460 472/441/459
f 480/452/469 478/453/470 473/444/461 474/443/460
f 365/305/348 368/306/351 324/256/316 320/253/317
f 368/312/351 366/309/352 319/251/315 324/252/316
f 451/309/407 455/381/402 407/252/367 403/251/368
f 455/379/402 449/376/401 402/329/366 407/330/367
f 416/336/371 420/337/374 480/451/469 479/450/468
f 420/343/374 417/340/375 478/453/470 480/452/469
f 348/281/334 351/282/337 361/300/344 359/297/345
f 351/288/337 349/285/338 358/293/341 361/294/344
f 332/257/318 336/258/321 477/447/466 476/446/465
f 336/264/321 333/261/322 475/449/467 477/448/466
f 358/293/341 349/285/338 469/422/441 317/243/309
f 326/396/419 365/305/348 320/253/317 470/425/443
f 315/454/308 398/426/444 360/301/347 318/247/313
f 312/455/308 315/454/308 318/247/313 395/419/439
f 319/251/315 366/309/352 372/401/424 396/421/440
f 330/395/420 326/396/419 470/425/443
f 367/313/354 327/389/415 313/456/471 373/403/425
f 327/389/415 329/390/418 314/457/472 313/456/471
f 329/390/418 387/410/431 394/458/473 314/457/472
f 330/395/420 470/425/443 475/449/467 385/407/430
f 349/285/338 332/257/318 476/446/465
f 335/269/326 311/459/304 392/418/437
f 311/459/304 335/269/326 350/289/340 356/397/277
f 343/279/333 334/265/324 391/416/436 389/413/434
f 333/261/322 341/271/327 375/315/355 475/449/467
f 377/323/361 342/275/331 388/411/433 383/406/428
f 359/297/345 399/429/446 355/400/422 348/281/334
f 450/313/405 373/403/425 313/456/471 410/389/451
f 403/251/368 396/421/440 372/401/424 451/309/407
f 387/410/431 376/319/359 382/404/427 394/458/473
f 475/449/467 375/315/355 385/407/430
f 456/323/408 383/406/428 388/411/433 426/275/384
f 464/410/457 394/458/473 382/404/427 457/319/412
f 425/279/380 389/413/434 391/416/436 419/265/379
f 418/269/377 392/418/437 311/459/304
f 414/390/452 314/457/472 394/458/473 464/410/457
f 312/455/308 395/419/439 404/247/370 316/454/308
f 443/370/398 401/325/362 473/444/461 434/362/393
f 316/454/308 404/247/370 444/301/400 467/426/464
f 402/329/366 449/376/401 411/430/447 472/441/459
f 472/441/459 411/430/447 413/431/450
f 410/389/451 313/456/471 314/457/472 414/390/452
f 463/438/458 479/450/468 472/441/459 413/431/450
f 434/362/393 478/453/470 417/340/375
f 458/385/414 427/351/386 416/336/371 479/450/468
f 311/459/304 439/435/455 433/289/391 418/269/377
f 442/366/394 432/355/387 440/434/454 466/445/462
f 463/438/458 458/385/414 479/450/468
f 349/285/338 476/446/465 469/422/441
f 434/362/393 473/444/461 478/453/470
f 481/460/474 482/461/474 484/462/474 483/463/474
f 483/463/475 484/462/475 486/464/475 485/465/475
f 485/465/476 486/464/476 488/466/476 487/467/476
f 487/467/477 488/466/477 490/468/477 489/469/477
f 489/469/478 490/468/478 492/470/478 491/471/478
f 491/471/479 492/470/479 482/472/479 481/473/479
f 489/474/480 491/475/480 483/476/480
f 491/475/480 481/477/480 483/476/480
f 483/476/480 485/478/480 487/479/480
f 487/479/480 489/474/480 483/476/480
f 493/460/481 494/461/481 496/462/481 495/463/481
f 495/463/482 496/462/482 498/464/482 497/465/482
f 497/465/483 498/464/483 500/466/483 499/467/483
f 499/467/484 500/466/484 502/468/484 501/469/484
f 501/469/485 502/468/485 504/470/485 503/471/485
f 503/471/486 504/470/486 494/472/486 493/473/486
f 501/474/480 503/475/480 495/476/480
f 503/475/480 493/477/480 495/476/480
f 495/476/480 497/478/480 499/479/480
f 499/479/480 501/474/480 495/476/480
f 505/460/481 506/461/481 508/462/481 507/463/481
f 507/463/487 508/462/487 510/464/487 509/465/487
f 509/465/488 510/464/488 512/466/488 511/467/488
f 511/467/489 512/466/489 514/468/489 513/469/489
f 513/469/485 514/468/485 516/470/485 515/471/485
f 515/471/486 516/470/486 506/472/486 505/473/486
f 513/474/480 515/475/480 507/476/480
f 515/475/480 505/477/480 507/476/480
f 507/476/480 509/478/480 511/479/480
f 511/479/480 513/474/480 507/476/480
f 517/460/490 518/461/490 520/462/490 519/463/490
f 519/463/491 520/462/491 522/464/491 521/465/491
f 521/465/492 522/464/492 524/466/492 523/467/492
f 523/467/493 524/466/493 526/468/493 525/469/493
f 525/469/494 526/468/494 528/470/494 527/471/494
f 527/471/495 528/470/495 518/472/495 517/473/495
f 525/474/480 527/475/480 519/476/480
f 527/475/480 517/477/480 519/476/480
f 519/476/480 521/478/480 523/479/480
f 523/479/480 525/474/480 519/476/480
f 529/460/496 530/461/496 532/462/496 531/463/496
f 531/463/497 532/462/497 534/464/497 533/465/497
f 533/465/476 534/464/476 536/466/476 535/467/476
f 535/467/498 536/466/498 538/468/498 537/469/498
f 537/469/499 538/468/499 540/470/499 539/471/499
f 539/471/479 540/470/479 530/472/479 529/473/479
f 537/474/480 539/475/480 531/476/480
f 539/475/480 529/477/480 531/476/480
f 531/476/480 533/478/480 535/479/480
f 535/479/480 537/474/480 531/476/480
f 541/460/481 542/461/481 544/462/481 543/463/481
f 543/463/482 544/462/482 546/464/482 545/465/482
f 545/465/483 546/464/483 548/466/483 547/467/483
f 547/467/484 548/466/484 550/468/484 549/469/484
f 549/469/485 550/468/485 552/470/485 551/471/485
f 551/471/486 552/470/486 542/472/486 541/473/486
f 549/474/480 551/475/480 543/476/480
f 551/475/480 541/477/480 543/476/480
f 543/476/480 545/478/480 547/479/480
f 547/479/480 549/474/480 543/476/480
f 553/460/481 554/461/481 556/462/481 555/463/481
f 555/463/482 556/462/482 558/464/482 557/465/482
f 557/465/483 558/464/483 560/466/483 559/467/483
f 559/467/489 560/466/489 562/468/489 561/469/489
f 561/469/485 562/468/485 564/470/485 563/471/485
f 563/471/486 564/470/486 554/472/486 553/473/486
f 561/474/480 563/475/480 555/476/480
f 563/475/480 553/477/480 555/476/480
f 555/476/480 557/478/480 559/479/480
f 559/479/480 561/474/480 555/476/480
f 565/460/490 566/461/490 568/462/490 567/463/490
f 567/463/500 568/462/500 570/464/500 569/465/500
f 569/465/501 570/464/501 572/466/501 571/467/501
f 571/467/493 572/466/493 574/468/493 573/469/493
f 573/469/494 574/468/494 576/470/494 575/471/494
f 575/471/502 576/470/502 566/472/502 565/473/502
f 573/474/480 575/475/480 567/476/480
f 575/475/480 565/477/480 567/476/480
f 567/476/480 569/478/480 571/479/480
f 571/479/480 573/474/480 567/476/480
