# Blender 4.4.0
# www.blender.org
mtllib bushings.mtl
o BUSHINGS
v -0.488001 -0.081130 0.029873
v -0.508779 -0.077330 0.021123
v -0.517386 -0.075755 0.000000
v -0.508779 -0.077330 -0.021123
v -0.488001 -0.081130 -0.029873
v -0.467222 -0.084931 -0.021123
v -0.458615 -0.086505 0.000000
v -0.467222 -0.084931 0.021123
v -0.504860 -0.173301 0.020786
v -0.503349 -0.165042 0.029873
v -0.519317 -0.170656 0.014698
v -0.524128 -0.161241 0.021124
v -0.525306 -0.169561 0.000000
v -0.532735 -0.159667 0.000000
v -0.519317 -0.170656 -0.014698
v -0.524128 -0.161241 -0.021123
v -0.504860 -0.173301 -0.020785
v -0.503349 -0.165042 -0.029873
v -0.490402 -0.175945 -0.014698
v -0.482570 -0.168842 -0.021123
v -0.484413 -0.177041 0.000000
v -0.473963 -0.170417 0.000000
v -0.490402 -0.175945 0.014698
v -0.482570 -0.168842 0.021124
v 0.538391 -0.081130 0.029873
v 0.559170 -0.077330 0.021123
v 0.567776 -0.075755 0.000000
v 0.559170 -0.077330 -0.021123
v 0.538391 -0.081130 -0.029873
v 0.517612 -0.084931 -0.021123
v 0.509005 -0.086505 0.000000
v 0.517612 -0.084931 0.021123
v 0.555250 -0.173301 0.020786
v 0.553739 -0.165042 0.029873
v 0.569708 -0.170656 0.014698
v 0.574518 -0.161241 0.021124
v 0.575696 -0.169561 0.000000
v 0.583125 -0.159667 0.000000
v 0.569708 -0.170656 -0.014698
v 0.574518 -0.161241 -0.021123
v 0.555250 -0.173301 -0.020785
v 0.553739 -0.165042 -0.029873
v 0.540792 -0.175945 -0.014698
v 0.532960 -0.168842 -0.021123
v 0.534804 -0.177041 0.000000
v 0.524354 -0.170417 0.000000
v 0.540792 -0.175945 0.014698
v 0.532960 -0.168842 0.021124
v -0.505849 -0.178573 0.015835
v -0.500849 -0.151511 0.015835
v -0.492363 -0.181064 0.007917
v -0.487364 -0.154002 0.007917
v -0.492363 -0.181064 -0.007917
v -0.487364 -0.154002 -0.007917
v -0.505849 -0.178573 -0.015835
v -0.500849 -0.151511 -0.015835
v -0.519334 -0.176082 -0.007917
v -0.514335 -0.149019 -0.007917
v -0.519334 -0.176082 0.007917
v -0.514335 -0.149019 0.007917
v 0.556239 -0.178573 0.015835
v 0.551239 -0.151511 0.015835
v 0.542754 -0.181064 0.007917
v 0.537754 -0.154002 0.007917
v 0.542754 -0.181064 -0.007917
v 0.537754 -0.154002 -0.007917
v 0.556239 -0.178573 -0.015835
v 0.551239 -0.151511 -0.015835
v 0.569724 -0.176082 -0.007917
v 0.564725 -0.149019 -0.007917
v 0.569724 -0.176082 0.007917
v 0.564725 -0.149019 0.007917
vn -0.7068 -0.2425 0.6646
vn -0.6058 -0.6359 0.4782
vn -0.1322 -0.7225 0.6786
vn -0.0650 -0.3552 0.9325
vn -0.9804 -0.1968 -0.0000
vn -0.7997 -0.6005 -0.0000
vn -0.7068 -0.2425 -0.6646
vn -0.6057 -0.6359 -0.4782
vn -0.0650 -0.3552 -0.9325
vn -0.1322 -0.7225 -0.6786
vn 0.5752 -0.4770 -0.6646
vn 0.3414 -0.8091 -0.4783
vn 0.8473 -0.5312 -0.0000
vn 0.5354 -0.8446 -0.0000
vn 0.5752 -0.4770 0.6646
vn 0.3414 -0.8091 0.4783
vn -0.3764 0.0689 0.9239
vn -0.6903 0.1263 0.7124
vn 0.6903 -0.1263 0.7124
vn 0.3764 -0.0688 0.9239
vn -0.9088 0.1662 0.3827
vn -0.9088 0.1662 -0.3827
vn -0.6904 0.1263 -0.7123
vn -0.3765 0.0689 -0.9239
vn 0.3764 -0.0689 -0.9239
vn 0.6903 -0.1263 -0.7124
vn 0.9088 -0.1662 -0.3827
vn 0.9088 -0.1662 0.3827
vn -0.1800 -0.9837 -0.0000
vn -0.1799 -0.9837 -0.0000
vn -0.1800 -0.9837 0.0001
vn -0.1799 -0.9837 0.0001
vn -0.1799 -0.9837 -0.0001
vn -0.1800 -0.9837 -0.0001
vn 0.5976 -0.6374 0.4865
vn 0.1321 -0.7225 0.6786
vn 0.1611 -0.8806 0.4456
vn 0.4687 -0.8272 0.3101
vn 0.7997 -0.6004 -0.0000
vn 0.5896 -0.8077 -0.0000
vn 0.5976 -0.6374 -0.4865
vn 0.4686 -0.8272 -0.3101
vn 0.1321 -0.7225 -0.6786
vn 0.1611 -0.8806 -0.4457
vn -0.3333 -0.8076 -0.4865
vn -0.1454 -0.9395 -0.3101
vn -0.5354 -0.8446 -0.0000
vn -0.2655 -0.9641 -0.0000
vn -0.3333 -0.8076 0.4865
vn -0.1454 -0.9395 0.3101
vn -0.0000 -0.0000 1.0000
vn 0.3764 0.0689 0.9239
vn -0.6903 -0.1263 0.7124
vn 0.9088 0.1662 0.3827
vn 0.9837 0.1799 -0.0000
vn 0.9088 0.1662 -0.3827
vn 0.3764 0.0689 -0.9239
vn -0.0000 -0.0000 -1.0000
vn -0.6903 -0.1263 -0.7124
vn -0.9088 -0.1662 -0.3827
vn -0.9088 -0.1662 0.3827
vn 0.4917 -0.0908 0.8660
vn 0.9834 -0.1817 -0.0000
vn 0.4917 -0.0908 -0.8660
vn -0.4917 0.0908 -0.8660
vn -0.9834 0.1816 -0.0000
vn -0.4917 0.0908 0.8660
vn -0.1816 -0.9834 -0.0000
vn -0.4917 -0.0908 0.8660
vn -0.9834 -0.1817 -0.0000
vn -0.4917 -0.0908 -0.8660
vn 0.4917 0.0908 -0.8660
vn 0.9834 0.1816 -0.0000
vn 0.4917 0.0908 0.8660
vn 0.1817 -0.9834 -0.0000
vn 0.1816 -0.9834 -0.0000
vt 0.860077 0.397991
vt 0.860077 0.405928
vt 0.876945 0.405928
vt 0.876945 0.397991
vt 0.843208 0.397991
vt 0.843208 0.405928
vt 0.961287 0.397991
vt 0.961287 0.405928
vt 0.978155 0.405928
vt 0.978155 0.397991
vt 0.944419 0.397991
vt 0.944419 0.405928
vt 0.927550 0.397991
vt 0.927550 0.405928
vt 0.910682 0.397991
vt 0.910682 0.405928
vt 0.893813 0.397991
vt 0.893813 0.405928
vt 0.876945 0.343264
vt 0.860077 0.343264
vt 0.893813 0.343264
vt 0.843208 0.343264
vt 0.978155 0.343264
vt 0.961287 0.343264
vt 0.944419 0.343264
vt 0.927550 0.343264
vt 0.910682 0.343264
vt 0.509013 0.254415
vt 0.550132 0.212553
vt 0.520903 0.224968
vt 0.591994 0.253672
vt 0.579579 0.224443
vt 0.550875 0.295534
vt 0.580105 0.283119
vt 0.521428 0.283645
vt 0.428458 0.136604
vt 0.423573 0.136604
vt 0.423573 0.151258
vt 0.428458 0.151258
vt 0.418688 0.136604
vt 0.418688 0.151258
vt 0.413803 0.136604
vt 0.413803 0.151258
vt 0.408918 0.136604
vt 0.408918 0.151258
vt 0.404033 0.136604
vt 0.404033 0.151258
vt 0.399148 0.136604
vt 0.399148 0.151258
vt 0.292797 0.259937
vt 0.346810 0.259359
vt 0.306545 0.283649
vt 0.333552 0.283360
vt 0.306055 0.235936
vt 0.333062 0.235647
s 1
usemtl Material.001
f 12/1/1 11/2/2 9/3/3 10/4/4
f 14/5/5 13/6/6 11/2/2 12/1/1
f 16/7/7 15/8/8 13/9/6 14/10/5
f 18/11/9 17/12/10 15/8/8 16/7/7
f 20/13/11 19/14/12 17/12/10 18/11/9
f 22/15/13 21/16/14 19/14/12 20/13/11
f 24/17/15 23/18/16 21/16/14 22/15/13
f 10/4/4 9/3/3 23/18/16 24/17/15
f 1/19/17 2/20/18 12/1/1 10/4/4
f 8/21/19 1/19/20 10/4/4 24/17/15
f 2/20/18 3/22/21 14/5/5 12/1/1
f 3/23/22 4/24/23 16/7/7 14/10/5
f 4/24/23 5/25/24 18/11/9 16/7/7
f 5/25/25 6/26/26 20/13/11 18/11/9
f 6/26/26 7/27/27 22/15/13 20/13/11
f 7/27/28 8/21/19 24/17/15 22/15/13
f 13/28/29 9/29/30 11/30/31
f 9/29/30 21/31/30 23/32/32
f 21/31/30 17/33/30 19/34/33
f 17/33/30 13/28/29 15/35/34
f 17/33/30 9/29/30 13/28/29
f 17/33/30 21/31/30 9/29/30
f 36/1/35 34/4/36 33/3/37 35/2/38
f 38/5/39 36/1/35 35/2/38 37/6/40
f 40/7/41 38/10/39 37/9/40 39/8/42
f 42/11/43 40/7/41 39/8/42 41/12/44
f 44/13/45 42/11/43 41/12/44 43/14/46
f 46/15/47 44/13/45 43/14/46 45/16/48
f 48/17/49 46/15/47 45/16/48 47/18/50
f 34/4/36 48/17/49 47/18/50 33/3/37
f 25/19/51 34/4/51 36/1/52 26/20/52
f 32/21/53 48/17/53 34/4/51 25/19/51
f 26/20/54 36/1/54 38/5/55 27/22/55
f 27/23/55 38/10/55 40/7/56 28/24/56
f 28/24/57 40/7/57 42/11/58 29/25/58
f 29/25/58 42/11/58 44/13/59 30/26/59
f 30/26/59 44/13/59 46/15/60 31/27/60
f 31/27/61 46/15/61 48/17/53 32/21/53
f 37/28/40 35/30/38 33/29/37
f 33/29/37 47/32/50 45/31/48
f 45/31/48 43/34/46 41/33/44
f 41/33/44 39/35/42 37/28/40
f 41/33/44 37/28/40 33/29/37
f 41/33/44 33/29/37 45/31/48
f 49/36/62 51/37/62 52/38/62 50/39/62
f 51/37/63 53/40/63 54/41/63 52/38/63
f 53/40/64 55/42/64 56/43/64 54/41/64
f 55/42/65 57/44/65 58/45/65 56/43/65
f 57/44/66 59/46/66 60/47/66 58/45/66
f 59/46/67 49/48/67 50/49/67 60/47/67
f 57/50/68 51/51/68 59/52/68
f 59/52/68 51/51/68 49/53/68
f 51/51/68 55/54/68 53/55/68
f 55/54/68 51/51/68 57/50/68
f 61/36/69 62/39/69 64/38/69 63/37/69
f 63/37/70 64/38/70 66/41/70 65/40/70
f 65/40/71 66/41/71 68/43/71 67/42/71
f 67/42/72 68/43/72 70/45/72 69/44/72
f 69/44/73 70/45/73 72/47/73 71/46/73
f 71/46/74 72/47/74 62/49/74 61/48/74
f 69/50/75 71/52/75 63/51/75
f 71/52/75 61/53/75 63/51/75
f 63/51/75 65/55/76 67/54/75
f 67/54/75 69/50/75 63/51/75
