# Blender 4.4.0
# www.blender.org
mtllib trucks2.mtl
o TRUCKS2
v 0.603699 -0.197000 0.301551
v 0.603699 -0.197000 0.270484
v 0.589985 -0.189082 0.301551
v 0.589985 -0.189082 0.270484
v 0.589985 -0.173247 0.301551
v 0.589985 -0.173247 0.270484
v 0.603699 -0.165330 0.301551
v 0.603699 -0.165330 0.270484
v 0.617412 -0.173247 0.301551
v 0.617412 -0.173247 0.270484
v 0.617412 -0.189082 0.301551
v 0.617412 -0.189082 0.270484
v 0.603699 -0.197000 -0.299318
v 0.603699 -0.197000 -0.268250
v 0.589985 -0.189082 -0.299318
v 0.589985 -0.189082 -0.268250
v 0.589985 -0.173248 -0.299318
v 0.589985 -0.173247 -0.268250
v 0.603699 -0.165330 -0.299318
v 0.603699 -0.165330 -0.268250
v 0.617412 -0.173248 -0.299318
v 0.617412 -0.173247 -0.268250
v 0.617412 -0.189082 -0.299318
v 0.617412 -0.189082 -0.268250
v 0.625436 -0.192680 0.189919
v 0.582032 -0.192680 0.189919
v 0.576034 -0.194826 -0.000011
v 0.627958 -0.192680 0.000000
v 0.603861 -0.204356 0.189919
v 0.603861 -0.204356 0.000000
v 0.580500 -0.176206 0.000000
v 0.569621 -0.176689 0.029540
v 0.625386 -0.192680 0.094002
v 0.582228 -0.192021 0.093892
v 0.603861 -0.204356 0.094002
v 0.582032 -0.167450 0.189919
v 0.625436 -0.167450 0.189919
v 0.603861 -0.154922 0.189919
v 0.561515 -0.149261 0.094021
v 0.639297 -0.148367 0.094002
v 0.603861 -0.137275 0.094002
v 0.655726 -0.106421 0.000000
v 0.655261 -0.105617 0.015860
v 0.568474 -0.111863 0.026539
v 0.621532 -0.105063 0.011819
v 0.579298 -0.109954 0.000000
v 0.616607 -0.106244 0.000000
v 0.671716 -0.080594 0.000000
v 0.668903 -0.080446 0.006801
v 0.655321 -0.079735 0.006801
v 0.652507 -0.079587 0.000000
v 0.634229 -0.105206 0.018099
v 0.662112 -0.080090 0.009618
v 0.516215 -0.121086 0.026539
v 0.541543 -0.117467 0.037280
v 0.553728 -0.146431 0.034627
v 0.521769 -0.151065 0.022682
v 0.505391 -0.122996 0.000000
v 0.510802 -0.152986 0.000000
v 0.582886 -0.176206 0.000000
v 0.573200 -0.176206 0.029304
v 0.553997 -0.146285 0.033262
v 0.523955 -0.150681 0.021203
v 0.513699 -0.152479 0.000000
v 0.603861 -0.106996 0.000000
v 0.603861 -0.106996 0.016472
v 0.510443 -0.122105 0.000000
v 0.519786 -0.120455 0.022911
v 0.574246 -0.110845 0.000000
v 0.542345 -0.116475 0.032402
v 0.564902 -0.112494 0.022911
v 0.512912 -0.136567 0.000000
v 0.522256 -0.134918 0.022911
v 0.576715 -0.125307 0.000000
v 0.544814 -0.130937 0.032402
v 0.567372 -0.126956 0.022911
v 0.613474 -0.185635 0.212389
v 0.594041 -0.185635 0.212389
v 0.603814 -0.190862 0.212389
v 0.594041 -0.174338 0.212389
v 0.613474 -0.174338 0.212389
v 0.603814 -0.168729 0.212389
v 0.625436 -0.192681 -0.189919
v 0.582032 -0.192681 -0.189919
v 0.603861 -0.204356 -0.189919
v 0.570586 -0.176222 -0.029461
v 0.625386 -0.192681 -0.094001
v 0.582399 -0.191905 -0.093909
v 0.603861 -0.204356 -0.094001
v 0.582032 -0.167450 -0.189919
v 0.625436 -0.167450 -0.189919
v 0.603861 -0.154922 -0.189919
v 0.560988 -0.149571 -0.094012
v 0.639297 -0.148367 -0.094001
v 0.603861 -0.137275 -0.094002
v 0.655261 -0.105617 -0.015860
v 0.568474 -0.111864 -0.026539
v 0.621532 -0.105063 -0.011819
v 0.668903 -0.080446 -0.006801
v 0.655321 -0.079735 -0.006801
v 0.634229 -0.105206 -0.018099
v 0.662112 -0.080090 -0.009618
v 0.516215 -0.121086 -0.026539
v 0.541395 -0.117598 -0.037235
v 0.554050 -0.146140 -0.034736
v 0.521769 -0.151065 -0.022682
v 0.573200 -0.176206 -0.029304
v 0.553997 -0.146285 -0.033256
v 0.523955 -0.150681 -0.021203
v 0.603861 -0.106996 -0.016472
v 0.519786 -0.120455 -0.022911
v 0.542345 -0.116475 -0.032402
v 0.564902 -0.112494 -0.022911
v 0.522256 -0.134918 -0.022911
v 0.544814 -0.130937 -0.032402
v 0.567372 -0.126956 -0.022911
v 0.613474 -0.185635 -0.212389
v 0.594041 -0.185635 -0.212389
v 0.603814 -0.190862 -0.212389
v 0.594041 -0.174339 -0.212389
v 0.613474 -0.174339 -0.212389
v 0.603814 -0.168729 -0.212389
vn -0.5000 -0.8660 -0.0000
vn -1.0000 -0.0000 -0.0000
vn -0.5000 0.8660 -0.0000
vn 0.5000 0.8660 -0.0000
vn 1.0000 -0.0000 -0.0000
vn 0.5000 -0.8660 -0.0000
vn -0.0000 -0.0000 1.0000
vn -0.0000 -0.0000 -1.0000
vn -0.9166 0.2200 -0.3339
vn 0.0124 -0.9999 0.0083
vn -0.0012 -0.9682 0.2503
vn -0.7825 -0.5631 0.2657
vn -0.7341 -0.6776 0.0451
vn 0.7824 -0.6223 0.0231
vn 0.7990 -0.5407 0.2630
vn 0.7659 -0.6430 -0.0000
vn 0.0277 -0.9996 -0.0003
vn -0.5691 -0.8223 -0.0007
vn 0.0132 0.9376 0.3475
vn 0.0090 0.9343 0.3564
vn 0.4110 0.8510 0.3269
vn 0.2851 0.8933 0.3475
vn -0.2424 0.9028 0.3552
vn -0.3940 0.8584 0.3284
vn -0.9212 -0.3809 0.0792
vn -0.9524 -0.1703 0.2528
vn 0.9644 -0.1146 0.2382
vn 0.9646 -0.2611 0.0368
vn 0.9191 -0.3941 -0.0000
vn 0.9287 -0.3637 0.0725
vn 0.0364 0.9079 0.4176
vn -0.0901 0.9735 0.2103
vn 0.8758 -0.4827 -0.0000
vn 0.8665 -0.4776 0.1454
vn -0.5772 0.7927 0.1959
vn -0.5886 0.8084 -0.0000
vn -0.3271 0.5961 0.7333
vn 0.1806 0.1876 0.9655
vn -0.8920 -0.4453 0.0773
vn -0.3352 -0.2025 0.9201
vn -0.6439 -0.2121 0.7351
vn -0.6694 -0.2115 0.7122
vn -0.9782 -0.2077 -0.0000
vn -0.8951 -0.4353 0.0966
vn -0.9137 -0.3936 0.1010
vn 0.1937 0.8583 0.4751
vn -0.0815 0.9965 -0.0203
vn -0.6442 0.4630 -0.6088
vn -0.8166 0.5772 -0.0067
vn -0.0427 0.9990 -0.0098
vn -0.1672 0.9522 0.2558
vn -0.1708 0.9812 0.0899
vn -0.1829 0.9822 0.0430
vn -0.1835 0.9820 0.0455
vn -0.3721 -0.0780 -0.9249
vn -0.1926 -0.3779 -0.9056
vn -0.1251 0.9659 0.2266
vn -0.1638 0.9855 0.0450
vn -0.1452 0.9894 -0.0000
vn -0.1737 0.9848 -0.0000
vn 0.1678 -0.9857 -0.0186
vn 0.5544 -0.7038 -0.4441
vn 0.1608 -0.9860 -0.0444
vn -0.1738 0.9848 -0.0000
vn 0.1727 -0.9850 -0.0000
vn 0.6810 -0.7323 -0.0000
vn -0.0918 0.9958 -0.0000
vn -0.1097 0.9940 -0.0000
vn -0.0646 0.9810 0.1828
vn 0.9107 0.1555 -0.3826
vn 0.6788 0.1261 -0.7234
vn 0.9908 0.1351 -0.0000
vn -0.9107 -0.1555 -0.3826
vn -0.9879 -0.1551 -0.0000
vn -0.7214 -0.1472 -0.6767
vn -0.3773 -0.0644 -0.9238
vn 0.0300 0.0074 -0.9995
vn -0.4395 0.7657 0.4696
vn 0.8827 -0.0000 0.4699
vn 0.7303 -0.4363 0.5256
vn -0.7282 -0.4385 0.5267
vn -0.8819 -0.0000 0.4714
vn 0.0019 -0.8573 0.5148
vn 0.4432 0.7633 0.4700
vn -0.9243 0.2215 0.3109
vn 0.0106 -0.9999 -0.0083
vn -0.7307 -0.6813 -0.0438
vn -0.7813 -0.5650 -0.2653
vn -0.0022 -0.9682 -0.2501
vn 0.7824 -0.6223 -0.0231
vn 0.7990 -0.5407 -0.2630
vn 0.0121 0.9376 -0.3475
vn 0.2850 0.8933 -0.3476
vn 0.4110 0.8510 -0.3269
vn 0.0086 0.9343 -0.3564
vn -0.2452 0.9018 -0.3558
vn -0.3947 0.8583 -0.3279
vn -0.9179 -0.3892 -0.0770
vn -0.9511 -0.1765 -0.2536
vn 0.9644 -0.1146 -0.2383
vn 0.9646 -0.2611 -0.0368
vn 0.9287 -0.3636 -0.0724
vn -0.0901 0.9735 -0.2103
vn 0.0363 0.9079 -0.4176
vn 0.8665 -0.4776 -0.1454
vn -0.5772 0.7927 -0.1959
vn -0.3271 0.5961 -0.7333
vn 0.1806 0.1876 -0.9655
vn -0.9009 -0.4298 -0.0606
vn -0.3344 -0.2040 -0.9201
vn -0.6697 -0.2123 -0.7116
vn -0.6439 -0.2129 -0.7349
vn -0.8942 -0.4422 -0.0688
vn -0.9083 -0.4100 -0.0826
vn 0.1937 0.8583 -0.4751
vn -0.0032 1.0000 0.0008
vn -0.6783 0.4639 0.5698
vn -0.1690 0.9499 -0.2628
vn -0.1847 0.9815 -0.0513
vn -0.1840 0.9817 -0.0482
vn -0.1698 0.9802 -0.1015
vn -0.5354 -0.1924 0.8224
vn -0.2418 -0.4528 0.8582
vn -0.1256 0.9652 -0.2295
vn -0.1625 0.9854 -0.0510
vn 0.1592 -0.9872 -0.0087
vn 0.1400 -0.9899 -0.0209
vn 0.5545 -0.7170 0.4224
vn -0.0646 0.9811 -0.1826
vn 0.3773 0.0644 0.9238
vn 0.6788 0.1262 0.7234
vn 0.0300 0.0075 0.9995
vn 0.9107 0.1555 0.3826
vn -0.9107 -0.1555 0.3826
vn -0.7213 -0.1472 0.6768
vn -0.3773 -0.0644 0.9238
vn -0.4395 0.7657 -0.4696
vn 0.7303 -0.4363 -0.5256
vn 0.8827 -0.0000 -0.4699
vn -0.8819 -0.0000 -0.4714
vn -0.7282 -0.4385 -0.5267
vn 0.0019 -0.8573 -0.5148
vn 0.4433 0.7633 -0.4700
vn 0.3773 0.0644 -0.9238
vt 0.428458 0.136604
vt 0.423573 0.136604
vt 0.423573 0.151258
vt 0.428458 0.151258
vt 0.418688 0.136604
vt 0.418688 0.151258
vt 0.413803 0.136604
vt 0.413803 0.151258
vt 0.408918 0.136604
vt 0.408918 0.151258
vt 0.404033 0.136604
vt 0.404033 0.151258
vt 0.399148 0.136604
vt 0.399148 0.151258
vt 0.292797 0.259937
vt 0.346810 0.259359
vt 0.306545 0.283649
vt 0.333552 0.283360
vt 0.306055 0.235936
vt 0.333062 0.235647
vt 0.416107 0.145187
vt 0.402997 0.152046
vt 0.416191 0.152952
vt 0.365184 0.132749
vt 0.314995 0.131641
vt 0.316412 0.140786
vt 0.364841 0.142896
vt 0.088552 0.141993
vt 0.038974 0.142430
vt 0.037221 0.155272
vt 0.088550 0.155102
vt 0.138746 0.141030
vt 0.138768 0.155272
vt 0.416134 0.133496
vt 0.343441 0.133972
vt 0.307907 0.124251
vt 0.277556 0.147909
vt 0.340922 0.161092
vt 0.334094 0.096117
vt 0.273867 0.120805
vt 0.363589 0.161494
vt 0.313970 0.150076
vt 0.036940 0.129257
vt 0.088390 0.117079
vt 0.138669 0.068316
vt 0.130148 0.068088
vt 0.394907 0.169038
vt 0.394907 0.159816
vt 0.138638 0.052020
vt 0.117373 0.052744
vt 0.548063 0.042246
vt 0.516663 0.043293
vt 0.516663 0.052771
vt 0.550758 0.052712
vt 0.542043 0.033906
vt 0.516663 0.036666
vt 0.531346 0.025101
vt 0.516663 0.032105
vt 0.429976 0.149916
vt 0.422779 0.160454
vt 0.430333 0.175632
vt 0.445903 0.161137
vt 0.412960 0.164417
vt 0.413134 0.179713
vt 0.400016 0.165391
vt 0.402992 0.177695
vt 0.398194 0.177177
vt 0.538357 0.065157
vt 0.539809 0.065117
vt 0.544104 0.053493
vt 0.543146 0.053459
vt 0.427580 0.149290
vt 0.421470 0.158821
vt 0.533500 0.078153
vt 0.534049 0.078274
vt 0.394907 0.135913
vt 0.399639 0.133312
vt 0.371585 0.083647
vt 0.364966 0.083025
vt 0.414932 0.137238
vt 0.414774 0.133559
vt 0.375000 0.687204
vt 0.412947 0.162717
vt 0.415003 0.164061
vt 0.414790 0.154933
vt 0.394907 0.155216
vt 0.418046 0.155269
vt 0.412935 0.157418
vt 0.412586 0.134296
vt 0.412648 0.139458
vt 0.418943 0.142379
vt 0.423030 0.138129
vt 0.421106 0.149092
vt 0.304966 0.130632
vt 0.292472 0.136704
vt 0.293706 0.142518
vt 0.306714 0.142991
vt 0.023618 0.136289
vt 0.025036 0.142584
vt 0.303041 0.140362
vt 0.301460 0.144764
vt 0.023750 0.148727
vt 0.208144 0.052891
vt 0.167795 0.000672
vt 0.142846 0.012298
vt 0.154855 0.071627
vt 0.301973 0.135979
vt 0.429216 0.152045
vt 0.467096 0.132757
vt 0.467443 0.142880
vt 0.515969 0.140804
vt 0.517394 0.131641
vt 0.188942 0.141833
vt 0.188986 0.154943
vt 0.240315 0.154950
vt 0.238521 0.142113
vt 0.489231 0.130569
vt 0.493633 0.162390
vt 0.556010 0.151860
vt 0.518780 0.122688
vt 0.491612 0.094503
vt 0.551822 0.116728
vt 0.468605 0.161516
vt 0.518398 0.150113
vt 0.240514 0.128934
vt 0.189025 0.116919
vt 0.147189 0.068061
vt 0.433363 0.159480
vt 0.433363 0.168497
vt 0.159915 0.052732
vt 0.548096 0.063197
vt 0.516663 0.062263
vt 0.542102 0.071580
vt 0.516663 0.068926
vt 0.531434 0.080463
vt 0.516663 0.073529
vt 0.395462 0.150375
vt 0.379770 0.161730
vt 0.395891 0.175997
vt 0.403062 0.160607
vt 0.432171 0.165343
vt 0.429023 0.177602
vt 0.428589 0.176697
vt 0.539578 0.041500
vt 0.540625 0.041599
vt 0.404333 0.158931
vt 0.397835 0.149608
vt 0.533500 0.028949
vt 0.534082 0.028813
vt 0.433363 0.135913
vt 0.460886 0.082027
vt 0.454365 0.082931
vt 0.428408 0.133312
vt 0.433363 0.154666
vt 0.407714 0.155165
vt 0.404230 0.149280
vt 0.402203 0.138372
vt 0.406409 0.142562
vt 0.527193 0.132720
vt 0.525571 0.145097
vt 0.538574 0.144491
vt 0.539749 0.138665
vt 0.252460 0.142224
vt 0.253858 0.135924
vt 0.530942 0.144800
vt 0.529365 0.140387
vt 0.253765 0.148362
vt 0.158586 0.952400
vt 0.107586 0.927840
vt 0.089057 0.985600
vt 0.112618 0.999941
vt 0.530440 0.135995
s 1
usemtl Material.001
f 1/1/1 3/2/1 4/3/1 2/4/1
f 3/2/2 5/5/2 6/6/2 4/3/2
f 5/5/3 7/7/3 8/8/3 6/6/3
f 7/7/4 9/9/4 10/10/4 8/8/4
f 9/9/5 11/11/5 12/12/5 10/10/5
f 11/11/6 1/13/6 2/14/6 12/12/6
f 9/15/7 3/16/7 11/17/7
f 11/17/7 3/16/7 1/18/7
f 3/16/7 7/19/7 5/20/7
f 7/19/7 3/16/7 9/15/7
f 13/1/1 14/4/1 16/3/1 15/2/1
f 15/2/2 16/3/2 18/6/2 17/5/2
f 17/5/3 18/6/3 20/8/3 19/7/3
f 19/7/4 20/8/4 22/10/4 21/9/4
f 21/9/5 22/10/5 24/12/5 23/11/5
f 23/11/6 24/12/6 14/14/6 13/13/6
f 21/15/8 23/17/8 15/16/8
f 23/17/8 13/18/8 15/16/8
f 15/16/8 17/20/8 19/19/8
f 19/19/8 21/15/8 15/16/8
f 27/21/9 32/22/9 31/23/9
f 35/24/10 29/25/11 26/26/12 34/27/13
f 33/28/14 25/29/15 29/30/11 35/31/10
f 28/32/16 33/28/14 35/31/10 30/33/17
f 30/34/17 35/24/10 34/27/13 27/21/18
f 41/35/19 38/36/20 37/37/21 40/38/22
f 39/39/23 36/40/24 38/36/20 41/35/19
f 39/41/25 34/27/13 26/26/12 36/42/26
f 37/43/27 25/29/15 33/28/14 40/44/28
f 28/32/16 42/45/29 43/46/30
f 28/32/16 43/46/30 40/44/28 33/28/14
f 41/35/19 52/47/31 45/48/32
f 42/45/29 48/49/33 49/50/34 43/46/30
f 45/51/35 50/52/35 51/53/36 47/54/36
f 52/55/37 53/56/37 50/52/37 45/51/37
f 43/57/38 49/58/38 53/56/38 52/55/38
f 34/27/13 32/22/39 27/21/18
f 55/59/40 54/60/41 57/61/42 56/62/40
f 54/60/41 58/63/43 59/64/43 57/61/42
f 32/22/39 39/41/25 56/65/44
f 55/66/45 56/65/44 39/41/25
f 40/38/22 43/67/46 52/47/31 41/35/19
f 32/68/47 61/69/48 60/70/49 31/71/50
f 55/59/51 70/72/52 68/73/53 54/60/54
f 56/74/55 62/75/56 61/69/48 32/68/55
f 44/76/57 71/77/58 70/78/52 55/79/51
f 46/80/59 69/81/60 71/77/58 44/76/57
f 57/82/61 63/82/62 62/82/56 56/82/63
f 54/60/54 68/73/53 67/83/64 58/63/64
f 59/82/65 64/82/66 63/82/62 57/82/61
f 45/48/32 47/84/67 65/85/68 66/86/69
f 45/48/32 66/86/69 41/35/19
f 41/35/19 44/76/57 55/79/51 39/39/23
f 41/35/19 66/86/69 44/76/57
f 65/85/68 46/80/59 44/76/57 66/86/69
f 68/73/70 73/87/71 72/88/72 67/83/70
f 69/89/73 74/90/74 76/91/75 71/92/73
f 71/92/76 76/91/75 75/93/77 70/72/76
f 36/94/24 80/95/78 82/96/78 38/97/20
f 37/43/27 81/98/79 77/99/80 25/29/15
f 26/26/12 78/100/81 80/101/82 36/42/26
f 25/29/15 77/99/80 79/102/83 29/30/11
f 38/103/20 82/104/84 81/105/84 37/106/21
f 29/25/11 79/107/83 78/100/81 26/26/12
f 27/21/85 31/23/85 86/108/85
f 89/109/86 88/110/87 84/111/88 85/112/89
f 87/113/90 89/114/86 85/115/89 83/116/91
f 28/32/16 30/33/17 89/114/86 87/113/90
f 30/34/17 27/21/18 88/110/87 89/109/86
f 95/117/92 94/118/93 91/119/94 92/120/95
f 93/121/96 95/117/92 92/120/95 90/122/97
f 93/123/98 90/124/99 84/111/88 88/110/87
f 91/125/100 94/126/101 87/113/90 83/116/91
f 28/32/16 96/127/102 42/45/29
f 28/32/16 87/113/90 94/126/101 96/127/102
f 95/117/92 98/128/103 101/129/104
f 42/45/29 96/127/102 99/130/105 48/49/33
f 98/131/106 47/54/36 51/53/36 100/132/106
f 101/133/107 98/131/107 100/132/107 102/134/107
f 96/135/108 101/133/108 102/134/108 99/136/108
f 88/110/87 27/21/18 86/108/109
f 104/137/110 105/138/110 106/139/111 103/140/112
f 103/140/112 106/139/111 59/64/43 58/63/43
f 88/110/87 105/141/113 93/123/98
f 104/142/114 93/123/98 105/141/113
f 94/118/93 95/117/92 101/129/104 96/143/115
f 86/144/116 31/71/50 60/70/49 107/145/117
f 104/137/118 103/140/119 111/146/120 112/147/121
f 105/148/122 86/144/122 107/145/117 108/149/123
f 97/150/124 104/151/118 112/152/121 113/153/125
f 46/80/59 97/150/124 113/153/125 69/81/60
f 106/82/126 105/82/127 108/82/123 109/82/128
f 103/140/119 58/63/64 67/83/64 111/146/120
f 59/82/65 106/82/126 109/82/128 64/82/66
f 98/128/103 110/154/129 65/85/68 47/84/67
f 98/128/103 95/117/92 110/154/129
f 95/117/92 93/121/96 104/151/118 97/150/124
f 95/117/92 97/150/124 110/154/129
f 65/85/68 110/154/129 97/150/124 46/80/59
f 112/147/130 111/146/130 114/155/131 115/156/132
f 111/146/133 67/83/133 72/88/72 114/155/131
f 69/89/134 113/157/134 116/158/135 74/90/74
f 113/157/136 112/147/136 115/156/132 116/158/135
f 90/159/97 92/160/95 122/161/137 120/162/137
f 91/125/100 83/116/91 117/163/138 121/164/139
f 84/111/88 90/124/99 120/165/140 118/166/141
f 83/116/91 85/115/89 119/167/142 117/163/138
f 92/168/95 91/169/94 121/170/143 122/171/143
f 85/112/89 84/111/88 118/166/141 119/172/142
f 34/27/13 39/41/25 32/22/39
f 86/108/109 105/141/113 88/110/87
f 63/82/62 64/82/66 72/88/72 73/87/71
f 70/72/144 75/93/77 73/87/71 68/73/144
f 62/82/56 63/82/62 73/87/71 75/93/77
f 109/82/128 114/155/131 72/88/72 64/82/66
f 114/155/131 109/82/128 108/82/123 115/156/132
f 107/145/117 116/158/135 115/156/132 108/82/123
f 75/93/77 76/91/75 61/69/48 62/82/56
f 76/91/75 74/90/74 60/70/49 61/69/48
f 116/158/135 107/145/117 60/70/49 74/90/74
