# Blender 4.4.0
# www.blender.org
mtllib trucks1.mtl
o TRUCKS1
v -0.553576 -0.197000 0.301551
v -0.553576 -0.197000 0.270484
v -0.539862 -0.189082 0.301551
v -0.539862 -0.189082 0.270484
v -0.539862 -0.173247 0.301551
v -0.539862 -0.173247 0.270484
v -0.553576 -0.165330 0.301551
v -0.553576 -0.165330 0.270484
v -0.567289 -0.173247 0.301551
v -0.567289 -0.173247 0.270484
v -0.567289 -0.189082 0.301551
v -0.567289 -0.189082 0.270484
v -0.553576 -0.197000 -0.299318
v -0.553576 -0.197000 -0.268250
v -0.539862 -0.189082 -0.299318
v -0.539862 -0.189082 -0.268250
v -0.539862 -0.173248 -0.299318
v -0.539862 -0.173247 -0.268250
v -0.553576 -0.165330 -0.299318
v -0.553576 -0.165330 -0.268250
v -0.567289 -0.173248 -0.299318
v -0.567289 -0.173247 -0.268250
v -0.567289 -0.189082 -0.299318
v -0.567289 -0.189082 -0.268250
v -0.577444 -0.192680 0.189919
v -0.534040 -0.192680 0.189919
v -0.528043 -0.194826 -0.000011
v -0.579966 -0.192680 0.000000
v -0.555869 -0.204355 0.189919
v -0.555869 -0.204355 0.000000
v -0.532509 -0.176206 0.000000
v -0.521629 -0.176688 0.029540
v -0.577395 -0.192680 0.094002
v -0.534236 -0.192021 0.093892
v -0.555869 -0.204355 0.094002
v -0.534040 -0.167450 0.189919
v -0.577444 -0.167450 0.189919
v -0.555869 -0.154922 0.189919
v -0.513524 -0.149261 0.094021
v -0.591306 -0.148367 0.094002
v -0.555869 -0.137275 0.094002
v -0.607734 -0.106421 0.000000
v -0.607269 -0.105617 0.015860
v -0.520483 -0.111863 0.026539
v -0.573541 -0.105063 0.011819
v -0.531306 -0.109953 0.000000
v -0.568616 -0.106244 0.000000
v -0.623725 -0.080593 0.000000
v -0.620912 -0.080446 0.006801
v -0.607329 -0.079734 0.006801
v -0.604516 -0.079587 0.000000
v -0.586237 -0.105206 0.018099
v -0.614120 -0.080090 0.009618
v -0.468223 -0.121086 0.026539
v -0.493551 -0.117467 0.037280
v -0.505736 -0.146431 0.034627
v -0.473777 -0.151065 0.022682
v -0.457400 -0.122995 0.000000
v -0.462810 -0.152986 0.000000
v -0.534895 -0.176206 0.000000
v -0.525209 -0.176206 0.029304
v -0.506005 -0.146285 0.033262
v -0.475964 -0.150681 0.021203
v -0.465708 -0.152479 0.000000
v -0.555869 -0.106996 0.000000
v -0.555869 -0.106996 0.016472
v -0.462451 -0.122104 0.000000
v -0.471795 -0.120455 0.022911
v -0.526255 -0.110845 0.000000
v -0.494353 -0.116475 0.032402
v -0.516911 -0.112494 0.022911
v -0.464920 -0.136567 0.000000
v -0.474264 -0.134918 0.022911
v -0.528724 -0.125307 0.000000
v -0.496822 -0.130937 0.032402
v -0.519380 -0.126956 0.022911
v -0.565482 -0.185635 0.212389
v -0.546049 -0.185635 0.212389
v -0.555823 -0.190862 0.212389
v -0.546049 -0.174338 0.212389
v -0.565482 -0.174338 0.212389
v -0.555823 -0.168729 0.212389
v -0.577444 -0.192680 -0.189919
v -0.534040 -0.192680 -0.189919
v -0.555869 -0.204355 -0.189919
v -0.522594 -0.176221 -0.029461
v -0.577395 -0.192680 -0.094001
v -0.534407 -0.191905 -0.093909
v -0.555869 -0.204355 -0.094001
v -0.534040 -0.167450 -0.189919
v -0.577444 -0.167450 -0.189919
v -0.555870 -0.154922 -0.189919
v -0.512996 -0.149571 -0.094012
v -0.591306 -0.148367 -0.094001
v -0.555869 -0.137275 -0.094001
v -0.607269 -0.105617 -0.015860
v -0.520483 -0.111864 -0.026539
v -0.573541 -0.105063 -0.011819
v -0.620912 -0.080446 -0.006801
v -0.607329 -0.079734 -0.006801
v -0.586237 -0.105206 -0.018099
v -0.614120 -0.080090 -0.009618
v -0.468223 -0.121086 -0.026539
v -0.493404 -0.117598 -0.037235
v -0.506058 -0.146139 -0.034736
v -0.473777 -0.151065 -0.022682
v -0.525209 -0.176206 -0.029304
v -0.506005 -0.146285 -0.033256
v -0.475964 -0.150681 -0.021203
v -0.555869 -0.106996 -0.016472
v -0.471795 -0.120455 -0.022911
v -0.494353 -0.116475 -0.032402
v -0.516911 -0.112494 -0.022911
v -0.474264 -0.134918 -0.022911
v -0.496822 -0.130937 -0.032402
v -0.519380 -0.126956 -0.022911
v -0.565482 -0.185635 -0.212389
v -0.546049 -0.185635 -0.212389
v -0.555823 -0.190862 -0.212389
v -0.546049 -0.174339 -0.212389
v -0.565482 -0.174339 -0.212389
v -0.555823 -0.168729 -0.212389
vn 0.5000 -0.8660 -0.0000
vn 1.0000 -0.0000 -0.0000
vn 0.5000 0.8660 -0.0000
vn -0.5000 0.8660 -0.0000
vn -1.0000 -0.0000 -0.0000
vn -0.5000 -0.8660 -0.0000
vn -0.0000 -0.0000 1.0000
vn -0.0000 -0.0000 -1.0000
vn 0.9165 0.2200 -0.3340
vn -0.0124 -0.9999 0.0083
vn 0.7341 -0.6776 0.0451
vn 0.7825 -0.5631 0.2657
vn 0.0012 -0.9682 0.2502
vn -0.7824 -0.6224 0.0231
vn -0.7990 -0.5407 0.2630
vn -0.7659 -0.6430 -0.0000
vn -0.0277 -0.9996 -0.0003
vn 0.5691 -0.8223 -0.0007
vn -0.0133 0.9376 0.3476
vn -0.2851 0.8933 0.3475
vn -0.4110 0.8510 0.3269
vn -0.0090 0.9343 0.3563
vn 0.2424 0.9028 0.3552
vn 0.3940 0.8584 0.3284
vn 0.9212 -0.3810 0.0793
vn 0.9524 -0.1703 0.2528
vn -0.9644 -0.1146 0.2382
vn -0.9646 -0.2611 0.0368
vn -0.9287 -0.3637 0.0725
vn -0.9191 -0.3941 -0.0000
vn 0.0901 0.9735 0.2104
vn -0.0363 0.9079 0.4176
vn -0.8664 -0.4776 0.1454
vn -0.8757 -0.4828 -0.0000
vn 0.5773 0.7927 0.1959
vn 0.5887 0.8084 -0.0000
vn 0.3271 0.5961 0.7333
vn -0.1806 0.1876 0.9655
vn 0.8920 -0.4453 0.0773
vn 0.3352 -0.2025 0.9201
vn 0.6694 -0.2115 0.7122
vn 0.6439 -0.2121 0.7351
vn 0.9782 -0.2077 -0.0000
vn 0.8951 -0.4353 0.0966
vn 0.9137 -0.3936 0.1011
vn -0.1937 0.8583 0.4751
vn 0.0813 0.9965 -0.0203
vn 0.0425 0.9990 -0.0098
vn 0.8166 0.5772 -0.0067
vn 0.6442 0.4631 -0.6088
vn 0.1672 0.9522 0.2558
vn 0.1835 0.9820 0.0456
vn 0.1830 0.9822 0.0432
vn 0.1708 0.9812 0.0899
vn 0.3720 -0.0779 -0.9249
vn 0.1923 -0.3779 -0.9057
vn 0.1251 0.9659 0.2267
vn 0.1638 0.9855 0.0449
vn 0.1449 0.9894 -0.0000
vn 0.1739 0.9848 -0.0000
vn -0.1678 -0.9857 -0.0184
vn -0.1609 -0.9860 -0.0448
vn -0.5544 -0.7032 -0.4452
vn 0.1738 0.9848 -0.0000
vn -0.1726 -0.9850 -0.0000
vn -0.6810 -0.7323 -0.0000
vn 0.0646 0.9810 0.1828
vn 0.1096 0.9940 -0.0000
vn 0.0918 0.9958 -0.0000
vn -0.3773 0.0644 -0.9238
vn -0.6788 0.1262 -0.7234
vn -0.0300 0.0074 -0.9995
vn -0.9107 0.1555 -0.3826
vn -0.9908 0.1351 -0.0000
vn 0.9107 -0.1555 -0.3826
vn 0.7230 -0.1380 -0.6769
vn 0.9194 -0.2140 0.3301
vn 0.3773 -0.0644 -0.9238
vn 0.4395 0.7657 0.4696
vn -0.7303 -0.4364 0.5256
vn -0.8827 -0.0000 0.4699
vn 0.8819 -0.0000 0.4714
vn 0.7282 -0.4385 0.5267
vn -0.0019 -0.8573 0.5148
vn -0.4433 0.7633 0.4700
vn 0.9243 0.2215 0.3109
vn -0.0106 -0.9999 -0.0083
vn 0.0022 -0.9682 -0.2501
vn 0.7813 -0.5650 -0.2652
vn 0.7307 -0.6813 -0.0438
vn -0.7824 -0.6224 -0.0231
vn -0.7990 -0.5407 -0.2630
vn -0.0122 0.9374 -0.3480
vn -0.0086 0.9343 -0.3563
vn -0.4110 0.8510 -0.3269
vn -0.2851 0.8933 -0.3475
vn 0.2452 0.9018 -0.3558
vn 0.3947 0.8583 -0.3279
vn 0.9179 -0.3892 -0.0770
vn 0.9511 -0.1765 -0.2536
vn -0.9644 -0.1146 -0.2382
vn -0.9647 -0.2608 -0.0369
vn -0.9287 -0.3637 -0.0725
vn -0.0363 0.9079 -0.4176
vn 0.0901 0.9735 -0.2104
vn -0.8664 -0.4776 -0.1454
vn 0.5773 0.7927 -0.1959
vn 0.3271 0.5961 -0.7333
vn -0.1806 0.1876 -0.9655
vn 0.9009 -0.4299 -0.0605
vn 0.3344 -0.2040 -0.9201
vn 0.6439 -0.2129 -0.7349
vn 0.6697 -0.2123 -0.7116
vn 0.8944 -0.4419 -0.0691
vn 0.9084 -0.4100 -0.0826
vn -0.1937 0.8583 -0.4751
vn 0.0030 1.0000 0.0008
vn 0.6782 0.4640 0.5698
vn 0.1690 0.9499 -0.2629
vn 0.1698 0.9802 -0.1015
vn 0.1840 0.9817 -0.0482
vn 0.1847 0.9815 -0.0512
vn 0.5353 -0.1924 0.8224
vn 0.2418 -0.4528 0.8582
vn 0.1255 0.9652 -0.2296
vn 0.1625 0.9854 -0.0509
vn -0.1590 -0.9872 -0.0089
vn -0.5550 -0.7168 0.4220
vn -0.1399 -0.9899 -0.0212
vn 0.0646 0.9810 -0.1828
vn -0.3773 0.0644 0.9238
vn -0.0300 0.0075 0.9995
vn -0.6788 0.1262 0.7234
vn -0.9107 0.1555 0.3826
vn 0.9107 -0.1555 0.3826
vn 0.7230 -0.1381 0.6769
vn 0.3773 -0.0644 0.9238
vn 0.4395 0.7657 -0.4696
vn -0.8827 -0.0000 -0.4699
vn -0.7303 -0.4364 -0.5256
vn 0.7282 -0.4385 -0.5267
vn 0.8819 -0.0000 -0.4714
vn -0.0019 -0.8573 -0.5148
vn -0.4433 0.7633 -0.4700
vt 0.428458 0.136604
vt 0.428458 0.151258
vt 0.423573 0.151258
vt 0.423573 0.136604
vt 0.418688 0.151258
vt 0.418688 0.136604
vt 0.413803 0.151258
vt 0.413803 0.136604
vt 0.408918 0.151258
vt 0.408918 0.136604
vt 0.404033 0.151258
vt 0.404033 0.136604
vt 0.399148 0.151258
vt 0.399148 0.136604
vt 0.292797 0.259937
vt 0.306545 0.283649
vt 0.346810 0.259359
vt 0.333552 0.283360
vt 0.333062 0.235647
vt 0.306055 0.235936
vt 0.416107 0.145187
vt 0.416191 0.152952
vt 0.402997 0.152046
vt 0.365184 0.132749
vt 0.364841 0.142896
vt 0.316412 0.140786
vt 0.314995 0.131641
vt 0.088552 0.141993
vt 0.088550 0.155102
vt 0.037221 0.155272
vt 0.038974 0.142430
vt 0.138746 0.141030
vt 0.138768 0.155272
vt 0.416134 0.133496
vt 0.343441 0.133972
vt 0.340922 0.161092
vt 0.277556 0.147909
vt 0.307907 0.124251
vt 0.334094 0.096117
vt 0.273867 0.120805
vt 0.363589 0.161494
vt 0.313970 0.150076
vt 0.036940 0.129257
vt 0.088390 0.117079
vt 0.130148 0.068088
vt 0.138669 0.068316
vt 0.394907 0.159816
vt 0.394907 0.169038
vt 0.117373 0.052744
vt 0.138638 0.052020
vt 0.548063 0.042246
vt 0.550758 0.052712
vt 0.516663 0.052771
vt 0.516663 0.043293
vt 0.542043 0.033906
vt 0.516663 0.036666
vt 0.531346 0.025101
vt 0.516663 0.032105
vt 0.429976 0.149916
vt 0.445903 0.161137
vt 0.430333 0.175632
vt 0.422779 0.160454
vt 0.413134 0.179713
vt 0.412960 0.164417
vt 0.400016 0.165391
vt 0.402992 0.177695
vt 0.398194 0.177177
vt 0.538357 0.065157
vt 0.543146 0.053459
vt 0.544104 0.053493
vt 0.539809 0.065117
vt 0.421470 0.158821
vt 0.427580 0.149290
vt 0.533500 0.078153
vt 0.534049 0.078274
vt 0.394907 0.135913
vt 0.364966 0.083025
vt 0.371585 0.083647
vt 0.399639 0.133312
vt 0.414932 0.137238
vt 0.414774 0.133559
vt 0.375000 0.687204
vt 0.412947 0.162717
vt 0.394907 0.155216
vt 0.414790 0.154933
vt 0.415003 0.164061
vt 0.418046 0.155269
vt 0.421106 0.149092
vt 0.412935 0.157418
vt 0.412586 0.134296
vt 0.423030 0.138129
vt 0.418943 0.142379
vt 0.412648 0.139458
vt 0.304966 0.130632
vt 0.306714 0.142991
vt 0.293706 0.142518
vt 0.292472 0.136704
vt 0.025036 0.142584
vt 0.023618 0.136289
vt 0.301460 0.144764
vt 0.303041 0.140362
vt 0.023750 0.148727
vt 0.208144 0.052891
vt 0.154855 0.071627
vt 0.142846 0.012298
vt 0.167795 0.000672
vt 0.301973 0.135979
vt 0.429216 0.152045
vt 0.467096 0.132757
vt 0.517394 0.131641
vt 0.515969 0.140804
vt 0.467443 0.142880
vt 0.188942 0.141833
vt 0.238521 0.142113
vt 0.240315 0.154950
vt 0.188986 0.154943
vt 0.489231 0.130569
vt 0.518780 0.122688
vt 0.556010 0.151860
vt 0.493633 0.162390
vt 0.491612 0.094503
vt 0.551822 0.116728
vt 0.468605 0.161516
vt 0.518398 0.150113
vt 0.240514 0.128934
vt 0.189025 0.116919
vt 0.147189 0.068061
vt 0.433363 0.168497
vt 0.433363 0.159480
vt 0.159915 0.052732
vt 0.548096 0.063197
vt 0.516663 0.062263
vt 0.542102 0.071580
vt 0.516663 0.068926
vt 0.531434 0.080463
vt 0.516663 0.073529
vt 0.395462 0.150375
vt 0.403062 0.160607
vt 0.395891 0.175997
vt 0.379770 0.161730
vt 0.432171 0.165343
vt 0.429023 0.177602
vt 0.428589 0.176697
vt 0.539578 0.041500
vt 0.540625 0.041599
vt 0.397835 0.149608
vt 0.404333 0.158931
vt 0.533500 0.028949
vt 0.534082 0.028813
vt 0.433363 0.135913
vt 0.428408 0.133312
vt 0.454365 0.082931
vt 0.460886 0.082027
vt 0.433363 0.154666
vt 0.404230 0.149280
vt 0.407714 0.155165
vt 0.406409 0.142562
vt 0.402203 0.138372
vt 0.527193 0.132720
vt 0.539749 0.138665
vt 0.538574 0.144491
vt 0.525571 0.145097
vt 0.253858 0.135924
vt 0.252460 0.142224
vt 0.529365 0.140387
vt 0.530942 0.144800
vt 0.253765 0.148362
vt 0.158586 0.952400
vt 0.112618 0.999941
vt 0.089057 0.985600
vt 0.107586 0.927840
vt 0.530440 0.135995
s 1
usemtl Material.001
f 1/1/1 2/2/1 4/3/1 3/4/1
f 3/4/2 4/3/2 6/5/2 5/6/2
f 5/6/3 6/5/3 8/7/3 7/8/3
f 7/8/4 8/7/4 10/9/4 9/10/4
f 9/10/5 10/9/5 12/11/5 11/12/5
f 11/12/6 12/11/6 2/13/6 1/14/6
f 9/15/7 11/16/7 3/17/7
f 11/16/7 1/18/7 3/17/7
f 3/17/7 5/19/7 7/20/7
f 7/20/7 9/15/7 3/17/7
f 13/1/1 15/4/1 16/3/1 14/2/1
f 15/4/2 17/6/2 18/5/2 16/3/2
f 17/6/3 19/8/3 20/7/3 18/5/3
f 19/8/4 21/10/4 22/9/4 20/7/4
f 21/10/5 23/12/5 24/11/5 22/9/5
f 23/12/6 13/14/6 14/13/6 24/11/6
f 21/15/8 15/17/8 23/16/8
f 23/16/8 15/17/8 13/18/8
f 15/17/8 19/20/8 17/19/8
f 19/20/8 15/17/8 21/15/8
f 27/21/9 31/22/9 32/23/9
f 35/24/10 34/25/11 26/26/12 29/27/13
f 33/28/14 35/29/10 29/30/13 25/31/15
f 28/32/16 30/33/17 35/29/10 33/28/14
f 30/34/17 27/21/18 34/25/11 35/24/10
f 41/35/19 40/36/20 37/37/21 38/38/22
f 39/39/23 41/35/19 38/38/22 36/40/24
f 39/41/25 36/42/26 26/26/12 34/25/11
f 37/43/27 40/44/28 33/28/14 25/31/15
f 28/32/16 43/45/29 42/46/30
f 28/32/16 33/28/14 40/44/28 43/45/29
f 41/35/19 45/47/31 52/48/32
f 42/46/30 43/45/29 49/49/33 48/50/34
f 45/51/35 47/52/36 51/53/36 50/54/35
f 52/55/37 45/51/37 50/54/37 53/56/37
f 43/57/38 52/55/38 53/56/38 49/58/38
f 34/25/11 27/21/18 32/23/39
f 55/59/40 56/60/40 57/61/41 54/62/42
f 54/62/42 57/61/41 59/63/43 58/64/43
f 32/23/39 56/65/44 39/41/25
f 55/66/45 39/41/25 56/65/44
f 40/36/20 41/35/19 52/48/32 43/67/46
f 32/68/47 31/69/48 60/70/49 61/71/50
f 55/59/51 54/62/52 68/72/53 70/73/54
f 56/74/55 32/68/55 61/71/50 62/75/56
f 44/76/57 55/77/51 70/78/54 71/79/58
f 46/80/59 44/76/57 71/79/58 69/81/60
f 57/82/61 56/82/62 62/82/56 63/82/63
f 54/62/52 58/64/64 67/83/64 68/72/53
f 59/82/65 57/82/61 63/82/63 64/82/66
f 45/47/31 66/84/67 65/85/68 47/86/69
f 45/47/31 41/35/19 66/84/67
f 41/35/19 39/39/23 55/77/51 44/76/57
f 41/35/19 44/76/57 66/84/67
f 65/85/68 66/84/67 44/76/57 46/80/59
f 70/73/70 68/72/70 73/87/71 75/88/72
f 68/72/73 67/83/73 72/89/74 73/87/71
f 69/90/75 71/91/75 76/92/76 74/93/77
f 71/91/78 70/73/78 75/88/72 76/92/76
f 36/94/24 38/95/22 82/96/79 80/97/79
f 37/43/27 25/31/15 77/98/80 81/99/81
f 26/26/12 36/42/26 80/100/82 78/101/83
f 25/31/15 29/30/13 79/102/84 77/98/80
f 38/103/22 37/104/21 81/105/85 82/106/85
f 29/27/13 26/26/12 78/101/83 79/107/84
f 27/21/86 86/108/86 31/22/86
f 89/109/87 85/110/88 84/111/89 88/112/90
f 87/113/91 83/114/92 85/115/88 89/116/87
f 28/32/16 87/113/91 89/116/87 30/33/17
f 30/34/17 89/109/87 88/112/90 27/21/18
f 95/117/93 92/118/94 91/119/95 94/120/96
f 93/121/97 90/122/98 92/118/94 95/117/93
f 93/123/99 88/112/90 84/111/89 90/124/100
f 91/125/101 83/114/92 87/113/91 94/126/102
f 28/32/16 42/46/30 96/127/103
f 28/32/16 96/127/103 94/126/102 87/113/91
f 95/117/93 101/128/104 98/129/105
f 42/46/30 48/50/34 99/130/106 96/127/103
f 98/131/107 100/132/107 51/53/36 47/52/36
f 101/133/108 102/134/108 100/132/108 98/131/108
f 96/135/109 99/136/109 102/134/109 101/133/109
f 88/112/90 86/108/110 27/21/18
f 104/137/111 103/138/112 106/139/113 105/140/111
f 103/138/112 58/64/43 59/63/43 106/139/113
f 88/112/90 93/123/99 105/141/114
f 104/142/115 105/141/114 93/123/99
f 94/120/96 96/143/116 101/128/104 95/117/93
f 86/144/117 107/145/118 60/70/49 31/69/48
f 104/137/119 112/146/120 111/147/121 103/138/122
f 105/148/123 108/149/124 107/145/118 86/144/123
f 97/150/125 113/151/126 112/152/120 104/153/119
f 46/80/59 69/81/60 113/151/126 97/150/125
f 106/82/127 109/82/128 108/82/124 105/82/129
f 103/138/122 111/147/121 67/83/64 58/64/64
f 59/82/65 64/82/66 109/82/128 106/82/127
f 98/129/105 47/86/69 65/85/68 110/154/130
f 98/129/105 110/154/130 95/117/93
f 95/117/93 97/150/125 104/153/119 93/121/97
f 95/117/93 110/154/130 97/150/125
f 65/85/68 46/80/59 97/150/125 110/154/130
f 112/146/131 115/155/132 114/156/133 111/147/131
f 111/147/134 114/156/133 72/89/74 67/83/134
f 69/90/135 74/93/77 116/157/136 113/158/135
f 113/158/137 116/157/136 115/155/132 112/146/137
f 90/159/98 120/160/138 122/161/138 92/162/94
f 91/125/101 121/163/139 117/164/140 83/114/92
f 84/111/89 118/165/141 120/166/142 90/124/100
f 83/114/92 117/164/140 119/167/143 85/115/88
f 92/168/94 122/169/144 121/170/144 91/171/95
f 85/110/88 119/172/143 118/165/141 84/111/89
f 34/25/11 32/23/39 39/41/25
f 86/108/110 88/112/90 105/141/114
f 63/82/63 73/87/71 72/89/74 64/82/66
f 109/82/128 64/82/66 72/89/74 114/156/133
f 73/87/71 63/82/63 62/82/56 75/88/72
f 75/88/72 62/82/56 61/71/50 76/92/76
f 114/156/133 115/155/132 108/82/124 109/82/128
f 107/145/118 108/82/124 115/155/132 116/157/136
f 76/92/76 61/71/50 60/70/49 74/93/77
f 116/157/136 74/93/77 60/70/49 107/145/118
