# Blender 4.4.0
# www.blender.org
mtllib wheel1.mtl
o WHEEL1
v 0.070920 -0.040946 -0.022474
v 0.081892 0.000000 -0.022474
v 0.070920 0.040945 -0.022474
v 0.040946 0.070920 -0.022474
v -0.040945 0.070920 -0.022474
v -0.070920 0.040945 -0.022474
v -0.081891 0.000000 -0.022474
v -0.070920 -0.040946 -0.022474
v -0.040945 -0.070920 -0.022474
v -0.000000 -0.082539 0.035874
v 0.041270 -0.071481 0.035874
v 0.071481 -0.041269 0.035874
v 0.082539 0.000000 0.035874
v 0.071481 0.041269 0.035874
v 0.041270 0.071480 0.035874
v -0.000000 0.082538 0.035874
v -0.041269 0.071480 0.035874
v -0.071480 0.041269 0.035874
v -0.082538 0.000000 0.035874
v -0.071480 -0.041269 0.035874
v -0.041269 -0.071481 0.035874
v 0.037564 0.065062 -0.032535
v 0.033203 0.057509 -0.037749
v 0.065062 0.037563 -0.032535
v 0.057509 0.033203 -0.037749
v 0.075127 0.000000 -0.032535
v 0.066406 0.000000 -0.037749
v -0.037563 -0.065062 -0.032535
v -0.033202 -0.057509 -0.037749
v 0.065062 -0.037564 -0.032535
v 0.057509 -0.033203 -0.037749
v -0.065061 -0.037564 -0.032535
v -0.057508 -0.033203 -0.037749
v -0.075126 0.000000 -0.032535
v -0.066405 0.000000 -0.037749
v -0.065061 0.037563 -0.032535
v -0.057508 0.033203 -0.037749
v -0.037563 0.065062 -0.032535
v -0.033202 0.057509 -0.037749
v -0.000000 -0.053747 -0.038258
v -0.000000 -0.041504 -0.026030
v -0.000000 -0.066014 0.056475
v -0.038175 -0.065979 0.048918
v -0.042221 -0.073129 0.008122
v -0.073129 -0.042221 0.008122
v -0.084442 0.000000 0.008122
v -0.073129 0.042221 0.008121
v -0.042221 0.073129 0.008121
v -0.000000 0.084442 0.008121
v 0.042222 0.073129 0.008121
v 0.073130 0.042221 0.008122
v 0.084443 0.000000 0.008122
v 0.073130 -0.042221 0.008122
v 0.042222 -0.073129 0.008122
v -0.000000 -0.084443 0.008122
v -0.000000 0.081891 -0.022474
v -0.000000 -0.081891 -0.022474
v 0.040946 -0.070920 -0.022474
v -0.000000 0.075127 -0.032535
v -0.000000 -0.075127 -0.032535
v 0.037564 -0.065062 -0.032535
v 0.026874 -0.046546 -0.038258
v -0.000000 0.053746 -0.038258
v 0.020753 -0.036026 -0.026085
v 0.035735 -0.020873 -0.026030
v 0.041263 0.000000 -0.026030
v 0.035735 0.020872 -0.026030
v 0.020753 0.036025 -0.026085
v -0.000000 0.041504 -0.026030
v -0.020752 0.036025 -0.026085
v -0.035734 0.020872 -0.026030
v -0.041262 0.000000 -0.026030
v -0.035734 -0.020873 -0.026030
v -0.020752 -0.036026 -0.026085
v -0.046545 -0.026873 -0.038258
v -0.026873 0.046546 -0.038258
v 0.046546 0.026873 -0.038258
v 0.033203 -0.057509 -0.037749
v -0.053746 0.000000 -0.038258
v 0.053747 0.000000 -0.038258
v -0.000000 -0.066406 -0.037749
v -0.026873 -0.046546 -0.038258
v -0.046545 0.026873 -0.038258
v 0.026874 0.046546 -0.038258
v 0.046546 -0.026873 -0.038258
v -0.000000 0.066405 -0.037749
v 0.033762 -0.058963 0.056304
v 0.053496 -0.035903 0.056475
v 0.061754 0.000000 0.056475
v 0.053496 0.035902 0.056475
v 0.033762 0.058963 0.056304
v -0.000000 0.066014 0.056475
v -0.033761 0.058963 0.056304
v -0.053495 0.035902 0.056475
v -0.061753 0.000000 0.056475
v -0.053495 -0.035903 0.056475
v -0.033761 -0.058963 0.056304
v -0.000000 -0.076155 0.048918
v 0.038175 -0.065979 0.048918
v 0.065894 -0.038253 0.048918
v 0.076085 0.000000 0.048918
v 0.065894 0.038252 0.048918
v 0.038175 0.065979 0.048918
v -0.000000 0.076155 0.048918
v -0.038175 0.065979 0.048918
v -0.065893 0.038252 0.048918
v -0.076084 0.000000 0.048918
v -0.065893 -0.038253 0.048918
v -0.000000 -0.024047 -0.025922
v -0.000000 0.000000 -0.025905
v -0.000000 0.024046 -0.025922
v -0.000000 -0.041488 0.056807
v -0.000000 0.000000 0.056882
v -0.000000 0.041488 0.056807
vn 0.9470 -0.0000 -0.3212
vn 1.0000 -0.0000 -0.0073
vn 0.8660 -0.5000 -0.0073
vn 0.8201 -0.4735 -0.3212
vn 0.8201 0.4735 -0.3212
vn 0.8660 0.5000 -0.0073
vn 0.4735 0.8201 -0.3212
vn 0.5000 0.8660 -0.0073
vn -0.0000 0.9470 -0.3211
vn -0.0000 1.0000 -0.0073
vn -0.4735 0.8201 -0.3212
vn -0.5000 0.8660 -0.0073
vn -0.8201 0.4735 -0.3212
vn -0.8660 0.5000 -0.0073
vn -0.9470 -0.0000 -0.3212
vn -1.0000 -0.0000 -0.0072
vn -0.8201 -0.4735 -0.3212
vn -0.8660 -0.5000 -0.0073
vn -0.4735 -0.8202 -0.3211
vn -0.5000 -0.8660 -0.0073
vn -0.0000 -0.9470 -0.3212
vn -0.0000 -1.0000 -0.0073
vn 0.4735 -0.8201 -0.3212
vn 0.5000 -0.8660 -0.0073
vn 0.4837 -0.8385 0.2507
vn -0.0000 -0.9678 0.2515
vn -0.4837 -0.8386 0.2507
vn -0.3520 0.6098 -0.7101
vn -0.0000 0.7041 -0.7101
vn -0.0000 0.3203 -0.9473
vn -0.1602 0.2774 -0.9473
vn -0.0000 -0.3016 -0.9534
vn 0.1507 -0.2606 -0.9536
vn -0.6098 0.3520 -0.7101
vn -0.2774 0.1602 -0.9473
vn 0.2597 -0.1489 -0.9541
vn -0.7041 -0.0000 -0.7101
vn -0.3203 -0.0000 -0.9473
vn 0.2980 -0.0000 -0.9546
vn -0.6098 -0.3520 -0.7101
vn -0.2774 -0.1602 -0.9473
vn 0.2597 0.1489 -0.9541
vn 0.3520 -0.6098 -0.7101
vn 0.6098 -0.3520 -0.7100
vn 0.1602 -0.2775 -0.9473
vn 0.2774 -0.1602 -0.9473
vn -0.1508 0.2606 -0.9536
vn -0.2596 0.1489 -0.9542
vn -0.3520 -0.6099 -0.7100
vn -0.1602 -0.2775 -0.9473
vn 0.1508 0.2607 -0.9536
vn 0.7041 -0.0000 -0.7101
vn 0.3204 -0.0000 -0.9473
vn -0.2980 -0.0000 -0.9546
vn -0.0000 -0.7041 -0.7101
vn -0.0000 -0.3204 -0.9473
vn -0.0000 0.3016 -0.9534
vn 0.6098 0.3520 -0.7101
vn 0.2774 0.1602 -0.9473
vn -0.2597 -0.1489 -0.9541
vn 0.3520 0.6099 -0.7100
vn 0.1602 0.2774 -0.9473
vn -0.1508 -0.2607 -0.9536
vn -0.0000 0.4340 -0.9009
vn -0.2180 0.3776 -0.9000
vn -0.3729 0.2159 -0.9024
vn -0.4286 -0.0000 -0.9035
vn -0.3729 -0.2159 -0.9024
vn -0.2179 -0.3776 -0.9000
vn -0.0000 -0.4341 -0.9009
vn 0.2179 -0.3775 -0.9000
vn 0.3729 -0.2159 -0.9024
vn 0.4286 -0.0000 -0.9035
vn 0.3729 0.2159 -0.9024
vn 0.2179 0.3775 -0.9000
vn -0.0000 -0.7960 0.6053
vn -0.3968 -0.6838 0.6123
vn 0.3968 -0.6839 0.6123
vn 0.6652 -0.3706 0.6482
vn 0.2809 -0.1771 0.9433
vn 0.1925 -0.3368 0.9217
vn 0.7423 -0.0000 0.6701
vn 0.2842 -0.0000 0.9588
vn 0.6652 0.3706 0.6482
vn 0.2809 0.1771 0.9433
vn 0.3968 0.6838 0.6123
vn 0.1925 0.3368 0.9217
vn -0.0000 0.7959 0.6054
vn -0.0000 0.3761 0.9266
vn -0.3968 0.6839 0.6122
vn -0.1925 0.3367 0.9217
vn -0.6652 0.3706 0.6482
vn -0.2809 0.1771 0.9433
vn -0.7423 -0.0000 0.6701
vn -0.2841 -0.0000 0.9588
vn -0.6652 -0.3706 0.6482
vn -0.2809 -0.1771 0.9433
vn -0.1925 -0.3367 0.9217
vn -0.0000 -0.3761 0.9266
vn 0.8386 -0.4831 0.2517
vn 0.9673 -0.0000 0.2536
vn 0.8386 0.4831 0.2517
vn 0.4837 0.8386 0.2506
vn -0.0000 0.9679 0.2515
vn -0.4837 0.8386 0.2506
vn -0.8386 0.4831 0.2518
vn -0.9673 -0.0000 0.2535
vn -0.8386 -0.4831 0.2518
vn -0.0000 0.0040 -1.0000
vn -0.0000 -0.0000 -1.0000
vn -0.0000 -0.0040 -1.0000
vn -0.0000 -0.0081 1.0000
vn -0.0000 -0.0000 1.0000
vn -0.0000 0.0081 1.0000
vt 0.021272 0.290042
vt 0.016200 0.290047
vt 0.032535 0.229083
vt 0.036925 0.231623
vt 0.040298 0.346529
vt 0.037250 0.348288
vt 0.081646 0.387876
vt 0.079886 0.390924
vt 0.138127 0.403010
vt 0.138127 0.406529
vt 0.194609 0.387876
vt 0.196368 0.390924
vt 0.235956 0.346529
vt 0.239004 0.348288
vt 0.254982 0.290042
vt 0.260054 0.290047
vt 0.239329 0.231624
vt 0.243719 0.229083
vt 0.194609 0.192218
vt 0.196368 0.189170
vt 0.138127 0.177084
vt 0.138127 0.173565
vt 0.081646 0.192218
vt 0.079886 0.189170
vt 0.077163 0.184455
vt 0.138127 0.168120
vt 0.199091 0.184455
vt 0.189943 0.379795
vt 0.138127 0.393679
vt 0.138127 0.381593
vt 0.183900 0.369328
vt 0.138127 0.362403
vt 0.174305 0.352709
vt 0.227875 0.341863
vt 0.217408 0.335820
vt 0.200789 0.326225
vt 0.241759 0.290047
vt 0.229673 0.290047
vt 0.210483 0.290047
vt 0.227875 0.238231
vt 0.217408 0.244274
vt 0.200789 0.253869
vt 0.086311 0.200299
vt 0.048379 0.238231
vt 0.092354 0.210766
vt 0.058846 0.244274
vt 0.101949 0.227384
vt 0.075465 0.253869
vt 0.189943 0.200299
vt 0.183900 0.210766
vt 0.174305 0.227384
vt 0.034495 0.290047
vt 0.046581 0.290047
vt 0.065771 0.290047
vt 0.138127 0.186415
vt 0.138127 0.198501
vt 0.138127 0.217691
vt 0.048379 0.341863
vt 0.058846 0.335820
vt 0.075465 0.326225
vt 0.086311 0.379795
vt 0.092354 0.369328
vt 0.101949 0.352709
vt 0.138127 0.237476
vt 0.111841 0.244416
vt 0.092860 0.263610
vt 0.085857 0.290047
vt 0.092860 0.316484
vt 0.111841 0.335678
vt 0.138127 0.342618
vt 0.164413 0.335678
vt 0.183394 0.316484
vt 0.190397 0.290047
vt 0.183394 0.263610
vt 0.164413 0.244416
vt 0.138127 0.184605
vt 0.190982 0.198695
vt 0.085272 0.198695
vt 0.046893 0.237085
vt 0.064334 0.240868
vt 0.091555 0.208845
vt 0.032783 0.290047
vt 0.052943 0.290047
vt 0.046893 0.343009
vt 0.064334 0.339226
vt 0.085272 0.381399
vt 0.091555 0.371249
vt 0.138127 0.395489
vt 0.138127 0.380763
vt 0.190982 0.381399
vt 0.184699 0.371249
vt 0.229361 0.343009
vt 0.211920 0.339226
vt 0.243471 0.290047
vt 0.223312 0.290047
vt 0.229361 0.237085
vt 0.211920 0.240868
vt 0.184699 0.208845
vt 0.138127 0.199331
vt 0.032535 0.351011
vt 0.077163 0.395639
vt 0.138127 0.411974
vt 0.199091 0.395639
vt 0.243719 0.351011
vt 0.138127 0.263697
vt 0.138127 0.290047
vt 0.138127 0.316397
vt 0.138127 0.243051
vt 0.138127 0.243051
vt 0.138127 0.290047
vt 0.211451 0.290047
vt 0.201645 0.240868
vt 0.138127 0.337043
vt 0.201645 0.339226
vt 0.138127 0.337043
vt 0.074609 0.240868
vt 0.064804 0.290047
vt 0.074609 0.339226
s 1
usemtl Material.001
f 2/1/1 52/2/2 53/3/3 1/4/4
f 3/5/5 51/6/6 52/2/2 2/1/1
f 4/7/7 50/8/8 51/6/6 3/5/5
f 4/7/7 56/9/9 49/10/10 50/8/8
f 5/11/11 48/12/12 49/10/10 56/9/9
f 6/13/13 47/14/14 48/12/12 5/11/11
f 7/15/15 46/16/16 47/14/14 6/13/13
f 8/17/17 45/18/18 46/16/16 7/15/15
f 9/19/19 44/20/20 45/18/18 8/17/17
f 9/19/19 57/21/21 55/22/22 44/20/20
f 58/23/23 54/24/24 55/22/22 57/21/21
f 55/22/22 54/24/24 11/25/25 10/26/26
f 44/20/20 55/22/22 10/26/26 21/27/27
f 38/28/28 59/29/29 86/30/30 39/31/31
f 39/31/31 86/30/30 63/32/32 76/33/33
f 6/13/13 5/11/11 38/28/28 36/34/34
f 36/34/34 38/28/28 39/31/31 37/35/35
f 37/35/35 39/31/31 76/33/33 83/36/36
f 7/15/15 6/13/13 36/34/34 34/37/37
f 34/37/37 36/34/34 37/35/35 35/38/38
f 35/38/38 37/35/35 83/36/36 79/39/39
f 8/17/17 7/15/15 34/37/37 32/40/40
f 32/40/40 34/37/37 35/38/38 33/41/41
f 33/41/41 35/38/38 79/39/39 75/42/42
f 1/4/4 58/23/23 61/43/43 30/44/44
f 30/44/44 61/43/43 78/45/45 31/46/46
f 31/46/46 78/45/45 62/47/47 85/48/48
f 9/19/19 8/17/17 32/40/40 28/49/49
f 28/49/49 32/40/40 33/41/41 29/50/50
f 29/50/50 33/41/41 75/42/42 82/51/51
f 2/1/1 1/4/4 30/44/44 26/52/52
f 26/52/52 30/44/44 31/46/46 27/53/53
f 27/53/53 31/46/46 85/48/48 80/54/54
f 58/23/23 57/21/21 60/55/55 61/43/43
f 61/43/43 60/55/55 81/56/56 78/45/45
f 78/45/45 81/56/56 40/57/57 62/47/47
f 57/21/21 9/19/19 28/49/49 60/55/55
f 60/55/55 28/49/49 29/50/50 81/56/56
f 81/56/56 29/50/50 82/51/51 40/57/57
f 3/5/5 2/1/1 26/52/52 24/58/58
f 24/58/58 26/52/52 27/53/53 25/59/59
f 25/59/59 27/53/53 80/54/54 77/60/60
f 4/7/7 3/5/5 24/58/58 22/61/61
f 22/61/61 24/58/58 25/59/59 23/62/62
f 23/62/62 25/59/59 77/60/60 84/63/63
f 56/9/9 4/7/7 22/61/61 59/29/29
f 59/29/29 22/61/61 23/62/62 86/30/30
f 86/30/30 23/62/62 84/63/63 63/32/32
f 41/64/64 64/65/65 62/47/47 40/57/57
f 65/66/66 85/48/48 62/47/47 64/65/65
f 66/67/67 80/54/54 85/48/48 65/66/66
f 67/68/68 77/60/60 80/54/54 66/67/67
f 68/69/69 84/63/63 77/60/60 67/68/68
f 69/70/70 63/32/32 84/63/63 68/69/69
f 70/71/71 76/33/33 63/32/32 69/70/70
f 71/72/72 83/36/36 76/33/33 70/71/71
f 72/73/73 79/39/39 83/36/36 71/72/72
f 73/74/74 75/42/42 79/39/39 72/73/73
f 74/75/75 82/51/51 75/42/42 73/74/74
f 41/64/64 40/57/57 82/51/51 74/75/75
f 21/27/27 10/26/26 98/76/76 43/77/77
f 99/78/78 100/79/79 88/80/80 87/81/81
f 100/79/79 101/82/82 89/83/83 88/80/80
f 101/82/82 102/84/84 90/85/85 89/83/83
f 102/84/84 103/86/86 91/87/87 90/85/85
f 103/86/86 104/88/88 92/89/89 91/87/87
f 104/88/88 105/90/90 93/91/91 92/89/89
f 105/90/90 106/92/92 94/93/93 93/91/91
f 106/92/92 107/94/94 95/95/95 94/93/93
f 107/94/94 108/96/96 96/97/97 95/95/95
f 43/77/77 97/98/98 96/97/97 108/96/96
f 43/77/77 98/76/76 42/99/99 97/98/98
f 10/26/26 11/25/25 99/78/78 98/76/76
f 11/25/25 12/3/100 100/79/79 99/78/78
f 12/3/100 13/2/101 101/82/82 100/79/79
f 13/2/101 14/100/102 102/84/84 101/82/82
f 14/100/102 15/101/103 103/86/86 102/84/84
f 15/101/103 16/102/104 104/88/88 103/86/86
f 16/102/104 17/103/105 105/90/90 104/88/88
f 17/103/105 18/104/106 106/92/92 105/90/90
f 18/104/106 19/16/107 107/94/94 106/92/92
f 19/16/107 20/18/108 108/96/96 107/94/94
f 20/18/108 21/27/27 43/77/77 108/96/96
f 98/76/76 99/78/78 87/81/81 42/99/99
f 45/18/18 44/20/20 21/27/27 20/18/108
f 46/16/16 45/18/18 20/18/108 19/16/107
f 47/14/14 46/16/16 19/16/107 18/104/106
f 48/12/12 47/14/14 18/104/106 17/103/105
f 49/10/10 48/12/12 17/103/105 16/102/104
f 50/8/8 49/10/10 16/102/104 15/101/103
f 51/6/6 50/8/8 15/101/103 14/100/102
f 52/2/2 51/6/6 14/100/102 13/2/101
f 53/3/3 52/2/2 13/2/101 12/3/100
f 54/24/24 53/3/3 12/3/100 11/25/25
f 5/11/11 56/9/9 59/29/29 38/28/28
f 58/23/23 1/4/4 53/3/3 54/24/24
f 64/65/65 41/64/64 109/105/109 65/66/66
f 41/64/64 74/75/75 73/74/74 109/105/109
f 65/66/66 109/105/109 110/106/110 66/67/67
f 109/105/109 73/74/74 72/73/73 110/106/110
f 66/67/67 110/106/110 111/107/111 67/68/68
f 110/106/110 72/73/73 71/72/72 111/107/111
f 67/68/68 111/107/111 69/70/70 68/69/69
f 111/107/111 71/72/72 70/71/71 69/70/70
f 42/99/99 112/108/112 96/97/97 97/98/98
f 112/109/112 113/110/113 95/111/95 96/112/97
f 113/110/113 114/113/114 94/114/93 95/111/95
f 114/115/114 92/89/89 93/91/91 94/93/93
f 87/81/81 88/80/80 112/108/112 42/99/99
f 88/116/80 89/117/83 113/110/113 112/109/112
f 89/117/83 90/118/85 114/113/114 113/110/113
f 90/85/85 91/87/87 92/89/89 114/115/114
